<svg width="140" height="54" viewBox="0 0 140 54" fill="none" xmlns="http://www.w3.org/2000/svg">
<path fill-rule="evenodd" clip-rule="evenodd" d="M34.1476 0C32.58 0 31.3093 1.27061 31.3093 2.83816V33.0669V15.8565C31.3093 15.8565 29.2728 14.502 26.5638 13.5979C24.5408 12.9227 21.9963 12.63 20.4369 12.63C9.17412 12.63 0 21.8041 0 33.0669C0 44.3295 9.17412 53.5039 20.4369 53.5039C31.6997 53.5039 40.4653 44.3295 40.4653 33.0669V2.83816C40.4653 1.27061 39.1947 0 37.6271 0H34.1476ZM20.5161 21.7474C26.7842 21.7474 31.2685 26.7988 31.2685 33.0669C31.2685 35.9924 30.2912 38.6538 28.6117 40.659C26.6931 42.9506 23.8585 44.3862 20.5161 44.3862C14.248 44.3862 9.19666 39.3349 9.19659 33.0669C9.19659 26.7988 14.248 21.7474 20.5161 21.7474Z" fill="white"/>
<path fill-rule="evenodd" clip-rule="evenodd" d="M20.4369 12.6301C9.17412 12.6301 0 21.8043 0 33.067C0 44.3297 9.17412 53.504 20.4369 53.504C31.6997 53.504 40.4653 44.3297 40.4653 33.067H31.3093V15.8566C31.0039 15.6564 30.8579 15.5464 30.3757 15.2809C27.4303 13.6596 24.0845 12.6301 20.4369 12.6301ZM20.5161 21.7476C26.7842 21.7476 31.2685 26.799 31.2685 33.067C31.2685 35.9926 30.2912 38.654 28.6117 40.6592C26.6931 42.9507 23.8585 44.3863 20.5161 44.3863C14.248 44.3863 9.19666 39.335 9.19659 33.067C9.19659 26.799 14.2481 21.7475 20.5161 21.7476Z" fill="url(#paint0_radial_201_1026)"/>
<path d="M52.6012 13.6034H67.2314C70.6201 13.6034 73.6257 14.2369 76.2482 15.504C78.8707 16.7711 80.9039 18.5685 82.3478 20.8964C83.7917 23.2243 84.5136 25.9499 84.5136 29.0734C84.5136 32.1969 83.7917 34.9225 82.3478 37.2504C80.9039 39.5783 78.8707 41.3757 76.2482 42.6428C73.6257 43.9099 70.6201 44.5434 67.2314 44.5434H52.6012V13.6034ZM66.8778 37.5598C69.5298 37.5598 71.6514 36.8084 73.2426 35.3056C74.8633 33.8028 75.6736 31.7254 75.6736 29.0734C75.6736 26.4214 74.8633 24.344 73.2426 22.8412C71.6514 21.3384 69.5298 20.587 66.8778 20.587H61.3528V37.5598H66.8778Z" fill="white"/>
<path d="M96.0574 20.1892C100.035 20.1892 103.07 21.1027 105.163 22.9296C107.255 24.7271 108.301 27.4969 108.301 31.2392V44.5434H100.477V41.4494C99.2692 43.7773 96.9119 44.9412 93.4054 44.9412C91.549 44.9412 89.9431 44.6171 88.5876 43.9688C87.2321 43.3205 86.2008 42.4513 85.4936 41.361C84.8158 40.2413 84.477 38.9742 84.477 37.5598C84.477 35.2909 85.3463 33.5376 87.0848 32.3C88.8233 31.0329 91.5048 30.3994 95.1292 30.3994H99.9028C99.7555 27.8653 98.0611 26.5982 94.8198 26.5982C93.6706 26.5982 92.5066 26.7897 91.328 27.1728C90.1493 27.5264 89.1474 28.0273 88.3224 28.6756L85.4936 22.9738C86.8196 22.0898 88.4255 21.4121 90.3114 20.9406C92.2267 20.4397 94.142 20.1892 96.0574 20.1892ZM95.748 39.6372C96.7204 39.6372 97.5749 39.4015 98.3116 38.93C99.0482 38.4585 99.5787 37.7661 99.9028 36.8526V34.7752H96.2784C93.8327 34.7752 92.6098 35.5855 92.6098 37.2062C92.6098 37.9429 92.8897 38.5322 93.4496 38.9742C94.0094 39.4162 94.7756 39.6372 95.748 39.6372Z" fill="white"/>
<path d="M121.425 21.471H127.127V27.7474H121.646V44.5434H113.248V27.7474H109.756V21.471H113.248V20.8522C113.248 17.935 114.117 15.6219 115.856 13.9128C117.624 12.2037 120.084 11.3492 123.237 11.3492C124.298 11.3492 125.329 11.4523 126.331 11.6586C127.333 11.8649 128.158 12.1743 128.806 12.5868L126.729 18.5096C125.904 18.0381 125.064 17.8024 124.21 17.8024C123.326 17.8024 122.633 18.0676 122.132 18.598C121.661 19.1284 121.425 19.9093 121.425 20.9406V21.471Z" fill="white"/>
<path d="M130.674 20.587H139.072V44.5434H130.674V20.587ZM134.873 17.935C133.341 17.935 132.103 17.5077 131.16 16.6532C130.217 15.7987 129.746 14.7379 129.746 13.4708C129.746 12.2037 130.217 11.1429 131.16 10.2884C132.103 9.43386 133.341 9.00659 134.873 9.00659C136.405 9.00659 137.643 9.41913 138.586 10.2442C139.529 11.0398 140 12.0711 140 13.3382C140 14.6642 139.529 15.7692 138.586 16.6532C137.643 17.5077 136.405 17.935 134.873 17.935Z" fill="white"/>
<defs>
<radialGradient id="paint0_radial_201_1026" cx="0" cy="0" r="1" gradientUnits="userSpaceOnUse" gradientTransform="translate(36.2607 14.8775) scale(40.2524 40.2524)">
<stop stop-color="white" stop-opacity="0.476377"/>
<stop offset="0.110106" stop-color="white" stop-opacity="0.37"/>
<stop offset="0.45098" stop-color="white" stop-opacity="0"/>
</radialGradient>
</defs>
</svg>
