<svg width="179" height="246" viewBox="0 0 179 246" fill="none" xmlns="http://www.w3.org/2000/svg">
<path d="M87.9 19.1856C92.1445 1.9733 100.883 5.46116 112.043 8.20756C123.202 10.954 132.539 11.93 128.302 29.1423C124.065 46.3546 108.691 69.7935 97.5314 67.0396C86.3717 64.2856 83.648 36.3979 87.9 19.1856Z" fill="url(#paint0_linear_201_687)" fill-opacity="0.1"/>
<path d="M87.9 19.1856C92.1445 1.9733 100.883 5.46116 112.043 8.20756C123.202 10.954 132.539 11.93 128.302 29.1423C124.065 46.3546 108.691 69.7935 97.5314 67.0396C86.3717 64.2856 83.648 36.3979 87.9 19.1856Z" fill="url(#paint1_linear_201_687)"/>
<path d="M90.9263 19.1856C86.6819 1.9733 77.9433 5.46116 66.7837 8.20756C55.6241 10.954 46.2651 11.93 50.5096 29.1423C54.754 46.3546 70.1203 69.7935 81.2799 67.0396C92.4395 64.2856 95.1405 36.3979 90.9263 19.1856Z" fill="url(#paint2_linear_201_687)" fill-opacity="0.1"/>
<path d="M90.9263 19.1856C86.6819 1.9733 77.9433 5.46116 66.7837 8.20756C55.6241 10.954 46.2651 11.93 50.5096 29.1423C54.754 46.3546 70.1203 69.7935 81.2799 67.0396C92.4395 64.2856 95.1405 36.3979 90.9263 19.1856Z" fill="url(#paint3_linear_201_687)"/>
<path d="M178.41 176.888C178.41 201.452 168.462 218.497 152.393 229.418C136.304 240.353 114.042 245.17 89.398 245.17C64.7545 245.17 42.4906 240.353 26.399 229.418C10.3286 218.497 0.378292 201.452 0.378292 176.888C0.378292 152.291 10.355 121.616 26.5014 97.0919C42.6559 72.5551 64.9099 54.2835 89.4132 54.2835C113.916 54.2835 136.161 72.5532 152.306 97.089C168.443 121.612 178.41 152.287 178.41 176.888Z" fill="url(#paint4_linear_201_687)" fill-opacity="0.8"/>
<path d="M178.41 176.888C178.41 201.452 168.462 218.497 152.393 229.418C136.304 240.353 114.042 245.17 89.398 245.17C64.7545 245.17 42.4906 240.353 26.399 229.418C10.3286 218.497 0.378292 201.452 0.378292 176.888C0.378292 152.291 10.355 121.616 26.5014 97.0919C42.6559 72.5551 64.9099 54.2835 89.4132 54.2835C113.916 54.2835 136.161 72.5532 152.306 97.089C168.443 121.612 178.41 152.287 178.41 176.888Z" fill="url(#paint5_linear_201_687)" fill-opacity="0.1"/>
<path d="M178.41 176.888C178.41 201.452 168.462 218.497 152.393 229.418C136.304 240.353 114.042 245.17 89.398 245.17C64.7545 245.17 42.4906 240.353 26.399 229.418C10.3286 218.497 0.378292 201.452 0.378292 176.888C0.378292 152.291 10.355 121.616 26.5014 97.0919C42.6559 72.5551 64.9099 54.2835 89.4132 54.2835C113.916 54.2835 136.161 72.5532 152.306 97.089C168.443 121.612 178.41 152.287 178.41 176.888Z" fill="url(#paint6_linear_201_687)"/>
<path d="M178.41 176.888C178.41 201.452 168.462 218.497 152.393 229.418C136.304 240.353 114.042 245.17 89.398 245.17C64.7545 245.17 42.4906 240.353 26.399 229.418C10.3286 218.497 0.378292 201.452 0.378292 176.888C0.378292 152.291 10.355 121.616 26.5014 97.0919C42.6559 72.5551 64.9099 54.2835 89.4132 54.2835C113.916 54.2835 136.161 72.5532 152.306 97.089C168.443 121.612 178.41 152.287 178.41 176.888Z" stroke="url(#paint7_linear_201_687)" stroke-width="0.756585"/>
<path d="M178.41 176.888C178.41 201.452 168.462 218.497 152.393 229.418C136.304 240.353 114.042 245.17 89.398 245.17C64.7545 245.17 42.4906 240.353 26.399 229.418C10.3286 218.497 0.378292 201.452 0.378292 176.888C0.378292 152.291 10.355 121.616 26.5014 97.0919C42.6559 72.5551 64.9099 54.2835 89.4132 54.2835C113.916 54.2835 136.161 72.5532 152.306 97.089C168.443 121.612 178.41 152.287 178.41 176.888Z" stroke="url(#paint8_radial_201_687)" stroke-width="0.756585"/>
<g filter="url(#filter0_b_201_687)">
<path d="M68.5844 16.4543C68.5844 -1.28001 77.898 0.021313 89.3981 0.021313C100.898 0.021313 110.204 -1.28001 110.204 16.4543C110.204 34.1887 100.891 60.6086 89.3981 60.6086C77.9055 60.6086 68.5844 34.1811 68.5844 16.4543Z" fill="url(#paint9_linear_201_687)" fill-opacity="0.8"/>
<path d="M68.9627 16.4543C68.9627 7.64176 71.2738 3.72089 74.8485 1.92549C76.6642 1.01353 78.8468 0.626535 81.3178 0.472641C83.1468 0.358729 85.1066 0.373303 87.1721 0.388663C87.9013 0.394085 88.6436 0.399605 89.3981 0.399605C90.1525 0.399605 90.8948 0.394084 91.624 0.388662C93.6893 0.373303 95.6486 0.358731 97.4771 0.47264C99.9474 0.626534 102.129 1.01353 103.944 1.92546C107.517 3.72081 109.826 7.64162 109.826 16.4543C109.826 25.2669 107.509 36.2551 103.763 45.0334C101.89 49.4224 99.6679 53.2379 97.2168 55.9497C94.7618 58.6657 92.1189 60.2303 89.3981 60.2303C86.6772 60.2303 84.0338 58.6653 81.5781 55.9486C79.1263 53.2362 76.9035 49.42 75.0294 45.0305C71.2812 36.2513 68.9627 25.2631 68.9627 16.4543Z" stroke="url(#paint10_linear_201_687)" stroke-width="0.756585"/>
<path d="M68.9627 16.4543C68.9627 7.64176 71.2738 3.72089 74.8485 1.92549C76.6642 1.01353 78.8468 0.626535 81.3178 0.472641C83.1468 0.358729 85.1066 0.373303 87.1721 0.388663C87.9013 0.394085 88.6436 0.399605 89.3981 0.399605C90.1525 0.399605 90.8948 0.394084 91.624 0.388662C93.6893 0.373303 95.6486 0.358731 97.4771 0.47264C99.9474 0.626534 102.129 1.01353 103.944 1.92546C107.517 3.72081 109.826 7.64162 109.826 16.4543C109.826 25.2669 107.509 36.2551 103.763 45.0334C101.89 49.4224 99.6679 53.2379 97.2168 55.9497C94.7618 58.6657 92.1189 60.2303 89.3981 60.2303C86.6772 60.2303 84.0338 58.6653 81.5781 55.9486C79.1263 53.2362 76.9035 49.42 75.0294 45.0305C71.2812 36.2513 68.9627 25.2631 68.9627 16.4543Z" stroke="url(#paint11_radial_201_687)" stroke-width="0.756585"/>
</g>
<g filter="url(#filter1_b_201_687)">
<path d="M61.5103 61.9628C78.5107 50.9924 100.595 52.3315 117.868 61.9628C121.984 64.2326 125.676 57.9454 121.56 55.6529C102.093 44.7959 76.9976 43.2752 57.8257 55.6529C53.8537 58.2253 57.5382 64.5277 61.5103 61.9628Z" fill="url(#paint12_linear_201_687)" fill-opacity="0.8"/>
<path d="M61.3051 61.645L61.3052 61.645C78.4463 50.5838 100.683 51.9477 118.052 61.6321C118.987 62.1475 119.876 62.1697 120.634 61.9004C121.4 61.6279 122.052 61.048 122.475 60.3274C122.897 59.6066 123.076 58.7693 122.927 57.9965C122.781 57.2347 122.312 56.5044 121.376 55.9834L121.376 55.9833C102.005 45.1798 77.0623 43.684 58.0314 55.9705L61.3051 61.645ZM61.3051 61.645C60.4017 62.2283 59.5439 62.2943 58.816 62.0605M61.3051 61.645L58.816 62.0605M58.816 62.0605C58.0769 61.8232 57.4372 61.2651 57.0156 60.5435M58.816 62.0605L57.0156 60.5435M57.0156 60.5435C56.1712 59.0983 56.2542 57.1217 58.0309 55.9707L57.0156 60.5435Z" stroke="url(#paint13_linear_201_687)" stroke-width="0.756585"/>
<path d="M61.3051 61.645L61.3052 61.645C78.4463 50.5838 100.683 51.9477 118.052 61.6321C118.987 62.1475 119.876 62.1697 120.634 61.9004C121.4 61.6279 122.052 61.048 122.475 60.3274C122.897 59.6066 123.076 58.7693 122.927 57.9965C122.781 57.2347 122.312 56.5044 121.376 55.9834L121.376 55.9833C102.005 45.1798 77.0623 43.684 58.0314 55.9705L61.3051 61.645ZM61.3051 61.645C60.4017 62.2283 59.5439 62.2943 58.816 62.0605M61.3051 61.645L58.816 62.0605M58.816 62.0605C58.0769 61.8232 57.4372 61.2651 57.0156 60.5435M58.816 62.0605L57.0156 60.5435M57.0156 60.5435C56.1712 59.0983 56.2542 57.1217 58.0309 55.9707L57.0156 60.5435Z" stroke="url(#paint14_radial_201_687)" stroke-width="0.756585"/>
</g>
<g filter="url(#filter2_b_201_687)">
<path d="M101.64 47.6332V87.4749C101.64 92.1884 108.948 92.1884 108.948 87.4749V47.6332C108.948 42.9196 101.64 42.9196 101.64 47.6332Z" fill="url(#paint15_linear_201_687)" fill-opacity="0.8"/>
<path d="M102.018 87.4749V47.6332C102.018 46.5619 102.429 45.784 103.028 45.2686C103.635 44.7465 104.458 44.4763 105.294 44.4763C106.13 44.4763 106.952 44.7465 107.56 45.2686C108.159 45.784 108.57 46.5619 108.57 47.6332V87.4749C108.57 88.5462 108.159 89.3241 107.56 89.8394C106.952 90.3615 106.13 90.6318 105.294 90.6318C104.458 90.6318 103.635 90.3615 103.028 89.8394C102.429 89.3241 102.018 88.5462 102.018 87.4749Z" stroke="url(#paint16_linear_201_687)" stroke-width="0.756585"/>
<path d="M102.018 87.4749V47.6332C102.018 46.5619 102.429 45.784 103.028 45.2686C103.635 44.7465 104.458 44.4763 105.294 44.4763C106.13 44.4763 106.952 44.7465 107.56 45.2686C108.159 45.784 108.57 46.5619 108.57 47.6332V87.4749C108.57 88.5462 108.159 89.3241 107.56 89.8394C106.952 90.3615 106.13 90.6318 105.294 90.6318C104.458 90.6318 103.635 90.3615 103.028 89.8394C102.429 89.3241 102.018 88.5462 102.018 87.4749Z" stroke="url(#paint17_radial_201_687)" stroke-width="0.756585"/>
</g>
<g filter="url(#filter3_b_201_687)">
<path d="M94.8757 45.8098V57.3175C94.8757 62.031 102.184 62.031 102.184 57.3175V45.8098C102.184 41.0887 94.8757 41.0887 94.8757 45.8098Z" fill="url(#paint18_linear_201_687)"/>
<path d="M95.254 57.3175V45.8098C95.254 44.7364 95.6652 43.957 96.2646 43.4408C96.8717 42.9179 97.6939 42.6473 98.53 42.6473C99.3662 42.6473 100.188 42.9179 100.795 43.4408C101.395 43.957 101.806 44.7364 101.806 45.8098V57.3175C101.806 58.3887 101.395 59.1667 100.796 59.682C100.189 60.2041 99.3663 60.4743 98.53 60.4743C97.6937 60.4743 96.8715 60.2041 96.2643 59.682C95.6651 59.1667 95.254 58.3887 95.254 57.3175Z" stroke="url(#paint19_linear_201_687)" stroke-width="0.756585"/>
<path d="M95.254 57.3175V45.8098C95.254 44.7364 95.6652 43.957 96.2646 43.4408C96.8717 42.9179 97.6939 42.6473 98.53 42.6473C99.3662 42.6473 100.188 42.9179 100.795 43.4408C101.395 43.957 101.806 44.7364 101.806 45.8098V57.3175C101.806 58.3887 101.395 59.1667 100.796 59.682C100.189 60.2041 99.3663 60.4743 98.53 60.4743C97.6937 60.4743 96.8715 60.2041 96.2643 59.682C95.6651 59.1667 95.254 58.3887 95.254 57.3175Z" stroke="url(#paint20_radial_201_687)" stroke-width="0.756585"/>
</g>
<defs>
<filter id="filter0_b_201_687" x="65.4983" y="-3.08613" width="47.792" height="66.7809" filterUnits="userSpaceOnUse" color-interpolation-filters="sRGB">
<feFlood flood-opacity="0" result="BackgroundImageFix"/>
<feGaussianBlur in="BackgroundImageFix" stdDeviation="1.54307"/>
<feComposite in2="SourceAlpha" operator="in" result="effect1_backgroundBlur_201_687"/>
<feBlend mode="normal" in="SourceGraphic" in2="effect1_backgroundBlur_201_687" result="shape"/>
</filter>
<filter id="filter1_b_201_687" x="53.0328" y="43.8445" width="73.4104" height="21.8065" filterUnits="userSpaceOnUse" color-interpolation-filters="sRGB">
<feFlood flood-opacity="0" result="BackgroundImageFix"/>
<feGaussianBlur in="BackgroundImageFix" stdDeviation="1.54307"/>
<feComposite in2="SourceAlpha" operator="in" result="effect1_backgroundBlur_201_687"/>
<feBlend mode="normal" in="SourceGraphic" in2="effect1_backgroundBlur_201_687" result="shape"/>
</filter>
<filter id="filter2_b_201_687" x="98.5534" y="41.0119" width="13.4809" height="53.0843" filterUnits="userSpaceOnUse" color-interpolation-filters="sRGB">
<feFlood flood-opacity="0" result="BackgroundImageFix"/>
<feGaussianBlur in="BackgroundImageFix" stdDeviation="1.54307"/>
<feComposite in2="SourceAlpha" operator="in" result="effect1_backgroundBlur_201_687"/>
<feBlend mode="normal" in="SourceGraphic" in2="effect1_backgroundBlur_201_687" result="shape"/>
</filter>
<filter id="filter3_b_201_687" x="91.7896" y="39.1829" width="13.4809" height="24.7559" filterUnits="userSpaceOnUse" color-interpolation-filters="sRGB">
<feFlood flood-opacity="0" result="BackgroundImageFix"/>
<feGaussianBlur in="BackgroundImageFix" stdDeviation="1.54307"/>
<feComposite in2="SourceAlpha" operator="in" result="effect1_backgroundBlur_201_687"/>
<feBlend mode="normal" in="SourceGraphic" in2="effect1_backgroundBlur_201_687" result="shape"/>
</filter>
<linearGradient id="paint0_linear_201_687" x1="125.46" y1="60.2264" x2="78.2752" y2="25.0189" gradientUnits="userSpaceOnUse">
<stop stop-color="white"/>
<stop offset="0.979167" stop-color="white"/>
</linearGradient>
<linearGradient id="paint1_linear_201_687" x1="125.46" y1="60.2264" x2="78.2752" y2="25.0189" gradientUnits="userSpaceOnUse">
<stop stop-color="#121212"/>
<stop offset="0.979167" stop-color="#121212"/>
</linearGradient>
<linearGradient id="paint2_linear_201_687" x1="88.9272" y1="60.2264" x2="41.7438" y2="25.0222" gradientUnits="userSpaceOnUse">
<stop stop-color="white"/>
<stop offset="0.979167" stop-color="white"/>
</linearGradient>
<linearGradient id="paint3_linear_201_687" x1="88.9272" y1="60.2264" x2="41.7438" y2="25.0222" gradientUnits="userSpaceOnUse">
<stop stop-color="#121212"/>
<stop offset="0.979167" stop-color="#121212"/>
</linearGradient>
<linearGradient id="paint4_linear_201_687" x1="162.769" y1="223.566" x2="8.99102" y2="72.0999" gradientUnits="userSpaceOnUse">
<stop stop-color="#010101"/>
<stop offset="1" stop-color="#010101"/>
</linearGradient>
<linearGradient id="paint5_linear_201_687" x1="162.769" y1="223.566" x2="8.99102" y2="72.0999" gradientUnits="userSpaceOnUse">
<stop stop-color="white"/>
<stop offset="0.979167" stop-color="white"/>
</linearGradient>
<linearGradient id="paint6_linear_201_687" x1="162.769" y1="223.566" x2="8.99102" y2="72.0999" gradientUnits="userSpaceOnUse">
<stop stop-color="#121212"/>
<stop offset="0.979167" stop-color="#121212"/>
</linearGradient>
<linearGradient id="paint7_linear_201_687" x1="89.3943" y1="29.1543" x2="145.47" y2="266.793" gradientUnits="userSpaceOnUse">
<stop stop-color="#292929"/>
<stop offset="1" stop-color="#656565" stop-opacity="0"/>
</linearGradient>
<radialGradient id="paint8_radial_201_687" cx="0" cy="0" r="1" gradientUnits="userSpaceOnUse" gradientTransform="translate(139.36 217.385) rotate(-146.353) scale(75.037 45.1541)">
<stop stop-color="white"/>
<stop offset="1" stop-color="white" stop-opacity="0"/>
</radialGradient>
<linearGradient id="paint9_linear_201_687" x1="106.475" y1="53.6566" x2="60.2469" y2="20.1411" gradientUnits="userSpaceOnUse">
<stop stop-color="#010101"/>
<stop offset="1" stop-color="#010101"/>
</linearGradient>
<linearGradient id="paint10_linear_201_687" x1="89.3943" y1="-7.82768" x2="112.459" y2="64.1181" gradientUnits="userSpaceOnUse">
<stop stop-color="#292929"/>
<stop offset="1" stop-color="#656565" stop-opacity="0"/>
</linearGradient>
<radialGradient id="paint11_radial_201_687" cx="0" cy="0" r="1" gradientUnits="userSpaceOnUse" gradientTransform="translate(101.026 51.7018) rotate(-137.879) scale(19.6046 12.7238)">
<stop stop-color="white"/>
<stop offset="1" stop-color="white" stop-opacity="0"/>
</radialGradient>
<linearGradient id="paint12_linear_201_687" x1="117.333" y1="60.7715" x2="112.062" y2="36.839" gradientUnits="userSpaceOnUse">
<stop stop-color="#010101"/>
<stop offset="1" stop-color="#010101"/>
</linearGradient>
<linearGradient id="paint13_linear_201_687" x1="89.738" y1="44.9114" x2="90.7829" y2="65.3239" gradientUnits="userSpaceOnUse">
<stop stop-color="#292929"/>
<stop offset="1" stop-color="#656565" stop-opacity="0"/>
</linearGradient>
<radialGradient id="paint14_radial_201_687" cx="0" cy="0" r="1" gradientUnits="userSpaceOnUse" gradientTransform="translate(108.529 60.2673) rotate(-171.784) scale(23.7354 4.37961)">
<stop stop-color="white"/>
<stop offset="1" stop-color="white" stop-opacity="0"/>
</radialGradient>
<linearGradient id="paint15_linear_201_687" x1="108.293" y1="85.6291" x2="96.2347" y2="83.6456" gradientUnits="userSpaceOnUse">
<stop stop-color="#010101"/>
<stop offset="1" stop-color="#010101"/>
</linearGradient>
<linearGradient id="paint16_linear_201_687" x1="105.294" y1="38.0393" x2="134.251" y2="58.5322" gradientUnits="userSpaceOnUse">
<stop stop-color="#292929"/>
<stop offset="1" stop-color="#656565" stop-opacity="0"/>
</linearGradient>
<radialGradient id="paint17_radial_201_687" cx="0" cy="0" r="1" gradientUnits="userSpaceOnUse" gradientTransform="translate(107.336 84.116) rotate(-104.085) scale(10.4929 3.2312)">
<stop stop-color="white"/>
<stop offset="1" stop-color="white" stop-opacity="0"/>
</radialGradient>
<linearGradient id="paint18_linear_201_687" x1="101.529" y1="58.721" x2="90.9659" y2="54.3348" gradientUnits="userSpaceOnUse">
<stop stop-color="#121212"/>
<stop offset="0.979167" stop-color="#121212"/>
</linearGradient>
<linearGradient id="paint19_linear_201_687" x1="98.53" y1="39.8689" x2="108.898" y2="58.392" gradientUnits="userSpaceOnUse">
<stop stop-color="#292929"/>
<stop offset="1" stop-color="#656565" stop-opacity="0"/>
</linearGradient>
<radialGradient id="paint20_radial_201_687" cx="0" cy="0" r="1" gradientUnits="userSpaceOnUse" gradientTransform="translate(100.573 58.1216) rotate(-122.349) scale(4.77228 2.81436)">
<stop stop-color="white"/>
<stop offset="1" stop-color="white" stop-opacity="0"/>
</radialGradient>
</defs>
</svg>
