<svg width="738" height="754" viewBox="0 0 738 754" fill="none" xmlns="http://www.w3.org/2000/svg">
<g opacity="0.75" filter="url(#filter0_f_201_857)">
<g filter="url(#filter1_b_201_857)">
<path d="M588.14 522.14C611.024 499.255 622.354 473.482 613.444 464.573L601.003 452.131L602.859 455.582C603.617 456.99 603.967 458.581 603.87 460.177L603.846 460.575C603.664 463.556 603.164 466.51 602.353 469.385C601.648 471.882 600.712 474.308 599.557 476.632L598.081 479.6C595.643 484.504 592.69 489.135 589.272 493.415L584.877 498.919C578.987 506.293 572.293 512.987 564.919 518.876L559.416 523.272C555.136 526.69 550.505 529.643 545.6 532.081L542.632 533.556C540.309 534.711 537.883 535.647 535.385 536.352C532.51 537.164 529.557 537.664 526.575 537.845L526.178 537.869C524.582 537.966 522.99 537.616 521.582 536.859L518.132 535.003L530.573 547.444C539.482 556.353 565.256 545.024 588.14 522.14Z" fill="url(#paint0_linear_201_857)" fill-opacity="0.1"/>
<path d="M588.14 522.14C611.024 499.255 622.354 473.482 613.444 464.573L601.003 452.131L602.859 455.582C603.617 456.99 603.967 458.581 603.87 460.177L603.846 460.575C603.664 463.556 603.164 466.51 602.353 469.385C601.648 471.882 600.712 474.308 599.557 476.632L598.081 479.6C595.643 484.504 592.69 489.135 589.272 493.415L584.877 498.919C578.987 506.293 572.293 512.987 564.919 518.876L559.416 523.272C555.136 526.69 550.505 529.643 545.6 532.081L542.632 533.556C540.309 534.711 537.883 535.647 535.385 536.352C532.51 537.164 529.557 537.664 526.575 537.845L526.178 537.869C524.582 537.966 522.99 537.616 521.582 536.859L518.132 535.003L530.573 547.444C539.482 556.353 565.256 545.024 588.14 522.14Z" fill="url(#paint1_linear_201_857)"/>
<path d="M613.336 464.681C615.522 466.868 616.479 470.101 616.314 474.101C616.148 478.102 614.859 482.855 612.574 488.054C608.004 498.45 599.464 510.599 588.031 522.031C576.599 533.463 564.45 542.004 554.054 546.574C548.855 548.859 544.103 550.148 540.102 550.313C536.101 550.479 532.868 549.522 530.682 547.335L518.98 535.634L521.509 536.994C522.942 537.765 524.562 538.121 526.187 538.023L526.584 537.999C529.577 537.817 532.542 537.315 535.427 536.5C537.934 535.793 540.369 534.853 542.701 533.694L545.669 532.219C550.583 529.775 555.223 526.817 559.512 523.392L565.015 518.997C572.398 513.1 579.1 506.398 584.997 499.015L589.392 493.511C592.817 489.223 595.776 484.582 598.219 479.668L599.694 476.7C600.854 474.368 601.793 471.933 602.501 469.427C603.315 466.541 603.817 463.577 603.999 460.584L604.023 460.187C604.122 458.562 603.766 456.942 602.995 455.509L601.634 452.98L613.336 464.681Z" stroke="url(#paint2_linear_201_857)" stroke-width="0.30758"/>
<path d="M613.336 464.681C615.522 466.868 616.479 470.101 616.314 474.101C616.148 478.102 614.859 482.855 612.574 488.054C608.004 498.45 599.464 510.599 588.031 522.031C576.599 533.463 564.45 542.004 554.054 546.574C548.855 548.859 544.103 550.148 540.102 550.313C536.101 550.479 532.868 549.522 530.682 547.335L518.98 535.634L521.509 536.994C522.942 537.765 524.562 538.121 526.187 538.023L526.584 537.999C529.577 537.817 532.542 537.315 535.427 536.5C537.934 535.793 540.369 534.853 542.701 533.694L545.669 532.219C550.583 529.775 555.223 526.817 559.512 523.392L565.015 518.997C572.398 513.1 579.1 506.398 584.997 499.015L589.392 493.511C592.817 489.223 595.776 484.582 598.219 479.668L599.694 476.7C600.854 474.368 601.793 471.933 602.501 469.427C603.315 466.541 603.817 463.577 603.999 460.584L604.023 460.187C604.122 458.562 603.766 456.942 602.995 455.509L601.634 452.98L613.336 464.681Z" stroke="url(#paint3_radial_201_857)" stroke-width="0.30758"/>
</g>
<g filter="url(#filter2_b_201_857)">
<ellipse cx="559.567" cy="493.567" rx="58.5991" ry="22.8134" transform="rotate(-45 559.567 493.567)" fill="url(#paint4_linear_201_857)" fill-opacity="0.8"/>
<path d="M600.894 452.24C603.081 454.427 604.038 457.66 603.872 461.66C603.707 465.661 602.418 470.414 600.133 475.613C595.563 486.009 587.022 498.158 575.59 509.59C564.158 521.022 552.009 529.563 541.613 534.133C536.414 536.418 531.661 537.707 527.66 537.872C523.66 538.038 520.427 537.081 518.24 534.894C516.054 532.708 515.097 529.475 515.262 525.474C515.428 521.473 516.717 516.721 519.002 511.522C523.572 501.126 532.112 488.977 543.545 477.545C554.977 466.112 567.126 457.572 577.522 453.002C582.721 450.717 587.473 449.428 591.474 449.262C595.475 449.097 598.708 450.054 600.894 452.24Z" stroke="url(#paint5_linear_201_857)" stroke-width="0.30758"/>
<path d="M600.894 452.24C603.081 454.427 604.038 457.66 603.872 461.66C603.707 465.661 602.418 470.414 600.133 475.613C595.563 486.009 587.022 498.158 575.59 509.59C564.158 521.022 552.009 529.563 541.613 534.133C536.414 536.418 531.661 537.707 527.66 537.872C523.66 538.038 520.427 537.081 518.24 534.894C516.054 532.708 515.097 529.475 515.262 525.474C515.428 521.473 516.717 516.721 519.002 511.522C523.572 501.126 532.112 488.977 543.545 477.545C554.977 466.112 567.126 457.572 577.522 453.002C582.721 450.717 587.473 449.428 591.474 449.262C595.475 449.097 598.708 450.054 600.894 452.24Z" stroke="url(#paint6_radial_201_857)" stroke-width="0.30758"/>
</g>
<path d="M561.515 493.227L561.516 493.222C561.321 493.287 560.317 493.61 558.117 494.199C556.357 494.671 555.137 494.952 554.706 495.047L554.705 495.052C548.019 496.566 543.288 496.743 543.667 495.331C544.044 493.923 549.411 491.39 556.252 489.279L555.019 493.88C555.451 493.793 556.701 493.529 558.451 493.06C560.553 492.496 561.628 492.125 561.829 492.055L563.061 487.459C569.732 485.952 574.449 485.779 574.072 487.187C573.695 488.594 568.343 491.12 561.514 493.231M563.188 486.982L564.291 482.867L573.711 480.342L575.393 474.067L549.747 480.939L548.066 487.215L557.486 484.691L556.383 488.806C548.632 491.21 542.472 494.266 541.985 496.083C541.498 497.9 546.851 497.871 554.407 496.177L550.872 509.37L557.682 507.545L561.217 494.352C568.955 491.952 575.106 488.898 575.593 487.081C576.079 485.268 570.74 485.289 563.192 486.985" fill="white"/>
</g>
<g filter="url(#filter3_b_201_857)">
<path d="M596.632 460.371C627.224 429.779 642.369 395.324 630.459 383.414L613.827 366.782L616.308 371.395C617.321 373.277 617.789 375.405 617.659 377.538L617.627 378.07C617.385 382.056 616.716 386.004 615.631 389.848C614.689 393.186 613.438 396.429 611.893 399.536L609.921 403.503C606.662 410.059 602.714 416.25 598.145 421.972L593.018 428.392C584.647 438.873 575.133 448.387 564.652 456.757L558.232 461.884C552.511 466.454 546.32 470.401 539.763 473.661L535.796 475.633C532.69 477.177 529.447 478.429 526.108 479.371C522.265 480.455 518.316 481.124 514.33 481.366L513.799 481.399C511.665 481.528 509.538 481.061 507.656 480.048L503.043 477.567L519.675 494.199C531.585 506.108 566.039 490.963 596.632 460.371Z" fill="url(#paint7_linear_201_857)" fill-opacity="0.1"/>
<path d="M596.632 460.371C627.224 429.779 642.369 395.324 630.459 383.414L613.827 366.782L616.308 371.395C617.321 373.277 617.789 375.405 617.659 377.538L617.627 378.07C617.385 382.056 616.716 386.004 615.631 389.848C614.689 393.186 613.438 396.429 611.893 399.536L609.921 403.503C606.662 410.059 602.714 416.25 598.145 421.972L593.018 428.392C584.647 438.873 575.133 448.387 564.652 456.757L558.232 461.884C552.511 466.454 546.32 470.401 539.763 473.661L535.796 475.633C532.69 477.177 529.447 478.429 526.108 479.371C522.265 480.455 518.316 481.124 514.33 481.366L513.799 481.399C511.665 481.528 509.538 481.061 507.656 480.048L503.043 477.567L519.675 494.199C531.585 506.108 566.039 490.963 596.632 460.371Z" fill="url(#paint8_linear_201_857)"/>
<path d="M630.277 383.596C633.187 386.506 634.464 390.811 634.243 396.151C634.022 401.491 632.301 407.837 629.248 414.783C623.143 428.674 611.729 444.91 596.45 460.189C581.17 475.469 564.934 486.882 551.044 492.988C544.098 496.041 537.751 497.761 532.411 497.983C527.071 498.204 522.766 496.926 519.857 494.017L504.462 478.622L507.534 480.274C509.458 481.31 511.633 481.788 513.815 481.655L514.346 481.623C518.35 481.38 522.317 480.708 526.178 479.618C529.532 478.672 532.79 477.415 535.911 475.863L539.878 473.891C546.451 470.623 552.657 466.666 558.393 462.085L564.813 456.958C575.309 448.576 584.836 439.048 593.219 428.552L598.346 422.132C602.926 416.397 606.884 410.19 610.151 403.617L612.124 399.65C613.675 396.53 614.932 393.271 615.879 389.917C616.968 386.057 617.64 382.09 617.884 378.085L617.916 377.554C618.048 375.373 617.57 373.198 616.535 371.273L614.883 368.201L630.277 383.596Z" stroke="url(#paint9_linear_201_857)" stroke-width="0.51432"/>
<path d="M630.277 383.596C633.187 386.506 634.464 390.811 634.243 396.151C634.022 401.491 632.301 407.837 629.248 414.783C623.143 428.674 611.729 444.91 596.45 460.189C581.17 475.469 564.934 486.882 551.044 492.988C544.098 496.041 537.751 497.761 532.411 497.983C527.071 498.204 522.766 496.926 519.857 494.017L504.462 478.622L507.534 480.274C509.458 481.31 511.633 481.788 513.815 481.655L514.346 481.623C518.35 481.38 522.317 480.708 526.178 479.618C529.532 478.672 532.79 477.415 535.911 475.863L539.878 473.891C546.451 470.623 552.657 466.666 558.393 462.085L564.813 456.958C575.309 448.576 584.836 439.048 593.219 428.552L598.346 422.132C602.926 416.397 606.884 410.19 610.151 403.617L612.124 399.65C613.675 396.53 614.932 393.271 615.879 389.917C616.968 386.057 617.64 382.09 617.884 378.085L617.916 377.554C618.048 375.373 617.57 373.198 616.535 371.273L614.883 368.201L630.277 383.596Z" stroke="url(#paint10_radial_201_857)" stroke-width="0.51432"/>
</g>
<g filter="url(#filter4_b_201_857)">
<ellipse cx="558.435" cy="422.175" rx="78.3363" ry="30.4973" transform="rotate(-45 558.435 422.175)" fill="url(#paint11_linear_201_857)" fill-opacity="0.8"/>
<path d="M613.645 366.964C616.555 369.874 617.833 374.179 617.611 379.519C617.39 384.859 615.67 391.206 612.616 398.152C606.511 412.042 595.097 428.278 579.818 443.558C564.539 458.837 548.303 470.25 534.412 476.356C527.466 479.409 521.119 481.13 515.779 481.351C510.44 481.572 506.134 480.294 503.225 477.385C500.315 474.476 499.038 470.17 499.259 464.83C499.48 459.491 501.2 453.144 504.254 446.198C510.359 432.307 521.773 416.071 537.052 400.792C552.331 385.512 568.567 374.099 582.458 367.993C589.404 364.94 595.751 363.22 601.091 362.998C606.43 362.777 610.736 364.055 613.645 366.964Z" stroke="url(#paint12_linear_201_857)" stroke-width="0.51432"/>
<path d="M613.645 366.964C616.555 369.874 617.833 374.179 617.611 379.519C617.39 384.859 615.67 391.206 612.616 398.152C606.511 412.042 595.097 428.278 579.818 443.558C564.539 458.837 548.303 470.25 534.412 476.356C527.466 479.409 521.119 481.13 515.779 481.351C510.44 481.572 506.134 480.294 503.225 477.385C500.315 474.476 499.038 470.17 499.259 464.83C499.48 459.491 501.2 453.144 504.254 446.198C510.359 432.307 521.773 416.071 537.052 400.792C552.331 385.512 568.567 374.099 582.458 367.993C589.404 364.94 595.751 363.22 601.091 362.998C606.43 362.777 610.736 364.055 613.645 366.964Z" stroke="url(#paint13_radial_201_857)" stroke-width="0.51432"/>
</g>
<path d="M561.039 421.72L561.04 421.714C560.78 421.801 559.437 422.232 556.496 423.021C554.144 423.651 552.512 424.027 551.937 424.154L551.935 424.16C542.998 426.185 536.673 426.421 537.179 424.533C537.683 422.652 544.858 419.264 554.003 416.443L552.355 422.594C552.933 422.478 554.603 422.124 556.943 421.497C559.753 420.744 561.19 420.248 561.458 420.154L563.105 414.01C572.023 411.996 578.33 411.764 577.826 413.646C577.321 415.527 570.166 418.904 561.037 421.726M563.276 413.373L564.75 407.871L577.343 404.496L579.591 396.107L545.308 405.295L543.06 413.684L555.652 410.309L554.178 415.811C543.817 419.024 535.582 423.11 534.931 425.539C534.28 427.968 541.436 427.93 551.537 425.665L546.811 443.301L555.915 440.861L560.641 423.225C570.984 420.016 579.208 415.934 579.859 413.504C580.508 411.081 573.371 411.109 563.28 413.377" fill="white"/>
<g filter="url(#filter5_b_201_857)">
<path fill-rule="evenodd" clip-rule="evenodd" d="M648.994 0C626.909 0 609.008 17.9007 609.008 39.985V214.899V223.391C609.008 223.391 580.316 204.309 542.152 191.572C513.65 182.059 477.803 177.936 455.833 177.935C297.159 177.935 167.911 307.185 167.911 465.858C167.911 624.53 297.159 753.781 455.833 753.781C614.508 753.781 738 624.53 738 465.858V39.985C738 17.9007 720.099 0 698.015 0H648.994ZM456.949 306.385C545.256 306.385 608.432 377.552 608.432 465.858C608.432 507.074 594.664 544.569 571.002 572.819C543.972 605.103 504.037 625.328 456.949 625.328C368.642 625.328 297.477 554.164 297.476 465.858C297.476 377.552 368.642 306.385 456.949 306.385Z" fill="#121212"/>
<path fill-rule="evenodd" clip-rule="evenodd" d="M648.994 0C626.909 0 609.008 17.9007 609.008 39.985V214.899V223.391C609.008 223.391 580.316 204.309 542.152 191.572C513.65 182.059 477.803 177.936 455.833 177.935C297.159 177.935 167.911 307.185 167.911 465.858C167.911 624.53 297.159 753.781 455.833 753.781C614.508 753.781 738 624.53 738 465.858V39.985C738 17.9007 720.099 0 698.015 0H648.994ZM456.949 306.385C545.256 306.385 608.432 377.552 608.432 465.858C608.432 507.074 594.664 544.569 571.002 572.819C543.972 605.103 504.037 625.328 456.949 625.328C368.642 625.328 297.477 554.164 297.476 465.858C297.476 377.552 368.642 306.385 456.949 306.385Z" fill="url(#paint14_linear_201_857)"/>
<path d="M608.869 223.6L609.258 223.858V223.391V214.899V39.985C609.258 18.0388 627.047 0.25 648.994 0.25H698.015C719.961 0.25 737.75 18.0388 737.75 39.985V465.858C737.75 624.398 614.363 753.531 455.833 753.531C297.297 753.531 168.161 624.392 168.161 465.858C168.161 307.323 297.297 178.185 455.833 178.185C477.782 178.186 513.601 182.307 542.072 191.809C561.138 198.172 577.839 206.121 589.774 212.479C595.741 215.658 600.516 218.439 603.799 220.425C605.44 221.418 606.709 222.212 607.566 222.758C607.995 223.03 608.321 223.241 608.54 223.384C608.649 223.455 608.732 223.509 608.787 223.545L608.849 223.586L608.864 223.596L608.868 223.599L608.869 223.599C608.869 223.6 608.869 223.6 609.008 223.391L608.869 223.6ZM608.682 465.858C608.682 377.431 545.411 306.135 456.949 306.135C368.504 306.135 297.226 377.414 297.226 465.858C297.227 554.302 368.504 625.578 456.949 625.578C504.113 625.578 544.118 605.319 571.194 572.979C594.895 544.682 608.682 507.13 608.682 465.858Z" stroke="url(#paint15_linear_201_857)" stroke-width="0.5"/>
</g>
<g opacity="0.75" filter="url(#filter6_f_201_857)">
<g filter="url(#filter7_b_201_857)">
<path d="M369.661 516.78C406.476 526.645 439.434 523.023 443.275 508.69L448.638 488.675L446.212 492.6C445.222 494.201 443.804 495.495 442.12 496.336L441.7 496.546C438.552 498.117 435.245 499.346 431.835 500.211C428.873 500.963 425.847 501.437 422.797 501.627L418.902 501.87C412.464 502.271 406.002 501.986 399.624 501.02L392.467 499.936C380.784 498.167 369.334 495.099 358.331 490.79L351.592 488.15C345.586 485.798 339.847 482.813 334.472 479.247L331.22 477.089C328.673 475.399 326.29 473.476 324.101 471.344C321.58 468.889 319.33 466.171 317.39 463.237L317.131 462.846C316.093 461.275 315.512 459.446 315.456 457.564L315.317 452.952L309.954 472.967C306.114 487.3 332.845 506.915 369.661 516.78Z" fill="url(#paint16_linear_201_857)" fill-opacity="0.1"/>
<path d="M369.661 516.78C406.476 526.645 439.434 523.023 443.275 508.69L448.638 488.675L446.212 492.6C445.222 494.201 443.804 495.495 442.12 496.336L441.7 496.546C438.552 498.117 435.245 499.346 431.835 500.211C428.873 500.963 425.847 501.437 422.797 501.627L418.902 501.87C412.464 502.271 406.002 501.986 399.624 501.02L392.467 499.936C380.784 498.167 369.334 495.099 358.331 490.79L351.592 488.15C345.586 485.798 339.847 482.813 334.472 479.247L331.22 477.089C328.673 475.399 326.29 473.476 324.101 471.344C321.58 468.889 319.33 466.171 317.39 463.237L317.131 462.846C316.093 461.275 315.512 459.446 315.456 457.564L315.317 452.952L309.954 472.967C306.114 487.3 332.845 506.915 369.661 516.78Z" fill="url(#paint17_linear_201_857)"/>
<path d="M443.056 508.631C442.118 512.133 439.396 515.004 435.225 517.187C431.053 519.371 425.453 520.854 418.809 521.584C405.522 523.044 388.107 521.488 369.719 516.561C351.332 511.634 335.472 504.275 324.695 496.366C319.306 492.412 315.198 488.327 312.677 484.351C310.156 480.374 309.235 476.527 310.173 473.025L315.137 454.499L315.229 457.571C315.287 459.495 315.88 461.365 316.942 462.971L317.201 463.362C319.15 466.31 321.41 469.04 323.942 471.506C326.142 473.648 328.536 475.58 331.094 477.277L334.347 479.435C339.735 483.011 345.488 486.003 351.509 488.361L358.249 491.001C369.267 495.316 380.733 498.388 392.433 500.16L399.59 501.244C405.983 502.212 412.462 502.498 418.916 502.096L422.811 501.853C425.876 501.662 428.915 501.186 431.891 500.431C435.317 499.561 438.639 498.327 441.801 496.748L442.221 496.539C443.943 495.679 445.392 494.356 446.404 492.719L448.02 490.105L443.056 508.631Z" stroke="url(#paint18_linear_201_857)" stroke-width="0.453101"/>
<path d="M443.056 508.631C442.118 512.133 439.396 515.004 435.225 517.187C431.053 519.371 425.453 520.854 418.809 521.584C405.522 523.044 388.107 521.488 369.719 516.561C351.332 511.634 335.472 504.275 324.695 496.366C319.306 492.412 315.198 488.327 312.677 484.351C310.156 480.374 309.235 476.527 310.173 473.025L315.137 454.499L315.229 457.571C315.287 459.495 315.88 461.365 316.942 462.971L317.201 463.362C319.15 466.31 321.41 469.04 323.942 471.506C326.142 473.648 328.536 475.58 331.094 477.277L334.347 479.435C339.735 483.011 345.488 486.003 351.509 488.361L358.249 491.001C369.267 495.316 380.733 498.388 392.433 500.16L399.59 501.244C405.983 502.212 412.462 502.498 418.916 502.096L422.811 501.853C425.876 501.662 428.915 501.186 431.891 500.431C435.317 499.561 438.639 498.327 441.801 496.748L442.221 496.539C443.943 495.679 445.392 494.356 446.404 492.719L448.02 490.105L443.056 508.631Z" stroke="url(#paint19_radial_201_857)" stroke-width="0.453101"/>
</g>
<g filter="url(#filter8_b_201_857)">
<ellipse cx="381.977" cy="470.813" rx="69.012" ry="26.8673" transform="rotate(15 381.977 470.813)" fill="url(#paint20_linear_201_857)" fill-opacity="0.8"/>
<path d="M448.419 488.616C447.481 492.118 444.759 494.989 440.587 497.172C436.416 499.356 430.816 500.839 424.171 501.569C410.884 503.029 393.47 501.473 375.082 496.546C356.694 491.619 340.835 484.26 330.058 476.351C324.669 472.397 320.561 468.312 318.04 464.336C315.519 460.359 314.597 456.512 315.536 453.01C316.474 449.509 319.196 446.638 323.367 444.455C327.539 442.271 333.139 440.788 339.783 440.058C353.07 438.598 370.485 440.153 388.872 445.08C407.26 450.007 423.119 457.367 433.896 465.275C439.285 469.23 443.394 473.314 445.915 477.291C448.435 481.267 449.357 485.115 448.419 488.616Z" stroke="url(#paint21_linear_201_857)" stroke-width="0.453101"/>
<path d="M448.419 488.616C447.481 492.118 444.759 494.989 440.587 497.172C436.416 499.356 430.816 500.839 424.171 501.569C410.884 503.029 393.47 501.473 375.082 496.546C356.694 491.619 340.835 484.26 330.058 476.351C324.669 472.397 320.561 468.312 318.04 464.336C315.519 460.359 314.597 456.512 315.536 453.01C316.474 449.509 319.196 446.638 323.367 444.455C327.539 442.271 333.139 440.788 339.783 440.058C353.07 438.598 370.485 440.153 388.872 445.08C407.26 450.007 423.119 457.367 433.896 465.275C439.285 469.23 443.394 473.314 445.915 477.291C448.435 481.267 449.357 485.115 448.419 488.616Z" stroke="url(#paint22_radial_201_857)" stroke-width="0.453101"/>
</g>
<g clip-path="url(#clip0_201_857)">
<path d="M406.704 461.706L405.403 461.762L374.354 470.08L374.27 470.395L393.341 478.662L406.704 461.706Z" fill="#BFCCF9"/>
<path d="M406.704 461.705L372.239 457.562L374.27 470.395L389.341 466.357L406.704 461.705Z" fill="white"/>
<path d="M371.542 471.126L371.195 471.054L360.135 474.017L359.747 474.286L390.614 479.401L371.542 471.126Z" fill="#C0CDFA"/>
<path d="M359.747 474.286L371.542 471.126L369.506 458.294L359.747 474.286Z" fill="white"/>
<path d="M374.27 470.395L393.34 478.662L389.34 466.357L374.27 470.395Z" fill="#7799F2"/>
<path d="M372.239 457.562L374.271 470.395L389.341 466.357L372.239 457.562Z" fill="#C0CDFA"/>
</g>
</g>
<g filter="url(#filter9_b_201_857)">
<path d="M369.909 456.976C406.725 466.841 439.683 463.219 443.524 448.886L448.887 428.871L446.46 432.796C445.47 434.398 444.053 435.692 442.368 436.533L441.949 436.742C438.801 438.313 435.494 439.542 432.084 440.407C429.122 441.159 426.096 441.633 423.046 441.823L419.15 442.066C412.713 442.467 406.25 442.182 399.873 441.216L392.716 440.133C381.033 438.363 369.583 435.295 358.58 430.986L351.841 428.346C345.834 425.994 340.096 423.009 334.721 419.443L331.468 417.285C328.922 415.595 326.539 413.672 324.349 411.54C321.829 409.086 319.579 406.368 317.639 403.433L317.38 403.042C316.341 401.471 315.761 399.642 315.705 397.76L315.566 393.148L310.203 413.163C306.362 427.496 333.094 447.112 369.909 456.976Z" fill="url(#paint23_linear_201_857)" fill-opacity="0.1"/>
<path d="M369.909 456.976C406.725 466.841 439.683 463.219 443.524 448.886L448.887 428.871L446.46 432.796C445.47 434.398 444.053 435.692 442.368 436.533L441.949 436.742C438.801 438.313 435.494 439.542 432.084 440.407C429.122 441.159 426.096 441.633 423.046 441.823L419.15 442.066C412.713 442.467 406.25 442.182 399.873 441.216L392.716 440.133C381.033 438.363 369.583 435.295 358.58 430.986L351.841 428.346C345.834 425.994 340.096 423.009 334.721 419.443L331.468 417.285C328.922 415.595 326.539 413.672 324.349 411.54C321.829 409.086 319.579 406.368 317.639 403.433L317.38 403.042C316.341 401.471 315.761 399.642 315.705 397.76L315.566 393.148L310.203 413.163C306.362 427.496 333.094 447.112 369.909 456.976Z" fill="url(#paint24_linear_201_857)"/>
<path d="M443.305 448.828C442.367 452.329 439.645 455.2 435.473 457.384C431.302 459.567 425.702 461.05 419.057 461.78C405.77 463.24 388.356 461.685 369.968 456.758C351.58 451.831 335.721 444.471 324.944 436.563C319.555 432.608 315.447 428.524 312.926 424.547C310.405 420.571 309.483 416.723 310.422 413.222L315.386 394.695L315.478 397.767C315.536 399.691 316.129 401.561 317.191 403.167L317.45 403.558C319.399 406.506 321.659 409.237 324.191 411.702C326.391 413.844 328.785 415.776 331.343 417.474L334.596 419.632C339.984 423.207 345.737 426.199 351.758 428.557L358.498 431.197C369.516 435.512 380.982 438.585 392.682 440.357L399.839 441.44C406.232 442.409 412.711 442.694 419.165 442.292L423.06 442.049C426.124 441.858 429.164 441.382 432.14 440.627C435.565 439.758 438.888 438.523 442.05 436.945L442.47 436.735C444.192 435.876 445.641 434.553 446.653 432.915L448.269 430.301L443.305 448.828Z" stroke="url(#paint25_linear_201_857)" stroke-width="0.453101"/>
<path d="M443.305 448.828C442.367 452.329 439.645 455.2 435.473 457.384C431.302 459.567 425.702 461.05 419.057 461.78C405.77 463.24 388.356 461.685 369.968 456.758C351.58 451.831 335.721 444.471 324.944 436.563C319.555 432.608 315.447 428.524 312.926 424.547C310.405 420.571 309.483 416.723 310.422 413.222L315.386 394.695L315.478 397.767C315.536 399.691 316.129 401.561 317.191 403.167L317.45 403.558C319.399 406.506 321.659 409.237 324.191 411.702C326.391 413.844 328.785 415.776 331.343 417.474L334.596 419.632C339.984 423.207 345.737 426.199 351.758 428.557L358.498 431.197C369.516 435.512 380.982 438.585 392.682 440.357L399.839 441.44C406.232 442.409 412.711 442.694 419.165 442.292L423.06 442.049C426.124 441.858 429.164 441.382 432.14 440.627C435.565 439.758 438.888 438.523 442.05 436.945L442.47 436.735C444.192 435.876 445.641 434.553 446.653 432.915L448.269 430.301L443.305 448.828Z" stroke="url(#paint26_radial_201_857)" stroke-width="0.453101"/>
</g>
<g filter="url(#filter10_b_201_857)">
<ellipse cx="382.226" cy="411.01" rx="69.012" ry="26.8673" transform="rotate(15 382.226 411.01)" fill="url(#paint27_linear_201_857)" fill-opacity="0.8"/>
<path d="M448.668 428.813C447.729 432.314 445.007 435.185 440.836 437.369C436.665 439.552 431.065 441.035 424.42 441.765C411.133 443.225 393.719 441.67 375.331 436.743C356.943 431.816 341.084 424.456 330.307 416.548C324.918 412.593 320.81 408.509 318.289 404.532C315.768 400.556 314.846 396.708 315.784 393.207C316.723 389.705 319.445 386.834 323.616 384.651C327.787 382.467 333.387 380.984 340.032 380.254C353.319 378.794 370.733 380.35 389.121 385.277C407.509 390.204 423.368 397.564 434.145 405.472C439.534 409.426 443.642 413.511 446.163 417.487C448.684 421.464 449.606 425.311 448.668 428.813Z" stroke="url(#paint28_linear_201_857)" stroke-width="0.453101"/>
<path d="M448.668 428.813C447.729 432.314 445.007 435.185 440.836 437.369C436.665 439.552 431.065 441.035 424.42 441.765C411.133 443.225 393.719 441.67 375.331 436.743C356.943 431.816 341.084 424.456 330.307 416.548C324.918 412.593 320.81 408.509 318.289 404.532C315.768 400.556 314.846 396.708 315.784 393.207C316.723 389.705 319.445 386.834 323.616 384.651C327.787 382.467 333.387 380.984 340.032 380.254C353.319 378.794 370.733 380.35 389.121 385.277C407.509 390.204 423.368 397.564 434.145 405.472C439.534 409.426 443.642 413.511 446.163 417.487C448.684 421.464 449.606 425.311 448.668 428.813Z" stroke="url(#paint29_radial_201_857)" stroke-width="0.453101"/>
</g>
<g clip-path="url(#clip1_201_857)">
<path d="M406.952 401.902L405.652 401.958L374.603 410.276L374.519 410.591L393.589 418.859L406.952 401.902Z" fill="#BFCCF9"/>
<path d="M406.952 401.902L372.488 397.758L374.519 410.591L389.589 406.553L406.952 401.902Z" fill="white"/>
<path d="M371.79 411.322L371.444 411.25L360.384 414.213L359.996 414.482L390.863 419.597L371.79 411.322Z" fill="#C0CDFA"/>
<path d="M359.996 414.482L371.791 411.322L369.755 398.49L359.996 414.482Z" fill="white"/>
<path d="M374.519 410.591L393.589 418.859L389.589 406.553L374.519 410.591Z" fill="#7799F2"/>
<path d="M372.488 397.759L374.519 410.591L389.589 406.554L372.488 397.759Z" fill="#C0CDFA"/>
</g>
<g opacity="0.75" filter="url(#filter11_f_201_857)">
<g filter="url(#filter12_b_201_857)">
<path d="M220.002 494.182C240.99 499.806 259.779 497.741 261.968 489.57L265.025 478.16L263.642 480.397C263.078 481.31 262.27 482.048 261.309 482.527L261.07 482.647C259.276 483.542 257.39 484.243 255.446 484.736C253.758 485.165 252.033 485.435 250.294 485.543L248.073 485.682C244.403 485.91 240.719 485.748 237.083 485.197L233.004 484.58C226.343 483.571 219.816 481.822 213.543 479.365L209.701 477.86C206.277 476.519 203.005 474.818 199.941 472.785L198.087 471.554C196.636 470.591 195.277 469.495 194.029 468.279C192.592 466.88 191.309 465.331 190.203 463.658L190.056 463.435C189.464 462.539 189.133 461.497 189.101 460.424L189.021 457.794L185.964 469.205C183.775 477.376 199.014 488.558 220.002 494.182Z" fill="url(#paint30_linear_201_857)" fill-opacity="0.1"/>
<path d="M220.002 494.182C240.99 499.806 259.779 497.741 261.968 489.57L265.025 478.16L263.642 480.397C263.078 481.31 262.27 482.048 261.309 482.527L261.07 482.647C259.276 483.542 257.39 484.243 255.446 484.736C253.758 485.165 252.033 485.435 250.294 485.543L248.073 485.682C244.403 485.91 240.719 485.748 237.083 485.197L233.004 484.58C226.343 483.571 219.816 481.822 213.543 479.365L209.701 477.86C206.277 476.519 203.005 474.818 199.941 472.785L198.087 471.554C196.636 470.591 195.277 469.495 194.029 468.279C192.592 466.88 191.309 465.331 190.203 463.658L190.056 463.435C189.464 462.539 189.133 461.497 189.101 460.424L189.021 457.794L185.964 469.205C183.775 477.376 199.014 488.558 220.002 494.182Z" fill="url(#paint31_linear_201_857)"/>
<path d="M261.843 489.536C261.308 491.532 259.757 493.169 257.379 494.414C255.001 495.659 251.808 496.504 248.02 496.92C240.445 497.753 230.518 496.866 220.035 494.057C209.553 491.248 200.512 487.053 194.368 482.544C191.296 480.29 188.954 477.961 187.517 475.694C186.079 473.428 185.554 471.234 186.089 469.238L188.919 458.677L188.971 460.428C189.005 461.525 189.343 462.591 189.948 463.506L190.096 463.729C191.207 465.41 192.495 466.966 193.939 468.372C195.193 469.593 196.558 470.694 198.016 471.662L199.87 472.892C202.942 474.931 206.221 476.636 209.654 477.981L213.496 479.485C219.778 481.946 226.314 483.697 232.984 484.707L237.064 485.325C240.709 485.877 244.402 486.04 248.081 485.811L250.302 485.672C252.049 485.563 253.782 485.292 255.478 484.861C257.431 484.366 259.325 483.662 261.128 482.762L261.367 482.643L261.309 482.527L261.367 482.643C262.349 482.153 263.175 481.399 263.752 480.465L264.673 478.975L261.843 489.536Z" stroke="url(#paint32_linear_201_857)" stroke-width="0.258305"/>
<path d="M261.843 489.536C261.308 491.532 259.757 493.169 257.379 494.414C255.001 495.659 251.808 496.504 248.02 496.92C240.445 497.753 230.518 496.866 220.035 494.057C209.553 491.248 200.512 487.053 194.368 482.544C191.296 480.29 188.954 477.961 187.517 475.694C186.079 473.428 185.554 471.234 186.089 469.238L188.919 458.677L188.971 460.428C189.005 461.525 189.343 462.591 189.948 463.506L190.096 463.729C191.207 465.41 192.495 466.966 193.939 468.372C195.193 469.593 196.558 470.694 198.016 471.662L199.87 472.892C202.942 474.931 206.221 476.636 209.654 477.981L213.496 479.485C219.778 481.946 226.314 483.697 232.984 484.707L237.064 485.325C240.709 485.877 244.402 486.04 248.081 485.811L250.302 485.672C252.049 485.563 253.782 485.292 255.478 484.861C257.431 484.366 259.325 483.662 261.128 482.762L261.367 482.643L261.309 482.527L261.367 482.643C262.349 482.153 263.175 481.399 263.752 480.465L264.673 478.975L261.843 489.536Z" stroke="url(#paint33_radial_201_857)" stroke-width="0.258305"/>
</g>
<g filter="url(#filter13_b_201_857)">
<ellipse cx="227.023" cy="467.977" rx="39.3425" ry="15.3165" transform="rotate(15 227.023 467.977)" fill="url(#paint34_linear_201_857)" fill-opacity="0.8"/>
<path d="M264.901 478.126C264.366 480.122 262.814 481.759 260.436 483.004C258.058 484.249 254.865 485.094 251.078 485.51C243.503 486.343 233.575 485.456 223.093 482.647C212.61 479.838 203.569 475.643 197.425 471.134C194.353 468.88 192.011 466.551 190.574 464.284C189.137 462.018 188.611 459.824 189.146 457.828C189.681 455.832 191.233 454.195 193.611 452.951C195.989 451.706 199.181 450.86 202.969 450.444C210.544 449.612 220.472 450.499 230.954 453.307C241.437 456.116 250.478 460.312 256.622 464.82C259.694 467.075 262.036 469.403 263.473 471.67C264.91 473.937 265.435 476.13 264.901 478.126Z" stroke="url(#paint35_linear_201_857)" stroke-width="0.258305"/>
<path d="M264.901 478.126C264.366 480.122 262.814 481.759 260.436 483.004C258.058 484.249 254.865 485.094 251.078 485.51C243.503 486.343 233.575 485.456 223.093 482.647C212.61 479.838 203.569 475.643 197.425 471.134C194.353 468.88 192.011 466.551 190.574 464.284C189.137 462.018 188.611 459.824 189.146 457.828C189.681 455.832 191.233 454.195 193.611 452.951C195.989 451.706 199.181 450.86 202.969 450.444C210.544 449.612 220.472 450.499 230.954 453.307C241.437 456.116 250.478 460.312 256.622 464.82C259.694 467.075 262.036 469.403 263.473 471.67C264.91 473.937 265.435 476.13 264.901 478.126Z" stroke="url(#paint36_radial_201_857)" stroke-width="0.258305"/>
</g>
<path d="M234.06 475.782L229.391 477.033C229.099 477.11 228.756 477.13 228.398 477.091C228.039 477.053 227.676 476.957 227.345 476.813L222.054 474.476C221.721 474.333 221.433 474.144 221.219 473.931C221.006 473.717 220.875 473.487 220.841 473.263L220.21 469.678C220.174 469.455 220.232 469.246 220.378 469.072C220.524 468.898 220.753 468.765 221.043 468.686L222.354 468.335L225.072 469.529L222.794 470.139L223.344 473.356L228.1 475.445L232.297 474.321L231.747 471.104L220.613 466.207C220.285 466.06 220.002 465.871 219.789 465.658C219.577 465.446 219.443 465.217 219.4 464.994L218.779 461.406C218.748 461.185 218.809 460.979 218.958 460.808C219.106 460.637 219.336 460.506 219.625 460.429L224.294 459.178C224.586 459.101 224.929 459.081 225.287 459.12C225.646 459.158 226.009 459.254 226.34 459.398L231.631 461.735C231.963 461.879 232.25 462.068 232.463 462.281C232.677 462.494 232.808 462.724 232.844 462.948L233.475 466.533C233.511 466.756 233.453 466.965 233.307 467.139C233.161 467.313 232.932 467.446 232.642 467.525L231.331 467.876L228.612 466.67L230.877 466.064L230.327 462.847L225.571 460.758L221.379 461.881L221.928 465.097L233.063 469.995C233.39 470.142 233.674 470.331 233.886 470.543C234.099 470.756 234.233 470.984 234.275 471.208L234.897 474.795C234.931 475.018 234.872 475.225 234.725 475.398C234.579 475.571 234.35 475.704 234.06 475.782Z" fill="white"/>
</g>
<g filter="url(#filter14_b_201_857)">
<path d="M204.537 454.452C234.657 462.522 261.621 459.559 264.763 447.833L269.151 431.458L267.166 434.669C266.356 435.979 265.196 437.038 263.818 437.726L263.475 437.897C260.899 439.183 258.194 440.188 255.404 440.896C252.98 441.511 250.505 441.899 248.01 442.054L244.823 442.253C239.555 442.581 234.268 442.348 229.051 441.558L223.196 440.671C213.637 439.224 204.27 436.714 195.268 433.188L189.754 431.028C184.84 429.104 180.145 426.662 175.748 423.744L173.087 421.979C171.004 420.596 169.054 419.023 167.263 417.279C165.201 415.271 163.36 413.047 161.773 410.646L161.561 410.326C160.711 409.041 160.237 407.545 160.19 406.005L160.077 402.232L155.689 418.607C152.547 430.333 174.417 446.381 204.537 454.452Z" fill="url(#paint37_linear_201_857)" fill-opacity="0.1"/>
<path d="M204.537 454.452C234.657 462.522 261.621 459.559 264.763 447.833L269.151 431.458L267.166 434.669C266.356 435.979 265.196 437.038 263.818 437.726L263.475 437.897C260.899 439.183 258.194 440.188 255.404 440.896C252.98 441.511 250.505 441.899 248.01 442.054L244.823 442.253C239.555 442.581 234.268 442.348 229.051 441.558L223.196 440.671C213.637 439.224 204.27 436.714 195.268 433.188L189.754 431.028C184.84 429.104 180.145 426.662 175.748 423.744L173.087 421.979C171.004 420.596 169.054 419.023 167.263 417.279C165.201 415.271 163.36 413.047 161.773 410.646L161.561 410.326C160.711 409.041 160.237 407.545 160.19 406.005L160.077 402.232L155.689 418.607C152.547 430.333 174.417 446.381 204.537 454.452Z" fill="url(#paint38_linear_201_857)"/>
<path d="M264.584 447.785C263.816 450.649 261.589 452.998 258.177 454.785C254.764 456.571 250.182 457.784 244.746 458.382C233.876 459.576 219.628 458.304 204.585 454.273C189.541 450.242 176.566 444.22 167.749 437.75C163.34 434.515 159.979 431.174 157.917 427.92C155.855 424.667 155.1 421.519 155.868 418.655L159.929 403.498L160.005 406.01C160.052 407.585 160.538 409.115 161.406 410.429L161.618 410.749C163.213 413.16 165.062 415.394 167.133 417.411C168.933 419.164 170.892 420.744 172.985 422.133L175.645 423.899C180.054 426.824 184.761 429.272 189.687 431.201L195.2 433.361C204.215 436.891 213.596 439.405 223.168 440.854L229.023 441.741C234.254 442.533 239.554 442.767 244.834 442.438L248.021 442.239C250.528 442.083 253.015 441.693 255.449 441.076C258.252 440.364 260.97 439.354 263.557 438.063L263.901 437.892C265.31 437.188 266.495 436.106 267.323 434.766L268.645 432.628L264.584 447.785Z" stroke="url(#paint39_linear_201_857)" stroke-width="0.370696"/>
<path d="M264.584 447.785C263.816 450.649 261.589 452.998 258.177 454.785C254.764 456.571 250.182 457.784 244.746 458.382C233.876 459.576 219.628 458.304 204.585 454.273C189.541 450.242 176.566 444.22 167.749 437.75C163.34 434.515 159.979 431.174 157.917 427.92C155.855 424.667 155.1 421.519 155.868 418.655L159.929 403.498L160.005 406.01C160.052 407.585 160.538 409.115 161.406 410.429L161.618 410.749C163.213 413.16 165.062 415.394 167.133 417.411C168.933 419.164 170.892 420.744 172.985 422.133L175.645 423.899C180.054 426.824 184.761 429.272 189.687 431.201L195.2 433.361C204.215 436.891 213.596 439.405 223.168 440.854L229.023 441.741C234.254 442.533 239.554 442.767 244.834 442.438L248.021 442.239C250.528 442.083 253.015 441.693 255.449 441.076C258.252 440.364 260.97 439.354 263.557 438.063L263.901 437.892C265.31 437.188 266.495 436.106 267.323 434.766L268.645 432.628L264.584 447.785Z" stroke="url(#paint40_radial_201_857)" stroke-width="0.370696"/>
</g>
<g filter="url(#filter15_b_201_857)">
<ellipse cx="214.614" cy="416.845" rx="56.4609" ry="21.9809" transform="rotate(15 214.614 416.845)" fill="url(#paint41_linear_201_857)" fill-opacity="0.8"/>
<path d="M268.972 431.41C268.204 434.275 265.977 436.624 262.564 438.41C259.152 440.196 254.57 441.41 249.134 442.007C238.263 443.202 224.016 441.929 208.973 437.898C193.929 433.867 180.954 427.846 172.137 421.376C167.728 418.141 164.367 414.799 162.305 411.546C160.242 408.292 159.488 405.145 160.256 402.28C161.023 399.415 163.25 397.066 166.663 395.28C170.076 393.494 174.657 392.28 180.093 391.683C190.964 390.488 205.211 391.761 220.255 395.792C235.298 399.823 248.273 405.844 257.09 412.314C261.499 415.55 264.86 418.891 266.923 422.145C268.985 425.398 269.739 428.546 268.972 431.41Z" stroke="url(#paint42_linear_201_857)" stroke-width="0.370696"/>
<path d="M268.972 431.41C268.204 434.275 265.977 436.624 262.564 438.41C259.152 440.196 254.57 441.41 249.134 442.007C238.263 443.202 224.016 441.929 208.973 437.898C193.929 433.867 180.954 427.846 172.137 421.376C167.728 418.141 164.367 414.799 162.305 411.546C160.242 408.292 159.488 405.145 160.256 402.28C161.023 399.415 163.25 397.066 166.663 395.28C170.076 393.494 174.657 392.28 180.093 391.683C190.964 390.488 205.211 391.761 220.255 395.792C235.298 399.823 248.273 405.844 257.09 412.314C261.499 415.55 264.86 418.891 266.923 422.145C268.985 425.398 269.739 428.546 268.972 431.41Z" stroke="url(#paint43_radial_201_857)" stroke-width="0.370696"/>
</g>
<path d="M224.712 428.046L218.012 429.841C217.592 429.951 217.101 429.98 216.586 429.925C216.071 429.869 215.551 429.731 215.075 429.524L207.482 426.171C207.004 425.965 206.591 425.695 206.284 425.389C205.978 425.082 205.79 424.751 205.741 424.431L204.835 419.286C204.784 418.965 204.867 418.666 205.077 418.416C205.287 418.167 205.615 417.976 206.032 417.862L207.912 417.358L211.813 419.071L208.544 419.947L209.333 424.563L216.159 427.562L222.182 425.948L221.393 421.332L205.414 414.304C204.944 414.093 204.537 413.822 204.232 413.517C203.927 413.212 203.735 412.884 203.673 412.563L202.781 407.415C202.737 407.097 202.826 406.802 203.038 406.556C203.251 406.31 203.581 406.123 203.996 406.012L210.696 404.216C211.116 404.106 211.607 404.078 212.122 404.133C212.637 404.189 213.158 404.326 213.633 404.533L221.226 407.886C221.702 408.093 222.114 408.364 222.42 408.67C222.727 408.976 222.915 409.306 222.967 409.627L223.873 414.772C223.924 415.092 223.841 415.392 223.631 415.641C223.422 415.891 223.093 416.082 222.676 416.196L220.796 416.699L216.893 414.969L220.144 414.099L219.354 409.483L212.529 406.484L206.513 408.096L207.302 412.712L223.281 419.74C223.751 419.951 224.158 420.222 224.463 420.527C224.768 420.832 224.96 421.16 225.021 421.481L225.913 426.629C225.962 426.949 225.877 427.247 225.667 427.495C225.456 427.743 225.128 427.933 224.712 428.046Z" fill="white"/>
<g filter="url(#filter16_b_201_857)">
<path fill-rule="evenodd" clip-rule="evenodd" d="M455.615 65C437.362 65 422.566 79.795 422.566 98.0476V242.614V249.633C422.566 249.633 398.852 233.862 367.31 223.334C343.753 215.472 314.126 212.064 295.968 212.063C164.824 212.063 58 318.888 58 450.031C58 581.173 164.824 688 295.968 688C427.112 688 529.178 581.173 529.178 450.031V98.0476C529.178 79.795 514.383 65 496.131 65H455.615ZM296.89 318.227C369.876 318.227 422.091 377.046 422.091 450.031C422.091 484.097 410.711 515.086 391.155 538.434C368.815 565.117 335.808 581.833 296.89 581.833C223.904 581.833 165.086 523.016 165.085 450.031C165.085 377.046 223.904 318.227 296.89 318.227Z" fill="#121212"/>
<path fill-rule="evenodd" clip-rule="evenodd" d="M455.615 65C437.362 65 422.566 79.795 422.566 98.0476V242.614V249.633C422.566 249.633 398.852 233.862 367.31 223.334C343.753 215.472 314.126 212.064 295.968 212.063C164.824 212.063 58 318.888 58 450.031C58 581.173 164.824 688 295.968 688C427.112 688 529.178 581.173 529.178 450.031V98.0476C529.178 79.795 514.383 65 496.131 65H455.615ZM296.89 318.227C369.876 318.227 422.091 377.046 422.091 450.031C422.091 484.097 410.711 515.086 391.155 538.434C368.815 565.117 335.808 581.833 296.89 581.833C223.904 581.833 165.086 523.016 165.085 450.031C165.085 377.046 223.904 318.227 296.89 318.227Z" fill="url(#paint44_linear_201_857)"/>
<path d="M422.428 249.841L422.816 250.099V249.633V242.614V98.0476C422.816 79.933 437.5 65.25 455.615 65.25H496.131C514.245 65.25 528.928 79.933 528.928 98.0476V450.031C528.928 581.042 426.968 687.75 295.968 687.75C164.962 687.75 58.25 581.035 58.25 450.031C58.25 319.026 164.962 212.313 295.968 212.313C314.105 212.314 343.705 215.719 367.231 223.571C382.985 228.829 396.786 235.398 406.649 240.652C411.58 243.279 415.526 245.577 418.239 247.218C419.595 248.039 420.643 248.695 421.352 249.146C421.706 249.371 421.975 249.545 422.156 249.663C422.246 249.722 422.315 249.766 422.36 249.796L422.411 249.83L422.424 249.838L422.427 249.84L422.428 249.841C422.428 249.841 422.428 249.841 422.566 249.633L422.428 249.841ZM422.341 450.031C422.341 376.925 370.031 317.977 296.89 317.977C223.766 317.977 164.835 376.908 164.835 450.031C164.836 523.154 223.766 582.083 296.89 582.083C335.884 582.083 368.96 565.333 391.347 538.595C410.942 515.199 422.341 484.153 422.341 450.031Z" stroke="url(#paint45_linear_201_857)" stroke-width="0.5"/>
</g>
<g filter="url(#filter17_b_201_857)">
<path fill-rule="evenodd" clip-rule="evenodd" d="M280.672 126C265.951 126 254.019 137.932 254.019 152.653V269.243V274.904C254.019 274.904 234.894 262.185 209.455 253.695C190.457 247.354 166.562 244.606 151.918 244.605C46.1521 244.605 -40 330.758 -40 436.523C-40 542.288 46.1521 628.442 151.918 628.442C257.685 628.442 340 542.288 340 436.523V152.653C340 137.932 328.068 126 313.347 126H280.672ZM152.662 330.225C211.524 330.225 253.635 377.662 253.635 436.523C253.635 463.997 244.457 488.989 228.686 507.819C210.668 529.339 184.049 542.82 152.662 542.82C93.7997 542.82 46.3637 495.385 46.3631 436.523C46.3631 377.662 93.7997 330.224 152.662 330.225Z" fill="url(#paint46_linear_201_857)"/>
<path d="M253.88 275.113L254.269 275.371V274.904V269.243V152.653C254.269 138.07 266.089 126.25 280.672 126.25H313.347C327.93 126.25 339.75 138.07 339.75 152.653V436.523C339.75 542.157 257.54 628.192 151.918 628.192C46.2901 628.192 -39.75 542.15 -39.75 436.523C-39.75 330.896 46.2901 244.855 151.918 244.855C166.541 244.856 190.408 247.601 209.376 253.932C222.078 258.171 233.206 263.467 241.159 267.704C245.135 269.822 248.316 271.675 250.504 272.998C251.597 273.66 252.442 274.189 253.013 274.552C253.299 274.734 253.516 274.874 253.661 274.969L253.74 275.02C253.775 275.043 253.804 275.062 253.826 275.076L253.867 275.104L253.877 275.11L253.879 275.112L253.88 275.112C253.88 275.112 253.88 275.113 254.019 274.904L253.88 275.113ZM253.885 436.523C253.885 377.541 211.679 329.975 152.662 329.975C93.6616 329.974 46.1131 377.524 46.1131 436.523C46.1137 495.523 93.6617 543.07 152.662 543.07C184.125 543.07 210.814 529.555 228.877 507.98C244.688 489.102 253.885 464.053 253.885 436.523Z" stroke="url(#paint47_linear_201_857)" stroke-width="0.5"/>
</g>
<g opacity="0.75" filter="url(#filter18_f_201_857)">
<g filter="url(#filter19_b_201_857)">
<path d="M80.4369 467.596C102.188 455.039 115.857 437.994 110.968 429.526L104.141 417.701L104.839 420.661C105.124 421.868 105.067 423.131 104.673 424.308L104.575 424.601C103.841 426.8 102.872 428.914 101.687 430.906C100.657 432.636 99.4679 434.267 98.1353 435.777L96.4332 437.705C93.6204 440.892 90.4766 443.77 87.0549 446.292L83.2153 449.121C76.9469 453.741 70.1825 457.646 63.0477 460.765L58.6775 462.675C54.7828 464.378 50.7181 465.661 46.552 466.504L44.031 467.014C42.0572 467.413 40.0505 467.627 38.0369 467.654C35.7189 467.685 33.4043 467.467 31.1329 467.004L30.8301 466.942C29.6142 466.694 28.4916 466.112 27.5882 465.261L25.3745 463.177L32.2017 475.002C37.0906 483.47 58.6862 480.154 80.4369 467.596Z" fill="url(#paint48_linear_201_857)" fill-opacity="0.1"/>
<path d="M80.4369 467.596C102.188 455.039 115.857 437.994 110.968 429.526L104.141 417.701L104.839 420.661C105.124 421.868 105.067 423.131 104.673 424.308L104.575 424.601C103.841 426.8 102.872 428.914 101.687 430.906C100.657 432.636 99.4679 434.267 98.1353 435.777L96.4332 437.705C93.6204 440.892 90.4766 443.77 87.0549 446.292L83.2153 449.121C76.9469 453.741 70.1825 457.646 63.0477 460.765L58.6775 462.675C54.7828 464.378 50.7181 465.661 46.552 466.504L44.031 467.014C42.0572 467.413 40.0505 467.627 38.0369 467.654C35.7189 467.685 33.4043 467.467 31.1329 467.004L30.8301 466.942C29.6142 466.694 28.4916 466.112 27.5882 465.261L25.3745 463.177L32.2017 475.002C37.0906 483.47 58.6862 480.154 80.4369 467.596Z" fill="url(#paint49_linear_201_857)"/>
<path d="M110.839 429.601C112.033 431.669 112.102 434.276 111.176 437.237C110.25 440.198 108.331 443.498 105.576 446.934C100.065 453.806 91.2257 461.195 80.3623 467.467C69.4988 473.739 58.6798 477.7 49.9735 479.036C45.6198 479.705 41.8024 479.716 38.7749 479.037C35.7475 478.359 33.5253 476.996 32.3309 474.927L26.0116 463.982L27.4858 465.37C28.4094 466.24 29.5572 466.835 30.8002 467.088L31.103 467.15C33.385 467.615 35.7102 467.834 38.0389 467.803C40.0618 467.776 42.0777 467.561 44.0606 467.16L46.5816 466.65C50.7581 465.806 54.8329 464.519 58.7373 462.812L63.1075 460.902C70.2525 457.779 77.0265 453.868 83.3039 449.241L87.1435 446.412C90.5737 443.884 93.7253 440.998 96.5451 437.804L98.2472 435.875C99.586 434.359 100.78 432.721 101.815 430.982C103.006 428.981 103.979 426.858 104.717 424.649L104.815 424.356C105.217 423.152 105.276 421.861 104.984 420.626L104.519 418.656L110.839 429.601Z" stroke="url(#paint50_linear_201_857)" stroke-width="0.298572"/>
<path d="M110.839 429.601C112.033 431.669 112.102 434.276 111.176 437.237C110.25 440.198 108.331 443.498 105.576 446.934C100.065 453.806 91.2257 461.195 80.3623 467.467C69.4988 473.739 58.6798 477.7 49.9735 479.036C45.6198 479.705 41.8024 479.716 38.7749 479.037C35.7475 478.359 33.5253 476.996 32.3309 474.927L26.0116 463.982L27.4858 465.37C28.4094 466.24 29.5572 466.835 30.8002 467.088L31.103 467.15C33.385 467.615 35.7102 467.834 38.0389 467.803C40.0618 467.776 42.0777 467.561 44.0606 467.16L46.5816 466.65C50.7581 465.806 54.8329 464.519 58.7373 462.812L63.1075 460.902C70.2525 457.779 77.0265 453.868 83.3039 449.241L87.1435 446.412C90.5737 443.884 93.7253 440.998 96.5451 437.804L98.2472 435.875C99.586 434.359 100.78 432.721 101.815 430.982C103.006 428.981 103.979 426.858 104.717 424.649L104.815 424.356C105.217 423.152 105.276 421.861 104.984 420.626L104.519 418.656L110.839 429.601Z" stroke="url(#paint51_radial_201_857)" stroke-width="0.298572"/>
</g>
<g filter="url(#filter20_b_201_857)">
<ellipse cx="64.7576" cy="440.439" rx="45.4757" ry="17.7043" transform="rotate(-30 64.7576 440.439)" fill="url(#paint52_linear_201_857)" fill-opacity="0.8"/>
<path d="M104.011 417.776C105.206 419.844 105.275 422.45 104.349 425.411C103.423 428.372 101.504 431.673 98.7486 435.109C93.2379 441.981 84.3986 449.37 73.5351 455.642C62.6716 461.914 51.8526 465.874 43.1463 467.211C38.7926 467.879 34.9752 467.891 31.9477 467.212C28.9203 466.534 26.6981 465.171 25.5038 463.102C24.3095 461.033 24.2399 458.427 25.1662 455.466C26.0926 452.505 28.0109 449.205 30.7666 445.769C36.2773 438.897 45.1166 431.508 55.9801 425.236C66.8436 418.964 77.6626 415.003 86.3689 413.667C90.7226 412.998 94.54 412.987 97.5675 413.665C100.595 414.344 102.817 415.707 104.011 417.776Z" stroke="url(#paint53_linear_201_857)" stroke-width="0.298572"/>
<path d="M104.011 417.776C105.206 419.844 105.275 422.45 104.349 425.411C103.423 428.372 101.504 431.673 98.7486 435.109C93.2379 441.981 84.3986 449.37 73.5351 455.642C62.6716 461.914 51.8526 465.874 43.1463 467.211C38.7926 467.879 34.9752 467.891 31.9477 467.212C28.9203 466.534 26.6981 465.171 25.5038 463.102C24.3095 461.033 24.2399 458.427 25.1662 455.466C26.0926 452.505 28.0109 449.205 30.7666 445.769C36.2773 438.897 45.1166 431.508 55.9801 425.236C66.8436 418.964 77.6626 415.003 86.3689 413.667C90.7226 412.998 94.54 412.987 97.5675 413.665C100.595 414.344 102.817 415.707 104.011 417.776Z" stroke="url(#paint54_radial_201_857)" stroke-width="0.298572"/>
</g>
<g clip-path="url(#clip2_201_857)">
<path d="M54.2391 440.321L51.2879 445.461L54.8467 448.03L53.1094 451.039L47.46 446.979L52.172 438.819L54.2391 440.321ZM57.2066 435.182L55.4774 438.177L53.4093 436.673L55.1385 433.678L58.9439 432.173L61.0263 433.678L57.2066 435.182ZM65.2398 433.677L69.0452 432.173L71.1276 433.677L67.3079 435.182L65.2398 433.677Z" fill="white"/>
<path d="M54.0087 444.395L55.746 441.387L57.8141 442.891L56.0848 445.886L54.0087 444.395ZM56.3302 449.108L58.3982 450.612L62.218 449.108L60.4887 452.102L56.669 453.607L54.601 452.103L56.3302 449.108ZM75.3392 433.677L79.1446 432.172L81.227 433.677L79.4978 436.672L75.678 438.176L77.4073 435.181L75.3392 433.677ZM71.4723 445.46L74.456 440.321L78.2613 438.816L73.5494 446.977L63.2115 451.037L64.9488 448.028L71.4723 445.46Z" fill="white"/>
<path d="M69.9816 444.395L66.1844 445.885L67.9136 442.891L71.7189 441.386L69.9816 444.395Z" fill="white"/>
<path d="M74.6863 436.247L72.9652 439.255L66.4245 441.825L63.4499 446.977L59.6526 448.468L57.5765 446.977L60.5512 441.825L56.978 439.256L58.7153 436.247L62.5332 434.743L66.0686 437.325L72.6165 434.742L74.6989 436.247L74.6863 436.247ZM61.68 431.109L72.0116 427.035L77.6529 431.109L73.8475 432.613L70.2815 430.031L63.7481 432.614L61.68 431.109Z" fill="white"/>
</g>
</g>
<g filter="url(#filter21_b_201_857)">
<path d="M90.4369 447.596C112.188 435.039 125.857 417.994 120.968 409.526L114.141 397.701L114.839 400.661C115.124 401.868 115.067 403.131 114.673 404.308L114.575 404.601C113.841 406.8 112.872 408.914 111.687 410.906C110.657 412.636 109.468 414.267 108.135 415.777L106.433 417.705C103.62 420.892 100.477 423.77 97.0549 426.292L93.2153 429.121C86.9469 433.741 80.1825 437.646 73.0477 440.765L68.6775 442.675C64.7828 444.378 60.7181 445.661 56.552 446.504L54.031 447.014C52.0572 447.413 50.0505 447.627 48.0369 447.654C45.7189 447.685 43.4043 447.467 41.1329 447.004L40.8301 446.942C39.6142 446.694 38.4916 446.112 37.5882 445.261L35.3745 443.177L42.2017 455.002C47.0906 463.47 68.6862 460.154 90.4369 447.596Z" fill="url(#paint55_linear_201_857)" fill-opacity="0.1"/>
<path d="M90.4369 447.596C112.188 435.039 125.857 417.994 120.968 409.526L114.141 397.701L114.839 400.661C115.124 401.868 115.067 403.131 114.673 404.308L114.575 404.601C113.841 406.8 112.872 408.914 111.687 410.906C110.657 412.636 109.468 414.267 108.135 415.777L106.433 417.705C103.62 420.892 100.477 423.77 97.0549 426.292L93.2153 429.121C86.9469 433.741 80.1825 437.646 73.0477 440.765L68.6775 442.675C64.7828 444.378 60.7181 445.661 56.552 446.504L54.031 447.014C52.0572 447.413 50.0505 447.627 48.0369 447.654C45.7189 447.685 43.4043 447.467 41.1329 447.004L40.8301 446.942C39.6142 446.694 38.4916 446.112 37.5882 445.261L35.3745 443.177L42.2017 455.002C47.0906 463.47 68.6862 460.154 90.4369 447.596Z" fill="url(#paint56_linear_201_857)"/>
<path d="M120.839 409.601C122.033 411.669 122.102 414.276 121.176 417.237C120.25 420.198 118.331 423.498 115.576 426.934C110.065 433.806 101.226 441.195 90.3623 447.467C79.4988 453.739 68.6798 457.7 59.9735 459.036C55.6198 459.705 51.8024 459.716 48.7749 459.037C45.7475 458.359 43.5253 456.996 42.3309 454.927L36.0116 443.982L37.4858 445.37C38.4094 446.24 39.5572 446.835 40.8002 447.088L41.103 447.15C43.385 447.615 45.7102 447.834 48.0389 447.803C50.0618 447.776 52.0777 447.561 54.0606 447.16L56.5816 446.65C60.7581 445.806 64.8329 444.519 68.7373 442.812L73.1075 440.902C80.2525 437.779 87.0265 433.868 93.3039 429.241L97.1435 426.412C100.574 423.884 103.725 420.998 106.545 417.804L108.247 415.875C109.586 414.359 110.78 412.721 111.815 410.982C113.006 408.981 113.979 406.858 114.717 404.649L114.815 404.356C115.217 403.152 115.276 401.861 114.984 400.626L114.519 398.656L120.839 409.601Z" stroke="url(#paint57_linear_201_857)" stroke-width="0.298572"/>
<path d="M120.839 409.601C122.033 411.669 122.102 414.276 121.176 417.237C120.25 420.198 118.331 423.498 115.576 426.934C110.065 433.806 101.226 441.195 90.3623 447.467C79.4988 453.739 68.6798 457.7 59.9735 459.036C55.6198 459.705 51.8024 459.716 48.7749 459.037C45.7475 458.359 43.5253 456.996 42.3309 454.927L36.0116 443.982L37.4858 445.37C38.4094 446.24 39.5572 446.835 40.8002 447.088L41.103 447.15C43.385 447.615 45.7102 447.834 48.0389 447.803C50.0618 447.776 52.0777 447.561 54.0606 447.16L56.5816 446.65C60.7581 445.806 64.8329 444.519 68.7373 442.812L73.1075 440.902C80.2525 437.779 87.0265 433.868 93.3039 429.241L97.1435 426.412C100.574 423.884 103.725 420.998 106.545 417.804L108.247 415.875C109.586 414.359 110.78 412.721 111.815 410.982C113.006 408.981 113.979 406.858 114.717 404.649L114.815 404.356C115.217 403.152 115.276 401.861 114.984 400.626L114.519 398.656L120.839 409.601Z" stroke="url(#paint58_radial_201_857)" stroke-width="0.298572"/>
</g>
<g filter="url(#filter22_b_201_857)">
<ellipse cx="74.7576" cy="420.439" rx="45.4757" ry="17.7043" transform="rotate(-30 74.7576 420.439)" fill="url(#paint59_linear_201_857)" fill-opacity="0.8"/>
<path d="M114.011 397.776C115.206 399.844 115.275 402.45 114.349 405.411C113.423 408.372 111.504 411.673 108.749 415.109C103.238 421.981 94.3986 429.37 83.5351 435.642C72.6716 441.914 61.8526 445.874 53.1463 447.211C48.7926 447.879 44.9752 447.891 41.9477 447.212C38.9203 446.534 36.6981 445.171 35.5038 443.102C34.3095 441.033 34.2399 438.427 35.1662 435.466C36.0926 432.505 38.0109 429.205 40.7666 425.769C46.2773 418.897 55.1166 411.508 65.9801 405.236C76.8436 398.964 87.6626 395.003 96.3689 393.667C100.723 392.998 104.54 392.987 107.568 393.665C110.595 394.344 112.817 395.707 114.011 397.776Z" stroke="url(#paint60_linear_201_857)" stroke-width="0.298572"/>
<path d="M114.011 397.776C115.206 399.844 115.275 402.45 114.349 405.411C113.423 408.372 111.504 411.673 108.749 415.109C103.238 421.981 94.3986 429.37 83.5351 435.642C72.6716 441.914 61.8526 445.874 53.1463 447.211C48.7926 447.879 44.9752 447.891 41.9477 447.212C38.9203 446.534 36.6981 445.171 35.5038 443.102C34.3095 441.033 34.2399 438.427 35.1662 435.466C36.0926 432.505 38.0109 429.205 40.7666 425.769C46.2773 418.897 55.1166 411.508 65.9801 405.236C76.8436 398.964 87.6626 395.003 96.3689 393.667C100.723 392.998 104.54 392.987 107.568 393.665C110.595 394.344 112.817 395.707 114.011 397.776Z" stroke="url(#paint61_radial_201_857)" stroke-width="0.298572"/>
</g>
<g clip-path="url(#clip3_201_857)">
<path d="M64.2391 420.321L61.2879 425.461L64.8467 428.03L63.1094 431.039L57.46 426.979L62.172 418.819L64.2391 420.321ZM67.2066 415.182L65.4774 418.177L63.4093 416.673L65.1385 413.678L68.9439 412.173L71.0263 413.678L67.2066 415.182ZM75.2398 413.677L79.0452 412.173L81.1276 413.677L77.3079 415.182L75.2398 413.677Z" fill="white"/>
<path d="M64.0087 424.395L65.746 421.387L67.8141 422.891L66.0848 425.886L64.0087 424.395ZM66.3302 429.108L68.3982 430.612L72.218 429.108L70.4887 432.102L66.669 433.607L64.601 432.103L66.3302 429.108ZM85.3392 413.677L89.1446 412.172L91.227 413.677L89.4978 416.672L85.678 418.176L87.4073 415.181L85.3392 413.677ZM81.4723 425.46L84.456 420.321L88.2613 418.816L83.5494 426.977L73.2115 431.037L74.9488 428.028L81.4723 425.46Z" fill="white"/>
<path d="M79.9816 424.395L76.1844 425.885L77.9136 422.891L81.7189 421.386L79.9816 424.395Z" fill="white"/>
<path d="M84.6863 416.247L82.9652 419.255L76.4245 421.825L73.4499 426.977L69.6526 428.468L67.5765 426.977L70.5512 421.825L66.978 419.256L68.7153 416.247L72.5332 414.743L76.0686 417.325L82.6165 414.742L84.6989 416.247L84.6863 416.247ZM71.68 411.109L82.0116 407.035L87.6529 411.109L83.8475 412.613L80.2815 410.031L73.7481 412.614L71.68 411.109Z" fill="white"/>
</g>
<g filter="url(#filter23_b_201_857)">
<path fill-rule="evenodd" clip-rule="evenodd" d="M135.035 186C123.879 186 114.835 195.043 114.835 206.2V294.563V298.854C114.835 298.854 100.34 289.214 81.0605 282.779C66.6619 277.973 48.5525 275.891 37.4539 275.89C-42.7058 275.89 -108 341.185 -108 421.344C-108 501.503 -42.7058 566.798 37.4539 566.798C117.614 566.798 180 501.503 180 421.344V206.2C180 195.043 170.957 186 159.8 186H135.035ZM38.0175 340.781C82.629 340.781 114.545 376.733 114.545 421.344C114.545 442.166 107.589 461.107 95.6354 475.379C81.9803 491.688 61.8058 501.906 38.0175 501.906C-6.5939 501.906 -42.5454 465.955 -42.5459 421.344C-42.5459 376.733 -6.5939 340.781 38.0175 340.781Z" fill="url(#paint62_linear_201_857)"/>
<path d="M114.697 299.062L115.085 299.32V298.854V294.563V206.2C115.085 195.181 124.017 186.25 135.035 186.25H159.8C170.819 186.25 179.75 195.181 179.75 206.2V421.344C179.75 501.371 117.469 566.548 37.4539 566.548C-42.5677 566.548 -107.75 501.364 -107.75 421.344C-107.75 341.323 -42.5677 276.14 37.4539 276.14C48.5316 276.141 66.6133 278.221 80.9813 283.016C90.6044 286.228 99.035 290.24 105.06 293.45C108.073 295.055 110.483 296.459 112.14 297.461C112.968 297.962 113.608 298.363 114.041 298.638C114.257 298.776 114.421 298.882 114.531 298.953C114.586 298.989 114.628 299.017 114.656 299.035L114.687 299.055L114.694 299.06L114.696 299.062L114.697 299.062C114.697 299.062 114.697 299.062 114.835 298.854L114.697 299.062ZM114.795 421.344C114.795 376.612 82.7836 340.531 38.0175 340.531C-6.73197 340.531 -42.7959 376.595 -42.7959 421.344C-42.7954 466.093 -6.73197 502.156 38.0175 502.156C61.8814 502.156 82.1255 491.904 95.8271 475.539C107.82 461.221 114.795 442.222 114.795 421.344Z" stroke="url(#paint63_linear_201_857)" stroke-width="0.5"/>
</g>
<defs>
<filter id="filter0_f_201_857" x="494.757" y="428.757" width="142.062" height="142.061" filterUnits="userSpaceOnUse" color-interpolation-filters="sRGB">
<feFlood flood-opacity="0" result="BackgroundImageFix"/>
<feBlend mode="normal" in="SourceGraphic" in2="BackgroundImageFix" result="shape"/>
<feGaussianBlur stdDeviation="10.1666" result="effect1_foregroundBlur_201_857"/>
</filter>
<filter id="filter1_b_201_857" x="510.75" y="444.749" width="113.118" height="113.118" filterUnits="userSpaceOnUse" color-interpolation-filters="sRGB">
<feFlood flood-opacity="0" result="BackgroundImageFix"/>
<feGaussianBlur in="BackgroundImageFix" stdDeviation="3.69097"/>
<feComposite in2="SourceAlpha" operator="in" result="effect1_backgroundBlur_201_857"/>
<feBlend mode="normal" in="SourceGraphic" in2="effect1_backgroundBlur_201_857" result="shape"/>
</filter>
<filter id="filter2_b_201_857" x="509.376" y="443.376" width="100.382" height="100.382" filterUnits="userSpaceOnUse" color-interpolation-filters="sRGB">
<feFlood flood-opacity="0" result="BackgroundImageFix"/>
<feGaussianBlur in="BackgroundImageFix" stdDeviation="2.85706"/>
<feComposite in2="SourceAlpha" operator="in" result="effect1_backgroundBlur_201_857"/>
<feBlend mode="normal" in="SourceGraphic" in2="effect1_backgroundBlur_201_857" result="shape"/>
</filter>
<filter id="filter3_b_201_857" x="490.699" y="354.439" width="156.169" height="156.169" filterUnits="userSpaceOnUse" color-interpolation-filters="sRGB">
<feFlood flood-opacity="0" result="BackgroundImageFix"/>
<feGaussianBlur in="BackgroundImageFix" stdDeviation="6.17184"/>
<feComposite in2="SourceAlpha" operator="in" result="effect1_backgroundBlur_201_857"/>
<feBlend mode="normal" in="SourceGraphic" in2="effect1_backgroundBlur_201_857" result="shape"/>
</filter>
<filter id="filter4_b_201_857" x="489.422" y="353.162" width="138.025" height="138.025" filterUnits="userSpaceOnUse" color-interpolation-filters="sRGB">
<feFlood flood-opacity="0" result="BackgroundImageFix"/>
<feGaussianBlur in="BackgroundImageFix" stdDeviation="4.77743"/>
<feComposite in2="SourceAlpha" operator="in" result="effect1_backgroundBlur_201_857"/>
<feBlend mode="normal" in="SourceGraphic" in2="effect1_backgroundBlur_201_857" result="shape"/>
</filter>
<filter id="filter5_b_201_857" x="153.911" y="-14" width="598.089" height="781.781" filterUnits="userSpaceOnUse" color-interpolation-filters="sRGB">
<feFlood flood-opacity="0" result="BackgroundImageFix"/>
<feGaussianBlur in="BackgroundImageFix" stdDeviation="7"/>
<feComposite in2="SourceAlpha" operator="in" result="effect1_backgroundBlur_201_857"/>
<feBlend mode="normal" in="SourceGraphic" in2="effect1_backgroundBlur_201_857" result="shape"/>
</filter>
<filter id="filter6_f_201_857" x="275.587" y="405.306" width="207.418" height="151.03" filterUnits="userSpaceOnUse" color-interpolation-filters="sRGB">
<feFlood flood-opacity="0" result="BackgroundImageFix"/>
<feBlend mode="normal" in="SourceGraphic" in2="BackgroundImageFix" result="shape"/>
<feGaussianBlur stdDeviation="17" result="effect1_foregroundBlur_201_857"/>
</filter>
<filter id="filter7_b_201_857" x="298.712" y="442.077" width="160.8" height="91.133" filterUnits="userSpaceOnUse" color-interpolation-filters="sRGB">
<feFlood flood-opacity="0" result="BackgroundImageFix"/>
<feGaussianBlur in="BackgroundImageFix" stdDeviation="5.43721"/>
<feComposite in2="SourceAlpha" operator="in" result="effect1_backgroundBlur_201_857"/>
<feBlend mode="normal" in="SourceGraphic" in2="effect1_backgroundBlur_201_857" result="shape"/>
</filter>
<filter id="filter8_b_201_857" x="306.532" y="430.888" width="150.89" height="79.8499" filterUnits="userSpaceOnUse" color-interpolation-filters="sRGB">
<feFlood flood-opacity="0" result="BackgroundImageFix"/>
<feGaussianBlur in="BackgroundImageFix" stdDeviation="4.20877"/>
<feComposite in2="SourceAlpha" operator="in" result="effect1_backgroundBlur_201_857"/>
<feBlend mode="normal" in="SourceGraphic" in2="effect1_backgroundBlur_201_857" result="shape"/>
</filter>
<filter id="filter9_b_201_857" x="298.961" y="382.274" width="160.8" height="91.133" filterUnits="userSpaceOnUse" color-interpolation-filters="sRGB">
<feFlood flood-opacity="0" result="BackgroundImageFix"/>
<feGaussianBlur in="BackgroundImageFix" stdDeviation="5.43721"/>
<feComposite in2="SourceAlpha" operator="in" result="effect1_backgroundBlur_201_857"/>
<feBlend mode="normal" in="SourceGraphic" in2="effect1_backgroundBlur_201_857" result="shape"/>
</filter>
<filter id="filter10_b_201_857" x="306.781" y="371.085" width="150.89" height="79.8499" filterUnits="userSpaceOnUse" color-interpolation-filters="sRGB">
<feFlood flood-opacity="0" result="BackgroundImageFix"/>
<feGaussianBlur in="BackgroundImageFix" stdDeviation="4.20877"/>
<feComposite in2="SourceAlpha" operator="in" result="effect1_backgroundBlur_201_857"/>
<feBlend mode="normal" in="SourceGraphic" in2="effect1_backgroundBlur_201_857" result="shape"/>
</filter>
<filter id="filter11_f_201_857" x="162.063" y="426.324" width="126.863" height="94.7168" filterUnits="userSpaceOnUse" color-interpolation-filters="sRGB">
<feFlood flood-opacity="0" result="BackgroundImageFix"/>
<feBlend mode="normal" in="SourceGraphic" in2="BackgroundImageFix" result="shape"/>
<feGaussianBlur stdDeviation="11.8458" result="effect1_foregroundBlur_201_857"/>
</filter>
<filter id="filter12_b_201_857" x="179.556" y="451.595" width="91.6691" height="51.9533" filterUnits="userSpaceOnUse" color-interpolation-filters="sRGB">
<feFlood flood-opacity="0" result="BackgroundImageFix"/>
<feGaussianBlur in="BackgroundImageFix" stdDeviation="3.09965"/>
<feComposite in2="SourceAlpha" operator="in" result="effect1_backgroundBlur_201_857"/>
<feBlend mode="normal" in="SourceGraphic" in2="effect1_backgroundBlur_201_857" result="shape"/>
</filter>
<filter id="filter13_b_201_857" x="184.014" y="445.217" width="86.0197" height="45.5211" filterUnits="userSpaceOnUse" color-interpolation-filters="sRGB">
<feFlood flood-opacity="0" result="BackgroundImageFix"/>
<feGaussianBlur in="BackgroundImageFix" stdDeviation="2.39935"/>
<feComposite in2="SourceAlpha" operator="in" result="effect1_backgroundBlur_201_857"/>
<feBlend mode="normal" in="SourceGraphic" in2="effect1_backgroundBlur_201_857" result="shape"/>
</filter>
<filter id="filter14_b_201_857" x="146.492" y="393.335" width="131.555" height="74.5587" filterUnits="userSpaceOnUse" color-interpolation-filters="sRGB">
<feFlood flood-opacity="0" result="BackgroundImageFix"/>
<feGaussianBlur in="BackgroundImageFix" stdDeviation="4.44835"/>
<feComposite in2="SourceAlpha" operator="in" result="effect1_backgroundBlur_201_857"/>
<feBlend mode="normal" in="SourceGraphic" in2="effect1_backgroundBlur_201_857" result="shape"/>
</filter>
<filter id="filter15_b_201_857" x="152.89" y="384.181" width="123.448" height="65.3278" filterUnits="userSpaceOnUse" color-interpolation-filters="sRGB">
<feFlood flood-opacity="0" result="BackgroundImageFix"/>
<feGaussianBlur in="BackgroundImageFix" stdDeviation="3.44333"/>
<feComposite in2="SourceAlpha" operator="in" result="effect1_backgroundBlur_201_857"/>
<feBlend mode="normal" in="SourceGraphic" in2="effect1_backgroundBlur_201_857" result="shape"/>
</filter>
<filter id="filter16_b_201_857" x="44" y="51" width="499.178" height="651" filterUnits="userSpaceOnUse" color-interpolation-filters="sRGB">
<feFlood flood-opacity="0" result="BackgroundImageFix"/>
<feGaussianBlur in="BackgroundImageFix" stdDeviation="7"/>
<feComposite in2="SourceAlpha" operator="in" result="effect1_backgroundBlur_201_857"/>
<feBlend mode="normal" in="SourceGraphic" in2="effect1_backgroundBlur_201_857" result="shape"/>
</filter>
<filter id="filter17_b_201_857" x="-54" y="112" width="408" height="530.442" filterUnits="userSpaceOnUse" color-interpolation-filters="sRGB">
<feFlood flood-opacity="0" result="BackgroundImageFix"/>
<feGaussianBlur in="BackgroundImageFix" stdDeviation="7"/>
<feComposite in2="SourceAlpha" operator="in" result="effect1_backgroundBlur_201_857"/>
<feBlend mode="normal" in="SourceGraphic" in2="effect1_backgroundBlur_201_857" result="shape"/>
</filter>
<filter id="filter18_f_201_857" x="-9.61682" y="379.012" width="155.576" height="134.679" filterUnits="userSpaceOnUse" color-interpolation-filters="sRGB">
<feFlood flood-opacity="0" result="BackgroundImageFix"/>
<feBlend mode="normal" in="SourceGraphic" in2="BackgroundImageFix" result="shape"/>
<feGaussianBlur stdDeviation="17" result="effect1_foregroundBlur_201_857"/>
</filter>
<filter id="filter19_b_201_857" x="18.2088" y="410.536" width="100.916" height="76.3213" filterUnits="userSpaceOnUse" color-interpolation-filters="sRGB">
<feFlood flood-opacity="0" result="BackgroundImageFix"/>
<feGaussianBlur in="BackgroundImageFix" stdDeviation="3.58287"/>
<feComposite in2="SourceAlpha" operator="in" result="effect1_backgroundBlur_201_857"/>
<feBlend mode="normal" in="SourceGraphic" in2="effect1_backgroundBlur_201_857" result="shape"/>
</filter>
<filter id="filter20_b_201_857" x="18.8364" y="407.465" width="91.8425" height="65.9477" filterUnits="userSpaceOnUse" color-interpolation-filters="sRGB">
<feFlood flood-opacity="0" result="BackgroundImageFix"/>
<feGaussianBlur in="BackgroundImageFix" stdDeviation="2.77339"/>
<feComposite in2="SourceAlpha" operator="in" result="effect1_backgroundBlur_201_857"/>
<feBlend mode="normal" in="SourceGraphic" in2="effect1_backgroundBlur_201_857" result="shape"/>
</filter>
<filter id="filter21_b_201_857" x="28.2088" y="390.536" width="100.916" height="76.3213" filterUnits="userSpaceOnUse" color-interpolation-filters="sRGB">
<feFlood flood-opacity="0" result="BackgroundImageFix"/>
<feGaussianBlur in="BackgroundImageFix" stdDeviation="3.58287"/>
<feComposite in2="SourceAlpha" operator="in" result="effect1_backgroundBlur_201_857"/>
<feBlend mode="normal" in="SourceGraphic" in2="effect1_backgroundBlur_201_857" result="shape"/>
</filter>
<filter id="filter22_b_201_857" x="28.8364" y="387.465" width="91.8425" height="65.9477" filterUnits="userSpaceOnUse" color-interpolation-filters="sRGB">
<feFlood flood-opacity="0" result="BackgroundImageFix"/>
<feGaussianBlur in="BackgroundImageFix" stdDeviation="2.77339"/>
<feComposite in2="SourceAlpha" operator="in" result="effect1_backgroundBlur_201_857"/>
<feBlend mode="normal" in="SourceGraphic" in2="effect1_backgroundBlur_201_857" result="shape"/>
</filter>
<filter id="filter23_b_201_857" x="-122" y="172" width="316" height="408.798" filterUnits="userSpaceOnUse" color-interpolation-filters="sRGB">
<feFlood flood-opacity="0" result="BackgroundImageFix"/>
<feGaussianBlur in="BackgroundImageFix" stdDeviation="7"/>
<feComposite in2="SourceAlpha" operator="in" result="effect1_backgroundBlur_201_857"/>
<feBlend mode="normal" in="SourceGraphic" in2="effect1_backgroundBlur_201_857" result="shape"/>
</filter>
<linearGradient id="paint0_linear_201_857" x1="618.873" y1="484.852" x2="563.9" y2="456.944" gradientUnits="userSpaceOnUse">
<stop stop-color="white"/>
<stop offset="0.979167" stop-color="white"/>
</linearGradient>
<linearGradient id="paint1_linear_201_857" x1="541.94" y1="550.636" x2="610.261" y2="552.03" gradientUnits="userSpaceOnUse">
<stop stop-color="white"/>
<stop offset="1" stop-color="#26A17B"/>
</linearGradient>
<linearGradient id="paint2_linear_201_857" x1="555.877" y1="489.877" x2="595.889" y2="524.243" gradientUnits="userSpaceOnUse">
<stop stop-color="#26A17B"/>
<stop offset="1" stop-color="#6FFFD2"/>
</linearGradient>
<radialGradient id="paint3_radial_201_857" cx="0" cy="0" r="1" gradientUnits="userSpaceOnUse" gradientTransform="translate(607.101 494.781) rotate(147.084) scale(41.8749 11.1834)">
<stop stop-color="white"/>
<stop offset="1" stop-color="white" stop-opacity="0"/>
</radialGradient>
<linearGradient id="paint4_linear_201_857" x1="607.665" y1="511.147" x2="583.894" y2="446.681" gradientUnits="userSpaceOnUse">
<stop stop-color="#26A17B"/>
<stop offset="1" stop-color="#75F8CF"/>
</linearGradient>
<linearGradient id="paint5_linear_201_857" x1="543.436" y1="477.436" x2="583.447" y2="511.802" gradientUnits="userSpaceOnUse">
<stop stop-color="#26A17B"/>
<stop offset="1" stop-color="#D9FFF3"/>
</linearGradient>
<radialGradient id="paint6_radial_201_857" cx="0" cy="0" r="1" gradientUnits="userSpaceOnUse" gradientTransform="translate(594.66 482.34) rotate(147.084) scale(41.8749 11.1834)">
<stop stop-color="white"/>
<stop offset="1" stop-color="white" stop-opacity="0"/>
</radialGradient>
<linearGradient id="paint7_linear_201_857" x1="637.716" y1="410.524" x2="564.227" y2="373.217" gradientUnits="userSpaceOnUse">
<stop stop-color="white"/>
<stop offset="0.979167" stop-color="white"/>
</linearGradient>
<linearGradient id="paint8_linear_201_857" x1="534.87" y1="498.466" x2="626.204" y2="500.329" gradientUnits="userSpaceOnUse">
<stop stop-color="white"/>
<stop offset="1" stop-color="#26A17B"/>
</linearGradient>
<linearGradient id="paint9_linear_201_857" x1="553.502" y1="417.241" x2="606.99" y2="463.183" gradientUnits="userSpaceOnUse">
<stop stop-color="#26A17B"/>
<stop offset="1" stop-color="#6FFFD2"/>
</linearGradient>
<radialGradient id="paint10_radial_201_857" cx="0" cy="0" r="1" gradientUnits="userSpaceOnUse" gradientTransform="translate(621.979 423.797) rotate(147.084) scale(55.9791 14.9502)">
<stop stop-color="white"/>
<stop offset="1" stop-color="white" stop-opacity="0"/>
</radialGradient>
<linearGradient id="paint11_linear_201_857" x1="622.734" y1="445.676" x2="590.955" y2="359.496" gradientUnits="userSpaceOnUse">
<stop stop-color="#26A17B"/>
<stop offset="1" stop-color="#75F8CF"/>
</linearGradient>
<linearGradient id="paint12_linear_201_857" x1="536.87" y1="400.61" x2="590.359" y2="446.551" gradientUnits="userSpaceOnUse">
<stop stop-color="#26A17B"/>
<stop offset="1" stop-color="#D9FFF3"/>
</linearGradient>
<radialGradient id="paint13_radial_201_857" cx="0" cy="0" r="1" gradientUnits="userSpaceOnUse" gradientTransform="translate(605.347 407.166) rotate(147.084) scale(55.9791 14.9502)">
<stop stop-color="white"/>
<stop offset="1" stop-color="white" stop-opacity="0"/>
</radialGradient>
<linearGradient id="paint14_linear_201_857" x1="738" y1="383.31" x2="490.461" y2="376.559" gradientUnits="userSpaceOnUse">
<stop stop-color="#5FDAB4"/>
<stop offset="0.79766" stop-color="#121212" stop-opacity="0"/>
</linearGradient>
<linearGradient id="paint15_linear_201_857" x1="727.113" y1="376.101" x2="550.939" y2="385.009" gradientUnits="userSpaceOnUse">
<stop stop-color="white"/>
<stop offset="1" stop-color="white" stop-opacity="0"/>
</linearGradient>
<linearGradient id="paint16_linear_201_857" x1="425.788" y1="526.168" x2="421.88" y2="453.667" gradientUnits="userSpaceOnUse">
<stop stop-color="white"/>
<stop offset="0.979167" stop-color="white"/>
</linearGradient>
<linearGradient id="paint17_linear_201_857" x1="313.392" y1="486.44" x2="352.201" y2="556.943" gradientUnits="userSpaceOnUse">
<stop stop-color="white"/>
<stop offset="1" stop-color="#7799F2"/>
</linearGradient>
<linearGradient id="paint18_linear_201_857" x1="383.568" y1="464.877" x2="372.078" y2="525.922" gradientUnits="userSpaceOnUse">
<stop stop-color="#A9C1FF"/>
<stop offset="1" stop-color="#E4ECFF"/>
</linearGradient>
<radialGradient id="paint19_radial_201_857" cx="0" cy="0" r="1" gradientUnits="userSpaceOnUse" gradientTransform="translate(408.73 520.009) rotate(-152.916) scale(49.3159 13.1707)">
<stop stop-color="white"/>
<stop offset="1" stop-color="white" stop-opacity="0"/>
</radialGradient>
<linearGradient id="paint20_linear_201_857" x1="438.622" y1="491.517" x2="410.627" y2="415.595" gradientUnits="userSpaceOnUse">
<stop stop-color="#1843B3"/>
<stop offset="1" stop-color="#456DD7"/>
</linearGradient>
<linearGradient id="paint21_linear_201_857" x1="388.931" y1="444.862" x2="377.441" y2="505.907" gradientUnits="userSpaceOnUse">
<stop stop-color="#BACDFF"/>
<stop offset="1" stop-color="#F8F8F8" stop-opacity="0"/>
</linearGradient>
<radialGradient id="paint22_radial_201_857" cx="0" cy="0" r="1" gradientUnits="userSpaceOnUse" gradientTransform="translate(414.092 499.994) rotate(-152.916) scale(49.3159 13.1707)">
<stop stop-color="white"/>
<stop offset="1" stop-color="white" stop-opacity="0"/>
</radialGradient>
<linearGradient id="paint23_linear_201_857" x1="426.037" y1="466.365" x2="422.129" y2="393.863" gradientUnits="userSpaceOnUse">
<stop stop-color="white"/>
<stop offset="0.979167" stop-color="white"/>
</linearGradient>
<linearGradient id="paint24_linear_201_857" x1="313.64" y1="426.636" x2="352.45" y2="497.139" gradientUnits="userSpaceOnUse">
<stop stop-color="white"/>
<stop offset="1" stop-color="#7799F2"/>
</linearGradient>
<linearGradient id="paint25_linear_201_857" x1="383.817" y1="405.073" x2="372.327" y2="466.118" gradientUnits="userSpaceOnUse">
<stop stop-color="#A9C1FF"/>
<stop offset="1" stop-color="#E4ECFF"/>
</linearGradient>
<radialGradient id="paint26_radial_201_857" cx="0" cy="0" r="1" gradientUnits="userSpaceOnUse" gradientTransform="translate(408.978 460.205) rotate(-152.916) scale(49.3159 13.1707)">
<stop stop-color="white"/>
<stop offset="1" stop-color="white" stop-opacity="0"/>
</radialGradient>
<linearGradient id="paint27_linear_201_857" x1="438.871" y1="431.713" x2="410.875" y2="355.792" gradientUnits="userSpaceOnUse">
<stop stop-color="#1843B3"/>
<stop offset="1" stop-color="#456DD7"/>
</linearGradient>
<linearGradient id="paint28_linear_201_857" x1="389.18" y1="385.058" x2="377.69" y2="446.103" gradientUnits="userSpaceOnUse">
<stop stop-color="#BACDFF"/>
<stop offset="1" stop-color="#F8F8F8" stop-opacity="0"/>
</linearGradient>
<radialGradient id="paint29_radial_201_857" cx="0" cy="0" r="1" gradientUnits="userSpaceOnUse" gradientTransform="translate(414.341 440.19) rotate(-152.916) scale(49.3159 13.1707)">
<stop stop-color="white"/>
<stop offset="1" stop-color="white" stop-opacity="0"/>
</radialGradient>
<linearGradient id="paint30_linear_201_857" x1="251.999" y1="499.534" x2="249.771" y2="458.202" gradientUnits="userSpaceOnUse">
<stop stop-color="white"/>
<stop offset="0.979167" stop-color="white"/>
</linearGradient>
<linearGradient id="paint31_linear_201_857" x1="187.924" y1="476.885" x2="210.048" y2="517.078" gradientUnits="userSpaceOnUse">
<stop stop-color="white"/>
<stop offset="1" stop-color="#7B3FE4"/>
</linearGradient>
<linearGradient id="paint32_linear_201_857" x1="227.93" y1="464.593" x2="221.38" y2="499.393" gradientUnits="userSpaceOnUse">
<stop stop-color="#C7A7FF"/>
<stop offset="1" stop-color="#FEE4FF"/>
</linearGradient>
<radialGradient id="paint33_radial_201_857" cx="0" cy="0" r="1" gradientUnits="userSpaceOnUse" gradientTransform="translate(242.274 496.022) rotate(-152.916) scale(28.1141 7.50837)">
<stop stop-color="white"/>
<stop offset="1" stop-color="white" stop-opacity="0"/>
</radialGradient>
<linearGradient id="paint34_linear_201_857" x1="259.316" y1="479.78" x2="243.356" y2="436.498" gradientUnits="userSpaceOnUse">
<stop stop-color="#7B3FE4"/>
<stop offset="1" stop-color="#9A60FF"/>
</linearGradient>
<linearGradient id="paint35_linear_201_857" x1="230.988" y1="453.183" x2="224.437" y2="487.983" gradientUnits="userSpaceOnUse">
<stop stop-color="#7B3FE4"/>
<stop offset="1" stop-color="#F8F3FF" stop-opacity="0"/>
</linearGradient>
<radialGradient id="paint36_radial_201_857" cx="0" cy="0" r="1" gradientUnits="userSpaceOnUse" gradientTransform="translate(245.332 484.612) rotate(-152.916) scale(28.1141 7.50838)">
<stop stop-color="white"/>
<stop offset="1" stop-color="white" stop-opacity="0"/>
</radialGradient>
<linearGradient id="paint37_linear_201_857" x1="250.457" y1="462.132" x2="247.26" y2="402.817" gradientUnits="userSpaceOnUse">
<stop stop-color="white"/>
<stop offset="0.979167" stop-color="white"/>
</linearGradient>
<linearGradient id="paint38_linear_201_857" x1="158.501" y1="429.629" x2="190.253" y2="487.31" gradientUnits="userSpaceOnUse">
<stop stop-color="white"/>
<stop offset="1" stop-color="#7B3FE4"/>
</linearGradient>
<linearGradient id="paint39_linear_201_857" x1="215.915" y1="411.988" x2="206.515" y2="461.931" gradientUnits="userSpaceOnUse">
<stop stop-color="#C7A7FF"/>
<stop offset="1" stop-color="#FEE4FF"/>
</linearGradient>
<radialGradient id="paint40_radial_201_857" cx="0" cy="0" r="1" gradientUnits="userSpaceOnUse" gradientTransform="translate(236.5 457.093) rotate(-152.916) scale(40.3469 10.7754)">
<stop stop-color="white"/>
<stop offset="1" stop-color="white" stop-opacity="0"/>
</radialGradient>
<linearGradient id="paint41_linear_201_857" x1="260.957" y1="433.784" x2="238.053" y2="371.669" gradientUnits="userSpaceOnUse">
<stop stop-color="#7B3FE4"/>
<stop offset="1" stop-color="#9A60FF"/>
</linearGradient>
<linearGradient id="paint42_linear_201_857" x1="220.303" y1="395.613" x2="210.902" y2="445.556" gradientUnits="userSpaceOnUse">
<stop stop-color="#7B3FE4"/>
<stop offset="1" stop-color="#F8F3FF" stop-opacity="0"/>
</linearGradient>
<radialGradient id="paint43_radial_201_857" cx="0" cy="0" r="1" gradientUnits="userSpaceOnUse" gradientTransform="translate(240.888 440.718) rotate(-152.916) scale(40.3469 10.7754)">
<stop stop-color="white"/>
<stop offset="1" stop-color="white" stop-opacity="0"/>
</radialGradient>
<linearGradient id="paint44_linear_201_857" x1="529.178" y1="381.805" x2="324.588" y2="376.226" gradientUnits="userSpaceOnUse">
<stop stop-color="#3960C7"/>
<stop offset="0.79766" stop-color="#121212" stop-opacity="0"/>
</linearGradient>
<linearGradient id="paint45_linear_201_857" x1="520.18" y1="375.847" x2="374.573" y2="383.209" gradientUnits="userSpaceOnUse">
<stop stop-color="white"/>
<stop offset="1" stop-color="white" stop-opacity="0"/>
</linearGradient>
<linearGradient id="paint46_linear_201_857" x1="340" y1="381.5" x2="175" y2="377" gradientUnits="userSpaceOnUse">
<stop stop-color="#7546C8"/>
<stop offset="0.79766" stop-color="#121212" stop-opacity="0"/>
</linearGradient>
<linearGradient id="paint47_linear_201_857" x1="332.743" y1="376.695" x2="215.312" y2="382.632" gradientUnits="userSpaceOnUse">
<stop stop-color="white"/>
<stop offset="1" stop-color="white" stop-opacity="0"/>
</linearGradient>
<linearGradient id="paint48_linear_201_857" x1="110.964" y1="445.818" x2="75.361" y2="413.857" gradientUnits="userSpaceOnUse">
<stop stop-color="white"/>
<stop offset="0.979167" stop-color="white"/>
</linearGradient>
<linearGradient id="paint49_linear_201_857" x1="40.0813" y1="479.678" x2="91.0153" y2="494.446" gradientUnits="userSpaceOnUse">
<stop stop-color="white"/>
<stop offset="1" stop-color="#F0B90B"/>
</linearGradient>
<linearGradient id="paint50_linear_201_857" x1="62.7326" y1="436.932" x2="85.8229" y2="470.729" gradientUnits="userSpaceOnUse">
<stop stop-color="#F0B90B"/>
<stop offset="1" stop-color="#FFEBAC"/>
</linearGradient>
<radialGradient id="paint51_radial_201_857" cx="0" cy="0" r="1" gradientUnits="userSpaceOnUse" gradientTransform="translate(100.145 450.897) rotate(162.084) scale(32.4969 8.67888)">
<stop stop-color="white"/>
<stop offset="1" stop-color="white" stop-opacity="0"/>
</radialGradient>
<linearGradient id="paint52_linear_201_857" x1="102.084" y1="454.082" x2="83.6362" y2="404.053" gradientUnits="userSpaceOnUse">
<stop stop-color="#F0B90B"/>
<stop offset="1" stop-color="#FFE48F"/>
</linearGradient>
<linearGradient id="paint53_linear_201_857" x1="55.9055" y1="425.107" x2="78.9957" y2="458.904" gradientUnits="userSpaceOnUse">
<stop stop-color="#F0B90B"/>
<stop offset="0.958333" stop-color="#FFE698"/>
</linearGradient>
<radialGradient id="paint54_radial_201_857" cx="0" cy="0" r="1" gradientUnits="userSpaceOnUse" gradientTransform="translate(93.3182 439.071) rotate(162.084) scale(32.4969 8.67888)">
<stop stop-color="white"/>
<stop offset="1" stop-color="white" stop-opacity="0"/>
</radialGradient>
<linearGradient id="paint55_linear_201_857" x1="120.964" y1="425.818" x2="85.361" y2="393.857" gradientUnits="userSpaceOnUse">
<stop stop-color="white"/>
<stop offset="0.979167" stop-color="white"/>
</linearGradient>
<linearGradient id="paint56_linear_201_857" x1="50.0813" y1="459.678" x2="101.015" y2="474.446" gradientUnits="userSpaceOnUse">
<stop stop-color="white"/>
<stop offset="1" stop-color="#F0B90B"/>
</linearGradient>
<linearGradient id="paint57_linear_201_857" x1="72.7326" y1="416.932" x2="95.8229" y2="450.729" gradientUnits="userSpaceOnUse">
<stop stop-color="#F0B90B"/>
<stop offset="1" stop-color="#FFEBAC"/>
</linearGradient>
<radialGradient id="paint58_radial_201_857" cx="0" cy="0" r="1" gradientUnits="userSpaceOnUse" gradientTransform="translate(110.145 430.897) rotate(162.084) scale(32.4969 8.67888)">
<stop stop-color="white"/>
<stop offset="1" stop-color="white" stop-opacity="0"/>
</radialGradient>
<linearGradient id="paint59_linear_201_857" x1="112.084" y1="434.082" x2="93.6362" y2="384.053" gradientUnits="userSpaceOnUse">
<stop stop-color="#F0B90B"/>
<stop offset="1" stop-color="#FFE48F"/>
</linearGradient>
<linearGradient id="paint60_linear_201_857" x1="65.9055" y1="405.107" x2="88.9957" y2="438.904" gradientUnits="userSpaceOnUse">
<stop stop-color="#F0B90B"/>
<stop offset="0.958333" stop-color="#FFE698"/>
</linearGradient>
<radialGradient id="paint61_radial_201_857" cx="0" cy="0" r="1" gradientUnits="userSpaceOnUse" gradientTransform="translate(103.318 419.071) rotate(162.084) scale(32.4969 8.67888)">
<stop stop-color="white"/>
<stop offset="1" stop-color="white" stop-opacity="0"/>
</radialGradient>
<linearGradient id="paint62_linear_201_857" x1="174.5" y1="352.5" x2="26" y2="355.5" gradientUnits="userSpaceOnUse">
<stop stop-color="#CBAD4D"/>
<stop offset="0.666787" stop-color="#121212" stop-opacity="0"/>
</linearGradient>
<linearGradient id="paint63_linear_201_857" x1="174.5" y1="376" x2="85.5" y2="380.5" gradientUnits="userSpaceOnUse">
<stop stop-color="white"/>
<stop offset="1" stop-color="white" stop-opacity="0"/>
</linearGradient>
<clipPath id="clip0_201_857">
<rect width="29.8505" height="48.6236" fill="white" transform="matrix(0.707134 0.70708 -0.965936 0.258783 396.153 451.155)"/>
</clipPath>
<clipPath id="clip1_201_857">
<rect width="29.8505" height="48.6236" fill="white" transform="matrix(0.707134 0.70708 -0.965936 0.258783 396.401 391.352)"/>
</clipPath>
<clipPath id="clip2_201_857">
<rect width="44.8865" height="44.8865" fill="white" transform="matrix(1 -3.77386e-05 -0.500033 0.866007 53.1266 420.886)"/>
</clipPath>
<clipPath id="clip3_201_857">
<rect width="44.8865" height="44.8865" fill="white" transform="matrix(1 -3.77386e-05 -0.500033 0.866007 63.1266 400.886)"/>
</clipPath>
</defs>
</svg>
