<svg width="156" height="50" viewBox="0 0 156 50" fill="none" xmlns="http://www.w3.org/2000/svg">
<g clip-path="url(#clip0_201_791)">
<path d="M99.9789 23.4777V20.5306H100.961V19.4589H97.7462V20.5306H98.7286V23.4777H99.9789Z" fill="black"/>
<path d="M126.146 22.4953H126.414L126.95 23.4777H128.111L127.396 22.2274C127.575 22.1381 127.754 21.9595 127.843 21.6916C127.932 21.5129 128.021 21.245 128.021 20.9771C128.021 20.7092 127.932 20.4412 127.843 20.1733C127.754 19.9054 127.575 19.7268 127.307 19.6375C127.039 19.5482 126.771 19.4589 126.503 19.4589H124.896V23.4777H126.057L126.146 22.4953ZM126.146 20.5306H126.593C126.771 20.5306 126.86 20.5306 126.95 20.6199C127.039 20.7092 127.039 20.7985 127.039 20.9771C127.039 21.1557 127.039 21.245 126.95 21.3343C126.86 21.4236 126.771 21.4236 126.593 21.4236H126.146V20.5306Z" fill="black"/>
<path d="M111.41 19.4589V21.6022C111.41 22.2274 111.589 22.6739 111.857 22.9419C112.125 23.2991 112.571 23.3884 113.018 23.3884C113.554 23.3884 113.911 23.2098 114.179 22.9419C114.447 22.5846 114.625 22.1381 114.625 21.6022V19.4589H113.554V21.6022C113.554 21.8702 113.554 22.1381 113.464 22.2274C113.375 22.3167 113.286 22.406 113.107 22.406C112.928 22.406 112.839 22.3167 112.75 22.2274C112.66 22.1381 112.66 21.8702 112.66 21.6022V19.4589H111.41Z" fill="black"/>
<path d="M108.195 15.4399V7.40222H101.765C101.14 7.40222 100.604 7.67014 100.158 8.11668C99.711 8.56322 99.4431 9.09907 99.4431 9.72422V15.4399H101.319V9.72422C101.319 9.63491 101.408 9.4563 101.497 9.36699C101.586 9.27768 101.676 9.18837 101.854 9.18837H106.498V15.4399H108.195Z" fill="black"/>
<path d="M124.628 13.4751C124.538 13.5644 124.36 13.6538 124.271 13.6538H118.644V15.4399H124.449C125.074 15.4399 125.521 15.172 125.967 14.7254C126.414 14.2789 126.593 13.7431 126.593 13.0286V10.528H120.252V9.72422C120.252 9.63491 120.341 9.4563 120.43 9.36699C120.52 9.27768 120.698 9.18837 120.788 9.18837H126.593V7.40222H120.788C120.162 7.40222 119.716 7.67014 119.269 8.11668C118.823 8.56322 118.644 9.09907 118.644 9.81353V12.3141H124.806V13.2072C124.806 13.2965 124.717 13.3858 124.628 13.4751Z" fill="black"/>
<path d="M155.439 10.6173V7.49158H148.919C148.294 7.49158 147.758 7.7595 147.312 8.20604C146.865 8.65258 146.597 9.18842 146.597 9.81357V15.44H148.384V12.9393H152.134L153.474 15.44H155.26L153.921 12.7607C154.189 12.6714 154.456 12.4928 154.724 12.2249C155.26 11.8677 155.439 11.2425 155.439 10.6173ZM153.653 10.6173C153.653 10.796 153.653 10.8853 153.563 10.9746C153.474 11.0639 153.385 11.1532 153.206 11.1532H148.473V9.81357C148.473 9.72427 148.562 9.54565 148.651 9.45634C148.741 9.36704 148.83 9.27773 149.009 9.27773H153.742V10.6173H153.653Z" fill="black"/>
<path d="M133.112 15.44V9.27773H136.238V7.49158H128.2V9.27773H131.415V15.44H133.112Z" fill="black"/>
<path d="M154.189 22.4059C154.099 22.4059 154.01 22.4952 153.831 22.4952C153.653 22.4952 153.474 22.4952 153.206 22.4059C153.028 22.3166 152.849 22.2273 152.67 22.138L152.313 23.1204C152.492 23.2097 152.76 23.299 153.028 23.3883C153.296 23.4776 153.563 23.4776 153.921 23.4776C154.278 23.4776 154.546 23.3883 154.814 23.299C155.082 23.2097 155.26 23.0311 155.35 22.8525C155.439 22.6739 155.528 22.4059 155.528 22.2273C155.528 21.9594 155.439 21.6915 155.35 21.6022C155.171 21.4236 155.082 21.3342 154.903 21.2449C154.724 21.1556 154.457 21.0663 154.189 21.0663C154.01 21.0663 153.831 20.977 153.742 20.977C153.653 20.977 153.563 20.8877 153.563 20.7984C153.563 20.6198 153.742 20.5305 154.01 20.5305C154.278 20.5305 154.635 20.6198 154.992 20.7984L155.35 19.9053C155.171 19.816 154.992 19.7267 154.724 19.6374C154.457 19.5481 154.278 19.5481 154.01 19.5481C153.653 19.5481 153.385 19.6374 153.117 19.7267C152.849 19.816 152.67 19.9946 152.581 20.1732C152.492 20.3519 152.402 20.6198 152.402 20.7984C152.402 21.0663 152.492 21.3342 152.581 21.4236C152.76 21.6022 152.849 21.6915 153.028 21.7808C153.206 21.8701 153.474 21.9594 153.742 21.9594C153.921 22.0487 154.099 22.0487 154.189 22.0487C154.278 22.0487 154.367 22.138 154.367 22.2273C154.278 22.3166 154.189 22.4059 154.189 22.4059Z" fill="black"/>
<path d="M144.99 7.49158H139.185C138.56 7.49158 138.113 7.7595 137.667 8.20604C137.22 8.65258 137.042 9.18842 137.042 9.90288V15.44H138.738V13.3859H143.293V15.44H144.99V7.49158ZM138.738 11.5997V9.72427C138.738 9.63496 138.828 9.54565 138.828 9.36704C138.917 9.27773 139.006 9.27773 139.185 9.27773H143.293V11.5997H138.738Z" fill="black"/>
<path d="M142.579 20.5305V19.5481H139.453V23.4776H142.668V22.4952H140.703V21.9594H142.311V20.977H140.703V20.5305H142.579Z" fill="black"/>
<path d="M117.037 11.5104H115.25V13.6538H110.696V9.81357C110.696 9.63496 110.785 9.54565 110.874 9.45634C110.964 9.36704 111.053 9.27773 111.232 9.27773H116.679V7.49158H111.232C110.606 7.49158 110.071 7.7595 109.624 8.20604C109.178 8.65258 108.999 9.18842 108.999 9.90288V15.44H117.037V11.5104Z" fill="black"/>
<path d="M76.3124 14.7255C76.7589 14.279 77.0268 13.7431 77.0268 13.0286V7.49158H70.5074C69.8822 7.49158 69.3464 7.7595 68.8998 8.20604C68.4533 8.65258 68.1854 9.18842 68.1854 9.90288V13.118C68.1854 13.7431 68.4533 14.3683 68.8998 14.8148C69.3464 15.2613 69.8822 15.5293 70.5074 15.5293H74.7048C75.33 15.44 75.8658 15.2613 76.3124 14.7255ZM71.0432 13.6538H70.5074C70.3288 13.6538 70.2395 13.6538 70.1501 13.5645C70.0608 13.4752 69.9715 13.3859 69.9715 13.2073V9.72427C69.9715 9.63496 70.0608 9.54565 70.1501 9.36704C70.2395 9.27773 70.3288 9.27773 70.5074 9.27773H71.0432H75.1514V13.2073C75.1514 13.2966 75.0621 13.3859 74.9728 13.5645C74.8835 13.6538 74.7941 13.6538 74.6155 13.6538H74.0797H71.0432Z" fill="black"/>
<path d="M98.6392 7.49158H97.0317V15.5293H98.6392V7.49158Z" fill="black"/>
<path d="M73.7224 20.5305V19.5481H70.5966V23.4776H73.8117V22.4952H71.847V21.9594H73.4545V20.977H71.847V20.5305H73.7224Z" fill="black"/>
<path d="M58.1828 19.4589H56.9325L58.3614 23.4777H59.5224L60.9514 19.4589H59.8797L58.9866 21.7809L58.1828 19.4589Z" fill="black"/>
<path d="M67.3815 15.4399V7.40222H59.2545C58.6294 7.40222 58.0935 7.67014 57.647 8.11668C57.2004 8.56322 56.9325 9.09907 56.9325 9.72422V15.4399H58.7187V9.72422C58.7187 9.63491 58.808 9.4563 58.8973 9.36699C58.9866 9.27768 59.0759 9.18837 59.2545 9.18837H61.2193V15.4399H63.0054V9.27768H65.5061V15.4399H67.3815Z" fill="black"/>
<path d="M85.2431 21.6916L86.4934 23.4777H87.3864V19.4589H86.3147V21.245L85.0644 19.4589H84.1714V23.4777H85.2431V21.6916Z" fill="black"/>
<path d="M96.2279 15.4399V7.40222H89.7978C89.1726 7.40222 88.6368 7.67014 88.1903 8.11668C87.7437 8.56322 87.4758 9.09907 87.4758 9.72422V15.4399H89.3513V9.72422C89.3513 9.63491 89.4406 9.4563 89.5299 9.36699C89.6192 9.27768 89.7085 9.18837 89.8871 9.18837H94.5311V15.4399H96.2279Z" fill="black"/>
<path d="M86.5827 10.6173V7.49158H80.0633C79.4381 7.49158 78.9023 7.7595 78.4557 8.20604C78.0092 8.65258 77.7413 9.18842 77.7413 9.81357V15.44H79.5274V12.9393H83.2783L84.6179 15.44H86.4041L85.0645 12.7607C85.3324 12.6714 85.6003 12.4928 85.8682 12.2249C86.4041 11.8677 86.5827 11.2425 86.5827 10.6173ZM84.7966 10.6173C84.7966 10.796 84.7966 10.8853 84.7073 10.9746C84.6179 11.0639 84.5286 11.1532 84.35 11.1532H79.6167V9.81357C79.6167 9.72427 79.706 9.54565 79.7953 9.45634C79.8846 9.36704 79.9739 9.27773 80.1526 9.27773H84.8859V10.6173H84.7966Z" fill="black"/>
<path d="M32.4623 19.4588L0.936676 49.109L30.5868 17.5834C32.105 15.8865 32.1943 13.3859 30.7654 11.6891L20.9416 0.25769L32.4623 10.1708C34.1591 11.5998 36.5704 11.5998 38.2673 10.1708L49.7879 0.25769L39.8748 11.7784C38.4459 13.4752 38.4459 15.8865 39.8748 17.5834L49.7879 29.1041L38.3566 19.2802C36.6597 17.8513 34.0698 17.8513 32.4623 19.4588Z" fill="black"/>
</g>
<defs>
<clipPath id="clip0_201_791">
<rect width="154.502" height="49.1192" fill="white" transform="translate(0.936676 0.25769)"/>
</clipPath>
</defs>
</svg>
