<svg width="131" height="20" viewBox="0 0 131 20" fill="none" xmlns="http://www.w3.org/2000/svg">
<path d="M81.5444 9.62821C81.1995 9.36954 80.8259 9.1396 80.3947 8.96715C79.9636 8.7947 79.5612 8.62225 79.1301 8.50729C78.7277 8.39232 78.3253 8.24861 77.9804 8.1049C77.6355 7.96119 77.3481 7.78874 77.1469 7.55881C76.917 7.32888 76.8308 7.04146 76.8308 6.69656C76.8308 6.29417 76.9457 6.00676 77.2044 5.77683C77.4631 5.54689 77.808 5.46066 78.2391 5.46066C78.6702 5.46066 79.0439 5.60437 79.3025 5.86305C79.5612 6.12172 79.7049 6.52411 79.7049 7.01272H82.6941C82.6941 5.80557 82.2917 4.79961 81.4582 4.05232C80.6247 3.30504 79.5612 2.9314 78.2678 2.9314C77.0607 2.9314 76.0835 3.2763 75.3075 3.99484C74.5314 4.71338 74.129 5.60437 74.129 6.7253C74.129 7.24265 74.1865 7.70252 74.3302 8.1049C74.4739 8.50729 74.6464 8.85219 74.8476 9.11086C75.0775 9.36954 75.3075 9.59947 75.5949 9.80066C75.8823 10.0019 76.1697 10.1456 76.4859 10.2893C76.802 10.4042 77.1182 10.5192 77.4056 10.6342C77.7217 10.7491 78.0092 10.8354 78.2966 10.9503C78.584 11.0653 78.8139 11.1515 79.0439 11.2952C79.2738 11.4102 79.4463 11.5826 79.5612 11.7838C79.7049 11.985 79.7624 12.215 79.7624 12.4736C79.7624 12.9048 79.6475 13.2209 79.3888 13.4509C79.1301 13.6808 78.7852 13.7958 78.3253 13.7958C77.8655 13.7958 77.5206 13.6521 77.2619 13.3934C77.0032 13.1347 76.8595 12.7323 76.8595 12.215H73.8991C73.8991 13.4509 74.3015 14.4281 75.135 15.2041C75.9685 15.9514 77.032 16.3538 78.3253 16.3538C79.6187 16.3538 80.6821 16.0089 81.5157 15.2903C82.3204 14.5718 82.7515 13.652 82.7515 12.5024C82.7515 11.8413 82.6366 11.2952 82.4354 10.8066C82.1767 10.2893 81.8893 9.91563 81.5444 9.62821Z" fill="black"/>
<path d="M63.4526 8.2206C63.6825 7.38709 64.1137 6.72603 64.746 6.23742C65.3783 5.77756 66.1256 5.51888 67.0166 5.51888C67.9076 5.51888 68.6549 5.74882 69.2872 6.23742C69.9195 6.69729 70.3219 7.35835 70.5518 8.2206H63.4526ZM67.0453 2.93213C65.0909 2.93213 63.4814 3.56445 62.2455 4.80034C60.9808 6.06497 60.3773 7.64577 60.3773 9.60021C60.3773 11.5546 61.0096 13.1642 62.2455 14.4288C63.4814 15.6647 65.0909 16.297 67.0741 16.297C68.5399 16.297 69.862 15.9521 70.9829 15.2623C72.1039 14.5725 72.8512 13.624 73.1961 12.4169H69.8908C69.3159 13.2504 68.3674 13.6815 67.0453 13.6815C66.0969 13.6815 65.2921 13.4229 64.6598 12.9055C64.0275 12.3882 63.5963 11.6696 63.3951 10.7499H73.6559C73.7134 10.2613 73.7709 9.88762 73.7709 9.62894C73.7709 7.67451 73.1386 6.06497 71.8739 4.82908C70.5806 3.56445 68.9998 2.93213 67.0453 2.93213Z" fill="black"/>
<path d="M87.2323 0.25769H84.3007V3.18934H82.8923V5.91981H84.3007V11.5244C84.3007 14.5711 85.824 16.0656 88.8706 16.0656H91.1987V13.3352H89.0718C87.8359 13.3352 87.2036 12.7316 87.2036 11.5244V5.91981H91.1699V3.18934H87.2323V0.25769Z" fill="black"/>
<path d="M60.5736 3.19031L56.6647 4.88607V3.19031H53.6756V16.0666H56.6647V7.84646L60.5736 6.23693V3.19031Z" fill="black"/>
<path d="M100.804 12.5027C100.114 13.2213 99.2233 13.5949 98.1023 13.5949C96.9814 13.5949 96.0617 13.2213 95.3719 12.5027C94.6821 11.7842 94.3372 10.807 94.3372 9.62858C94.3372 8.45017 94.6821 7.47295 95.3719 6.75441C96.0617 6.03587 96.9814 5.66222 98.1023 5.66222C99.2233 5.66222 100.114 6.03587 100.804 6.75441C101.494 7.47295 101.81 8.45017 101.81 9.62858C101.81 10.8357 101.465 11.7842 100.804 12.5027ZM98.1023 2.93176C96.1479 2.93176 94.5384 3.56408 93.3025 4.79997C92.0378 6.06461 91.4343 7.6454 91.4343 9.59984C91.4343 11.5543 92.0666 13.1638 93.3025 14.4284C94.5384 15.6643 96.1479 16.2967 98.1311 16.2967C100.086 16.2967 101.695 15.6643 102.96 14.4284C104.224 13.1925 104.828 11.583 104.828 9.59984C104.828 7.6454 104.196 6.03587 102.931 4.79997C101.666 3.56408 100.057 2.93176 98.1023 2.93176Z" fill="black"/>
<path d="M43.2233 6.75466C43.9131 6.03612 44.8329 5.66248 45.9538 5.66248C47.0747 5.66248 47.9657 6.03612 48.6555 6.75466C49.3453 7.47321 49.6615 8.45042 49.6615 9.62883C49.6615 10.836 49.3166 11.7845 48.6555 12.503C47.9657 13.2215 47.0747 13.5952 45.9538 13.5952C44.8329 13.5952 43.9131 13.2215 43.2233 12.503C42.5335 11.7845 42.1886 10.8072 42.1886 9.62883C42.1886 8.45042 42.5335 7.47321 43.2233 6.75466ZM41.1539 14.4574C42.3898 15.6933 43.9993 16.3257 45.9825 16.3257C47.4771 16.3257 48.713 15.8945 49.6902 15.0035V16.0957H52.6793V3.21944H49.6902V4.31162C48.6555 3.42063 47.4196 2.9895 45.9825 2.9895C44.0281 2.9895 42.4186 3.62182 41.1827 4.85771C39.918 6.12235 39.3144 7.70314 39.3144 9.65758C39.257 11.5833 39.8893 13.1928 41.1539 14.4574Z" fill="black"/>
<path d="M111.512 2.92175C110.248 2.92175 109.213 3.32414 108.379 4.15764V3.18043H105.39V16.0567H108.379V8.32519C108.379 7.52042 108.609 6.85937 109.098 6.37076C109.586 5.88215 110.219 5.62347 111.052 5.62347C111.828 5.62347 112.489 5.88215 112.978 6.37076C113.467 6.85937 113.725 7.52042 113.725 8.29645V16.028H116.686V8.29645C116.686 6.71566 116.197 5.42228 115.22 4.41632C114.271 3.4391 113.035 2.92175 111.512 2.92175Z" fill="black"/>
<path d="M35.5732 7.84628L39.4821 6.23674V3.16138L35.5732 4.85714V3.16138H32.5841V16.0377H35.5732V7.84628Z" fill="black"/>
<path d="M120.49 8.2203C120.72 7.38679 121.151 6.72573 121.783 6.23713C122.416 5.77726 123.163 5.51858 124.054 5.51858C124.945 5.51858 125.692 5.74852 126.325 6.23713C126.957 6.69699 127.359 7.35805 127.589 8.2203H120.49ZM130.78 9.62864C130.78 7.67421 130.147 6.06467 128.883 4.82878C127.618 3.56415 126.008 2.96057 124.054 2.96057C122.1 2.96057 120.49 3.59289 119.254 4.82878C117.989 6.09342 117.386 7.67421 117.386 9.62864C117.386 11.5831 118.018 13.1926 119.254 14.4572C120.49 15.7219 122.099 16.3255 124.083 16.3255C125.549 16.3255 126.871 15.9806 127.992 15.2908C129.112 14.601 129.86 13.6525 130.205 12.4453H126.899C126.325 13.2788 125.376 13.71 124.054 13.71C123.105 13.71 122.301 13.4513 121.668 12.9339C121.036 12.4166 120.605 11.698 120.404 10.7783H130.665C130.751 10.261 130.78 9.88732 130.78 9.62864Z" fill="black"/>
<path d="M9.81824 14.9223H18.0445L22.1432 7.82169L18.0445 0.692261H9.81824L5.71954 7.79283L9.81824 14.9223Z" stroke="black" stroke-width="1.21821" stroke-miterlimit="5.6238"/>
<path d="M14.9847 5.97437H12.8776L11.8096 7.7928L12.8776 9.61124H14.9847L16.0527 7.7928L14.9847 5.97437Z" stroke="black" stroke-width="1.21821" stroke-miterlimit="14.0596"/>
<path d="M7.56018 11.018L20.2892 4.61021M20.1738 11.2489L7.7045 4.3793M13.9391 18.2052V0.684692M9.81158 0.713558L18.0378 14.9435M18.0378 0.713558L9.81158 14.9435" stroke="black" stroke-width="1.21821" stroke-miterlimit="14.0596"/>
<path d="M13.9392 7.81409C7.79112 7.81409 1.67194 7.81409 1.67194 7.81409" stroke="black" stroke-width="1.21821" stroke-miterlimit="14.0596"/>
<path d="M13.9391 7.81409C20.0872 7.81409 26.2064 7.81409 26.2064 7.81409" stroke="black" stroke-width="1.21821" stroke-miterlimit="14.0596"/>
<path d="M13.8884 18.5015L18.0737 14.9801L26.2134 7.82181L18.0448 0.692383H9.81856L1.65002 7.79295L10.6556 15.7306L13.8884 18.5015Z" stroke="black" stroke-width="1.21821" stroke-miterlimit="14.0596"/>
</svg>
