<svg width="128" height="37" viewBox="0 0 128 37" fill="none" xmlns="http://www.w3.org/2000/svg">
<g clip-path="url(#clip0_201_766)">
<path d="M14.6184 5.95923H6.18987V8.06216H14.6184V5.95923Z" fill="#121212"/>
<path fill-rule="evenodd" clip-rule="evenodd" d="M6.5645 23.0188V25.1251H6.57873V28.707H6.56282V30.8091H8.68418L8.67916 23.0205L6.5645 23.0188Z" fill="#121212"/>
<path d="M31.8111 28.6963H23.7754V30.8001H31.8111V28.6963Z" fill="#121212"/>
<path fill-rule="evenodd" clip-rule="evenodd" d="M31.4113 13.7378V5.9491H29.3109L29.3159 13.7378H31.4113Z" fill="#121212"/>
<path fill-rule="evenodd" clip-rule="evenodd" d="M18.7876 0.269415L0.878754 0.27779L0.899691 36.5017L19.2106 36.49L37.1194 36.4816L37.0977 0.25769L18.7876 0.269415ZM34.9964 2.36314V2.37738H35.0073V17.3274H31.4119V17.3207H25.7363L25.7271 2.36733L34.9964 2.36314ZM2.98755 8.06477H2.99676V5.96183H2.98671V2.38324L14.6211 2.37738H17.8873V11.6375H16.2123L2.9909 11.6459L2.98755 8.06477ZM3.00346 34.3921V34.3837H2.99676V23.0223V19.4404H4.75549H12.2653L12.2745 34.3946L3.00346 34.3921ZM17.9501 23.014L17.9568 34.3862H14.3749L14.3648 17.3257L2.99258 17.3324V13.7505L17.8999 13.7429L17.9451 18.2972V19.4303H20.0648L20.0531 18.2378L20.0439 2.37068H23.6258L23.6359 19.4312L35.0056 19.4261V23.0089H34.8088V23.0165H31.2277V23.0106H23.774L17.9501 23.014ZM35.014 31.6669V34.3745L20.2105 34.3829L20.1745 30.8018H20.1904V28.6997H20.1536L20.1192 25.1211L35.009 25.1119V28.0699L35.014 31.6669Z" fill="#121212"/>
<path d="M51.7011 5.70544C51.4565 5.90274 51.2611 6.15418 51.1303 6.43991C50.9995 6.72565 50.9369 7.03787 50.9474 7.35195C50.943 7.68081 51.026 8.00492 51.1879 8.29124C51.3497 8.57755 51.5846 8.8158 51.8686 8.9817C53.222 9.64697 54.6585 10.1275 56.1398 10.4105C58.045 10.8019 59.8267 11.6497 61.3322 12.8811C61.9718 13.499 62.4686 14.2493 62.7879 15.0794C63.1072 15.9095 63.2412 16.7993 63.1806 17.6866C63.208 18.666 63.0081 19.6385 62.5966 20.5278C62.1851 21.4171 61.5732 22.1989 60.8088 22.812C59.031 24.1886 56.8204 24.8858 54.5745 24.7784C50.8139 24.7628 47.2079 23.2795 44.5247 20.6446L47.6502 16.8131C50.1816 19.0313 52.523 20.1404 54.6742 20.1404C55.4781 20.1865 56.275 19.9679 56.943 19.5182C57.2071 19.3266 57.4203 19.0733 57.5638 18.7802C57.7073 18.4872 57.7768 18.1634 57.7662 17.8373C57.7744 17.5063 57.6986 17.1786 57.5458 16.8848C57.3931 16.591 57.1684 16.3407 56.8927 16.1573C55.8147 15.5526 54.6457 15.127 53.4314 14.8969C51.2704 14.4992 49.2228 13.6331 47.4324 12.3593C46.1667 11.318 45.5338 9.6824 45.5338 7.45245C45.4833 6.46179 45.6758 5.4738 46.0946 4.5746C46.5134 3.6754 47.1457 2.89228 47.9366 2.29351C49.6792 1.03921 51.7898 0.400698 53.9355 0.47867C55.5378 0.484192 57.1279 0.756762 58.6405 1.28517C60.1395 1.78298 61.5315 2.55798 62.7442 3.56984L60.0894 7.40136C58.3006 5.94532 56.0765 5.1288 53.7705 5.08151C53.0289 5.04005 52.2963 5.26093 51.7011 5.70544Z" fill="#121212"/>
<path d="M126.984 20.3564V24.8554H108.956V21.2777L118.158 12.587C120.271 10.5771 120.646 9.3493 120.646 8.19106C120.646 6.31675 119.351 5.22634 116.829 5.22634C115.873 5.18816 114.922 5.38574 114.06 5.80169C113.198 6.21764 112.452 6.83918 111.887 7.61151L107.867 5.02199C109.71 2.32947 113.047 0.591675 117.342 0.591675C122.658 0.591675 126.203 3.3177 126.203 7.64585C126.203 9.96318 125.555 12.0762 122.215 15.1774L116.726 20.3564H126.984Z" fill="#121212"/>
<path d="M77.3533 0.50708H82.9695V20.1998H95.1382V24.7759H77.3533V0.50708Z" fill="#121212"/>
<path d="M44.8931 32.8644C44.9364 32.1529 45.1878 31.4698 45.6162 30.9C46.0445 30.3302 46.6309 29.8989 47.3024 29.6596C47.9739 29.4204 48.7009 29.3838 49.393 29.5544C50.0851 29.725 50.7118 30.0952 51.1953 30.6191L50.2137 31.5252C50.0122 31.2805 49.7585 31.0839 49.4711 30.95C49.1837 30.8161 48.87 30.7483 48.553 30.7514C47.9925 30.7514 47.4549 30.9741 47.0586 31.3704C46.6622 31.7667 46.4396 32.3043 46.4396 32.8648C46.4396 33.4253 46.6622 33.9629 47.0586 34.3592C47.4549 34.7555 47.9925 34.9782 48.553 34.9782C48.871 34.9816 49.1856 34.9129 49.4732 34.7772C49.7608 34.6416 50.014 34.4426 50.2137 34.1952L51.1953 35.1005C50.7136 35.6267 50.0876 35.9993 49.3954 36.1719C48.7032 36.3444 47.9756 36.3092 47.3033 36.0707C46.631 35.8321 46.0438 35.4008 45.6152 34.8306C45.1866 34.2603 44.9354 33.5765 44.8931 32.8644Z" fill="#121212"/>
<path d="M63.1579 34.7515H60.0919L59.5056 36.1668H57.9395L60.8833 29.5624H62.3908L65.3438 36.1668H63.74L63.1579 34.7515ZM62.6764 33.5915L61.6295 31.0632L60.5827 33.5915H62.6764Z" fill="#121212"/>
<path d="M78.4777 31.9584C78.4777 33.4299 77.3739 34.3453 75.6102 34.3453H74.2794V36.1668H72.751V29.5624H75.6102C77.3739 29.5624 78.4777 30.4778 78.4777 31.9584ZM76.9309 31.9584C76.9309 31.2315 76.4594 30.8077 75.5247 30.8077H74.2794V33.1008H75.5247C76.4585 33.1008 76.9309 32.6762 76.9309 31.9584Z" fill="#121212"/>
<path d="M86.2809 29.5624H87.8085V36.1668H86.2801L86.2809 29.5624Z" fill="#121212"/>
<path d="M97.459 30.8077H95.3452V29.5624H101.1V30.8077H98.9874V36.1677H97.459V30.8077Z" fill="#121212"/>
<path d="M112.657 34.7515H109.591L109.004 36.1668H107.438L110.382 29.5624H111.89L114.843 36.1668H113.239L112.657 34.7515ZM112.175 33.5915L111.128 31.0632L110.077 33.5915H112.175Z" fill="#121212"/>
<path d="M122.251 29.5624H123.779V34.9223H127.091V36.1668H122.251V29.5624Z" fill="#121212"/>
</g>
<defs>
<clipPath id="clip0_201_766">
<rect width="126.211" height="36.244" fill="white" transform="translate(0.878754 0.25769)"/>
</clipPath>
</defs>
</svg>
