<svg width="220" height="291" viewBox="0 0 220 291" fill="none" xmlns="http://www.w3.org/2000/svg">
<g filter="url(#filter0_b_346_109)">
<path d="M203.402 72.8679C227.7 58.8392 242.971 39.798 237.509 30.3383L229.882 17.1282L230.662 20.4341C230.981 21.7832 230.917 23.1944 230.477 24.5092L230.368 24.8366C229.547 27.2929 228.465 29.654 227.141 31.8794C225.99 33.8126 224.662 35.6343 223.173 37.3208L221.272 39.4751C218.13 43.035 214.618 46.2506 210.795 49.0676L206.506 52.2286C199.503 57.3892 191.946 61.7521 183.976 65.2363L179.094 67.3705C174.743 69.2724 170.202 70.7061 165.548 71.6474L162.731 72.217C160.526 72.663 158.285 72.9024 156.035 72.9322C153.446 72.9666 150.86 72.723 148.322 72.2056L147.984 72.1366C146.626 71.8596 145.372 71.2095 144.363 70.2593L141.89 67.9308L149.516 81.1409C154.978 90.6006 179.103 86.8967 203.402 72.8679Z" fill="url(#paint0_linear_346_109)" fill-opacity="0.1"/>
<path d="M203.402 72.8679C227.7 58.8392 242.971 39.798 237.509 30.3383L229.882 17.1282L230.662 20.4341C230.981 21.7832 230.917 23.1944 230.477 24.5092L230.368 24.8366C229.547 27.2929 228.465 29.654 227.141 31.8794C225.99 33.8126 224.662 35.6343 223.173 37.3208L221.272 39.4751C218.13 43.035 214.618 46.2506 210.795 49.0676L206.506 52.2286C199.503 57.3892 191.946 61.7521 183.976 65.2363L179.094 67.3705C174.743 69.2724 170.202 70.7061 165.548 71.6474L162.731 72.217C160.526 72.663 158.285 72.9024 156.035 72.9322C153.446 72.9666 150.86 72.723 148.322 72.2056L147.984 72.1366C146.626 71.8596 145.372 71.2095 144.363 70.2593L141.89 67.9308L149.516 81.1409C154.978 90.6006 179.103 86.8967 203.402 72.8679Z" fill="url(#paint1_linear_346_109)"/>
<path d="M237.365 30.4217C238.699 32.7326 238.777 35.6441 237.742 38.9518C236.707 42.2597 234.564 45.9467 231.485 49.7854C225.329 57.4619 215.454 65.7168 203.318 72.7235C191.182 79.7302 179.096 84.1545 169.37 85.6477C164.506 86.3944 160.242 86.4068 156.86 85.6491C153.478 84.8914 150.995 83.3684 149.661 81.0575L142.601 68.83L144.248 70.3807C145.28 71.3522 146.562 72.0169 147.951 72.3L148.289 72.369C150.838 72.8888 153.436 73.1335 156.037 73.099C158.297 73.069 160.549 72.8285 162.764 72.3805L165.581 71.8108C170.247 70.8672 174.799 69.4299 179.16 67.5233L184.043 65.3891C192.024 61.8999 199.592 57.5308 206.605 52.3629L210.894 49.2019C214.726 46.3778 218.247 43.1542 221.397 39.5854L223.298 37.4312C224.794 35.7369 226.128 33.9068 227.284 31.9647C228.615 29.7291 229.702 27.3571 230.526 24.8895L230.635 24.562C231.085 23.2179 231.15 21.7751 230.825 20.3958L230.305 18.1942L237.365 30.4217Z" stroke="url(#paint2_linear_346_109)" stroke-width="0.333546"/>
<path d="M237.365 30.4217C238.699 32.7326 238.777 35.6441 237.742 38.9518C236.707 42.2597 234.564 45.9467 231.485 49.7854C225.329 57.4619 215.454 65.7168 203.318 72.7235C191.182 79.7302 179.096 84.1545 169.37 85.6477C164.506 86.3944 160.242 86.4068 156.86 85.6491C153.478 84.8914 150.995 83.3684 149.661 81.0575L142.601 68.83L144.248 70.3807C145.28 71.3522 146.562 72.0169 147.951 72.3L148.289 72.369C150.838 72.8888 153.436 73.1335 156.037 73.099C158.297 73.069 160.549 72.8285 162.764 72.3805L165.581 71.8108C170.247 70.8672 174.799 69.4299 179.16 67.5233L184.043 65.3891C192.024 61.8999 199.592 57.5308 206.605 52.3629L210.894 49.2019C214.726 46.3778 218.247 43.1542 221.397 39.5854L223.298 37.4312C224.794 35.7369 226.128 33.9068 227.284 31.9647C228.615 29.7291 229.702 27.3571 230.526 24.8895L230.635 24.562C231.085 23.2179 231.15 21.7751 230.825 20.3958L230.305 18.1942L237.365 30.4217Z" stroke="url(#paint3_radial_346_109)" stroke-width="0.333546"/>
</g>
<g filter="url(#filter1_b_346_109)">
<ellipse cx="185.886" cy="42.5295" rx="50.8026" ry="19.7781" transform="rotate(-30 185.886 42.5295)" fill="url(#paint4_linear_346_109)" fill-opacity="0.8"/>
<path d="M229.738 17.2116C231.072 19.5226 231.15 22.434 230.115 25.7417C229.08 29.0497 226.937 32.7367 223.858 36.5753C217.702 44.2518 207.827 52.5067 195.691 59.5134C183.555 66.5202 171.469 70.9444 161.743 72.4377C156.879 73.1844 152.615 73.1968 149.233 72.439C145.851 71.6814 143.368 70.1584 142.034 67.8474C140.7 65.5365 140.622 62.6251 141.657 59.3173C142.692 56.0094 144.835 52.3224 147.913 48.4837C154.069 40.8073 163.944 32.5523 176.08 25.5456C188.216 18.5389 200.302 14.1146 210.029 12.6214C214.892 11.8747 219.157 11.8623 222.539 12.62C225.921 13.3777 228.403 14.9007 229.738 17.2116Z" stroke="url(#paint5_linear_346_109)" stroke-width="0.333546"/>
<path d="M229.738 17.2116C231.072 19.5226 231.15 22.434 230.115 25.7417C229.08 29.0497 226.937 32.7367 223.858 36.5753C217.702 44.2518 207.827 52.5067 195.691 59.5134C183.555 66.5202 171.469 70.9444 161.743 72.4377C156.879 73.1844 152.615 73.1968 149.233 72.439C145.851 71.6814 143.368 70.1584 142.034 67.8474C140.7 65.5365 140.622 62.6251 141.657 59.3173C142.692 56.0094 144.835 52.3224 147.913 48.4837C154.069 40.8073 163.944 32.5523 176.08 25.5456C188.216 18.5389 200.302 14.1146 210.029 12.6214C214.892 11.8747 219.157 11.8623 222.539 12.62C225.921 13.3777 228.403 14.9007 229.738 17.2116Z" stroke="url(#paint6_radial_346_109)" stroke-width="0.333546"/>
</g>
<path d="M196.511 34.3613C196.406 34.2668 196.252 34.1357 196.053 33.9848C195.647 33.6779 195.052 33.2882 194.296 32.9582C193.162 32.4641 191.521 32.1789 190.441 32.1112C182.648 31.623 172.656 36.7305 168.175 43.4771C163.695 50.2236 166.376 56.1252 174.169 56.6134C181.966 57.1019 191.677 51.9728 196.155 45.23L208.053 27.3147C208.718 26.314 208.326 25.435 207.157 25.3618L204.78 25.2128C203.611 25.1396 202.129 25.9012 201.465 26.9019L196.511 34.3613ZM184.83 49.1164L184.83 49.1165C182.668 50.3632 180.227 51.075 177.996 50.9352C173.811 50.6731 172.372 47.5347 174.792 43.8916C177.211 40.2484 182.537 37.5338 186.722 37.796C190.896 38.0575 191.965 41.1626 189.539 44.8155C188.407 46.5197 186.724 48.0246 184.83 49.1164Z" fill="white"/>
<path d="M196.511 34.3613C196.406 34.2668 196.252 34.1357 196.053 33.9848C195.647 33.6779 195.052 33.2882 194.296 32.9582C193.162 32.4641 191.521 32.1789 190.441 32.1112C182.648 31.623 172.656 36.7305 168.175 43.4771C163.695 50.2236 166.376 56.1252 174.169 56.6134C181.966 57.1019 191.677 51.9728 196.155 45.23L208.053 27.3147C208.718 26.314 208.326 25.435 207.157 25.3618L204.78 25.2128C203.611 25.1396 202.129 25.9012 201.465 26.9019L196.511 34.3613ZM184.83 49.1164L184.83 49.1165C182.668 50.3632 180.227 51.075 177.996 50.9352C173.811 50.6731 172.372 47.5347 174.792 43.8916C177.211 40.2484 182.537 37.5338 186.722 37.796C190.896 38.0575 191.965 41.1626 189.539 44.8155C188.407 46.5197 186.724 48.0246 184.83 49.1164Z" fill="url(#paint7_linear_346_109)"/>
<path d="M196.511 34.3613C196.406 34.2668 196.252 34.1357 196.053 33.9848C195.647 33.6779 195.052 33.2882 194.296 32.9582C193.162 32.4641 191.521 32.1789 190.441 32.1112C182.648 31.623 172.656 36.7305 168.175 43.4771C163.695 50.2236 166.376 56.1252 174.169 56.6134C181.966 57.1019 191.677 51.9728 196.155 45.23L208.053 27.3147C208.718 26.314 208.326 25.435 207.157 25.3618L204.78 25.2128C203.611 25.1396 202.129 25.9012 201.465 26.9019L196.511 34.3613ZM184.83 49.1164L184.83 49.1165C182.668 50.3632 180.227 51.075 177.996 50.9352C173.811 50.6731 172.372 47.5347 174.792 43.8916C177.211 40.2484 182.537 37.5338 186.722 37.796C190.896 38.0575 191.965 41.1626 189.539 44.8155C188.407 46.5197 186.724 48.0246 184.83 49.1164Z" stroke="url(#paint8_linear_346_109)" stroke-width="0.333546"/>
<path d="M196.511 34.3613C196.406 34.2668 196.252 34.1357 196.053 33.9848C195.647 33.6779 195.052 33.2882 194.296 32.9582C193.162 32.4641 191.521 32.1789 190.441 32.1112C182.648 31.623 172.656 36.7305 168.175 43.4771C163.695 50.2236 166.376 56.1252 174.169 56.6134C181.966 57.1019 191.677 51.9728 196.155 45.23L208.053 27.3147C208.718 26.314 208.326 25.435 207.157 25.3618L204.78 25.2128C203.611 25.1396 202.129 25.9012 201.465 26.9019L196.511 34.3613ZM184.83 49.1164L184.83 49.1165C182.668 50.3632 180.227 51.075 177.996 50.9352C173.811 50.6731 172.372 47.5347 174.792 43.8916C177.211 40.2484 182.537 37.5338 186.722 37.796C190.896 38.0575 191.965 41.1626 189.539 44.8155C188.407 46.5197 186.724 48.0246 184.83 49.1164Z" stroke="url(#paint9_radial_346_109)" stroke-width="0.333546"/>
<path fill-rule="evenodd" clip-rule="evenodd" d="M190.355 32.2512C182.66 31.7691 172.781 36.8136 168.348 43.4885C163.915 50.1634 166.572 55.9934 174.267 56.4755C181.962 56.9576 191.562 51.8955 195.995 45.2206L189.739 44.8287L193.126 39.7288L196.513 34.6288C196.383 34.4971 196.327 34.4256 196.102 34.2476C194.728 33.1606 192.847 32.4073 190.355 32.2512ZM186.82 37.6581C191.103 37.9264 192.178 41.1122 189.711 44.827C188.56 46.5608 186.845 48.0963 184.908 49.2128C182.695 50.4888 180.193 51.2183 177.91 51.0752C173.627 50.8069 172.164 47.597 174.631 43.8822C177.098 40.1674 182.538 37.3898 186.82 37.6581Z" fill="url(#paint10_radial_346_109)"/>
<g filter="url(#filter2_b_346_109)">
<path d="M119.102 95.7189C126.363 68.6175 123.697 44.3556 113.146 41.5285L98.4121 37.5805L101.301 39.3665C102.48 40.0954 103.433 41.1386 104.052 42.3789L104.206 42.6878C105.363 45.0049 106.267 47.4395 106.904 49.9497C107.458 52.1302 107.807 54.3575 107.947 56.6028L108.125 59.4706C108.421 64.2098 108.211 68.9669 107.5 73.6618L106.702 78.93C105.4 87.5307 103.141 95.9591 99.9689 104.059L98.0257 109.02C96.2941 113.442 94.097 117.666 91.4717 121.623L89.883 124.017C88.6392 125.891 87.2233 127.646 85.6539 129.258C83.8471 131.113 81.8464 132.769 79.6863 134.198L79.3983 134.388C78.242 135.153 76.8955 135.58 75.5099 135.621L72.1148 135.724L86.8487 139.671C97.3997 142.499 111.84 122.82 119.102 95.7189Z" fill="url(#paint11_linear_346_109)" fill-opacity="0.1"/>
<path d="M119.102 95.7189C126.363 68.6175 123.697 44.3556 113.146 41.5285L98.4121 37.5805L101.301 39.3665C102.48 40.0954 103.433 41.1386 104.052 42.3789L104.206 42.6878C105.363 45.0049 106.267 47.4395 106.904 49.9497C107.458 52.1302 107.807 54.3575 107.947 56.6028L108.125 59.4706C108.421 64.2098 108.211 68.9669 107.5 73.6618L106.702 78.93C105.4 87.5307 103.141 95.9591 99.9689 104.059L98.0257 109.02C96.2941 113.442 94.097 117.666 91.4717 121.623L89.883 124.017C88.6392 125.891 87.2233 127.646 85.6539 129.258C83.8471 131.113 81.8464 132.769 79.6863 134.198L79.3983 134.388C78.242 135.153 76.8955 135.58 75.5099 135.621L72.1148 135.724L86.8487 139.671C97.3997 142.499 111.84 122.82 119.102 95.7189Z" fill="url(#paint12_linear_346_109)"/>
<path d="M113.103 41.6895C115.68 42.3802 117.794 44.384 119.401 47.4546C121.009 50.5254 122.1 54.6479 122.638 59.539C123.713 69.3203 122.567 82.1398 118.94 95.6758C115.314 109.212 109.896 120.886 104.074 128.82C101.163 132.787 98.1563 135.811 95.2289 137.667C92.3017 139.523 89.4694 140.201 86.8919 139.51L73.2539 135.856L75.5149 135.788C76.9315 135.745 78.3081 135.309 79.4903 134.527L79.7782 134.337C81.9484 132.902 83.9582 131.238 85.7733 129.374C87.3501 127.755 88.7724 125.992 90.022 124.109L91.6106 121.715C94.2425 117.749 96.4451 113.513 98.181 109.081L100.124 104.12C103.301 96.0084 105.563 87.5679 106.867 78.9549L107.665 73.6867C108.378 68.9802 108.588 64.2112 108.292 59.4602L108.113 56.5924C107.972 54.3368 107.622 52.0992 107.066 49.9087C106.426 47.3869 105.517 44.9411 104.355 42.6133L104.201 42.3044C103.568 41.0364 102.594 39.9699 101.389 39.2247L99.4649 38.0353L113.103 41.6895Z" stroke="url(#paint13_linear_346_109)" stroke-width="0.333546"/>
<path d="M113.103 41.6895C115.68 42.3802 117.794 44.384 119.401 47.4546C121.009 50.5254 122.1 54.6479 122.638 59.539C123.713 69.3203 122.567 82.1398 118.94 95.6758C115.314 109.212 109.896 120.886 104.074 128.82C101.163 132.787 98.1563 135.811 95.2289 137.667C92.3017 139.523 89.4694 140.201 86.8919 139.51L73.2539 135.856L75.5149 135.788C76.9315 135.745 78.3081 135.309 79.4903 134.527L79.7782 134.337C81.9484 132.902 83.9582 131.238 85.7733 129.374C87.3501 127.755 88.7724 125.992 90.022 124.109L91.6106 121.715C94.2425 117.749 96.4451 113.513 98.181 109.081L100.124 104.12C103.301 96.0084 105.563 87.5679 106.867 78.9549L107.665 73.6867C108.378 68.9802 108.588 64.2112 108.292 59.4602L108.113 56.5924C107.972 54.3368 107.622 52.0992 107.066 49.9087C106.426 47.3869 105.517 44.9411 104.355 42.6133L104.201 42.3044C103.568 41.0364 102.594 39.9699 101.389 39.2247L99.4649 38.0353L113.103 41.6895Z" stroke="url(#paint14_radial_346_109)" stroke-width="0.333546"/>
</g>
<g filter="url(#filter3_b_346_109)">
<ellipse cx="85.2635" cy="86.6519" rx="50.8026" ry="19.7781" transform="rotate(-75 85.2635 86.6519)" fill="url(#paint15_linear_346_109)" fill-opacity="0.8"/>
<path d="M98.369 37.7415C100.946 38.4322 103.06 40.4359 104.667 43.5066C106.275 46.5774 107.366 50.6998 107.904 55.591C108.979 65.3722 107.833 78.1918 104.207 91.7277C100.58 105.264 95.1617 116.938 89.3402 124.872C86.4291 128.839 83.4224 131.863 80.495 133.719C77.5678 135.574 74.7355 136.253 72.158 135.562C69.5805 134.872 67.4668 132.868 65.8596 129.797C64.2524 126.726 63.1606 122.604 62.623 117.713C61.5481 107.932 62.6934 95.1121 66.3204 81.5761C69.9473 68.0402 75.3652 56.3655 81.1868 48.4322C84.0979 44.465 87.1046 41.4408 90.0319 39.585C92.9591 37.7294 95.7915 37.0509 98.369 37.7415Z" stroke="url(#paint16_linear_346_109)" stroke-width="0.333546"/>
<path d="M98.369 37.7415C100.946 38.4322 103.06 40.4359 104.667 43.5066C106.275 46.5774 107.366 50.6998 107.904 55.591C108.979 65.3722 107.833 78.1918 104.207 91.7277C100.58 105.264 95.1617 116.938 89.3402 124.872C86.4291 128.839 83.4224 131.863 80.495 133.719C77.5678 135.574 74.7355 136.253 72.158 135.562C69.5805 134.872 67.4668 132.868 65.8596 129.797C64.2524 126.726 63.1606 122.604 62.623 117.713C61.5481 107.932 62.6934 95.1121 66.3204 81.5761C69.9473 68.0402 75.3652 56.3655 81.1868 48.4322C84.0979 44.465 87.1046 41.4408 90.0319 39.585C92.9591 37.7294 95.7915 37.0509 98.369 37.7415Z" stroke="url(#paint17_radial_346_109)" stroke-width="0.333546"/>
</g>
<path d="M87.0004 73.3635C86.8592 73.371 86.6577 73.3871 86.4102 73.4213C85.9065 73.4909 85.2104 73.6358 84.4419 73.9377C83.2911 74.3897 81.9289 75.3486 81.1174 76.0643C75.2617 81.2296 71.8077 91.9067 73.41 99.8455C75.0123 107.784 81.0809 110.062 86.9366 104.896C92.7956 99.7283 96.0357 89.2345 94.4343 81.3002L90.1795 60.2189C89.9418 59.0414 89.0432 58.697 88.1649 59.4717L86.3785 61.0474C85.5002 61.8222 84.9912 63.4083 85.2288 64.5858L87.0004 73.3635ZM89.1744 92.0564L89.1744 92.0565C88.5271 94.4669 87.3042 96.6964 85.6279 98.175C82.4836 100.949 79.2468 99.7471 78.3815 95.4602C77.5163 91.1732 79.363 85.4874 82.5074 82.7139C85.6437 79.9474 88.5952 81.3872 89.4627 85.6856C89.8675 87.691 89.7415 89.9452 89.1744 92.0564Z" fill="white"/>
<path d="M87.0004 73.3635C86.8592 73.371 86.6577 73.3871 86.4102 73.4213C85.9065 73.4909 85.2104 73.6358 84.4419 73.9377C83.2911 74.3897 81.9289 75.3486 81.1174 76.0643C75.2617 81.2296 71.8077 91.9067 73.41 99.8455C75.0123 107.784 81.0809 110.062 86.9366 104.896C92.7956 99.7283 96.0357 89.2345 94.4343 81.3002L90.1795 60.2189C89.9418 59.0414 89.0432 58.697 88.1649 59.4717L86.3785 61.0474C85.5002 61.8222 84.9912 63.4083 85.2288 64.5858L87.0004 73.3635ZM89.1744 92.0564L89.1744 92.0565C88.5271 94.4669 87.3042 96.6964 85.6279 98.175C82.4836 100.949 79.2468 99.7471 78.3815 95.4602C77.5163 91.1732 79.363 85.4874 82.5074 82.7139C85.6437 79.9474 88.5952 81.3872 89.4627 85.6856C89.8675 87.691 89.7415 89.9452 89.1744 92.0564Z" fill="url(#paint18_linear_346_109)"/>
<path d="M87.0004 73.3635C86.8592 73.371 86.6577 73.3871 86.4102 73.4213C85.9065 73.4909 85.2104 73.6358 84.4419 73.9377C83.2911 74.3897 81.9289 75.3486 81.1174 76.0643C75.2617 81.2296 71.8077 91.9067 73.41 99.8455C75.0123 107.784 81.0809 110.062 86.9366 104.896C92.7956 99.7283 96.0357 89.2345 94.4343 81.3002L90.1795 60.2189C89.9418 59.0414 89.0432 58.697 88.1649 59.4717L86.3785 61.0474C85.5002 61.8222 84.9912 63.4083 85.2288 64.5858L87.0004 73.3635ZM89.1744 92.0564L89.1744 92.0565C88.5271 94.4669 87.3042 96.6964 85.6279 98.175C82.4836 100.949 79.2468 99.7471 78.3815 95.4602C77.5163 91.1732 79.363 85.4874 82.5074 82.7139C85.6437 79.9474 88.5952 81.3872 89.4627 85.6856C89.8675 87.691 89.7415 89.9452 89.1744 92.0564Z" stroke="url(#paint19_linear_346_109)" stroke-width="0.333546"/>
<path d="M87.0004 73.3635C86.8592 73.371 86.6577 73.3871 86.4102 73.4213C85.9065 73.4909 85.2104 73.6358 84.4419 73.9377C83.2911 74.3897 81.9289 75.3486 81.1174 76.0643C75.2617 81.2296 71.8077 91.9067 73.41 99.8455C75.0123 107.784 81.0809 110.062 86.9366 104.896C92.7956 99.7283 96.0357 89.2345 94.4343 81.3002L90.1795 60.2189C89.9418 59.0414 89.0432 58.697 88.1649 59.4717L86.3785 61.0474C85.5002 61.8222 84.9912 63.4083 85.2288 64.5858L87.0004 73.3635ZM89.1744 92.0564L89.1744 92.0565C88.5271 94.4669 87.3042 96.6964 85.6279 98.175C82.4836 100.949 79.2468 99.7471 78.3815 95.4602C77.5163 91.1732 79.363 85.4874 82.5074 82.7139C85.6437 79.9474 88.5952 81.3872 89.4627 85.6856C89.8675 87.691 89.7415 89.9452 89.1744 92.0564Z" stroke="url(#paint20_radial_346_109)" stroke-width="0.333546"/>
<path fill-rule="evenodd" clip-rule="evenodd" d="M81.1554 76.224C75.3733 81.3243 71.9548 91.8768 73.54 99.7314C75.1253 107.586 81.1265 109.829 86.9086 104.729C92.6908 99.6287 95.8995 89.2611 94.3143 81.4067L89.6137 85.553L88.4025 79.5517L87.1913 73.5505C87.0063 73.5492 86.9159 73.5386 86.6309 73.5718C84.8906 73.7749 83.028 74.5722 81.1554 76.224ZM82.4794 82.5466C85.6973 79.7081 88.7105 81.2002 89.5928 85.5714C90.0046 87.6117 89.8774 89.9103 89.2974 92.0693C88.635 94.5362 87.3818 96.821 85.6659 98.3346C82.448 101.173 79.1437 99.9379 78.2614 95.5667C77.3792 91.1954 79.2615 85.385 82.4794 82.5466Z" fill="url(#paint21_radial_346_109)"/>
<g filter="url(#filter4_b_346_109)">
<path d="M66.0914 186.072C58.8296 158.97 44.3895 139.292 33.8385 142.119L19.1046 146.067L22.4997 146.169C23.8853 146.211 25.2318 146.638 26.3881 147.403L26.6761 147.593C28.8362 149.022 30.8369 150.678 32.6437 152.533C34.2131 154.145 35.629 155.899 36.8728 157.774L38.4615 160.168C41.0868 164.125 43.2839 168.349 45.0155 172.771L46.9587 177.732C50.131 185.832 52.3894 194.26 53.692 202.861L54.4898 208.129C55.2008 212.824 55.4104 217.581 55.1151 222.32L54.9364 225.188C54.7964 227.433 54.4475 229.661 53.8942 231.841C53.2571 234.351 52.3526 236.786 51.196 239.103L51.0418 239.412C50.4228 240.652 49.4702 241.695 48.2911 242.424L45.4019 244.21L60.1359 240.262C70.6868 237.435 73.3532 213.173 66.0914 186.072Z" fill="url(#paint22_linear_346_109)" fill-opacity="0.1"/>
<path d="M66.0914 186.072C58.8296 158.97 44.3895 139.292 33.8385 142.119L19.1046 146.067L22.4997 146.169C23.8853 146.211 25.2318 146.638 26.3881 147.403L26.6761 147.593C28.8362 149.022 30.8369 150.678 32.6437 152.533C34.2131 154.145 35.629 155.899 36.8728 157.774L38.4615 160.168C41.0868 164.125 43.2839 168.349 45.0155 172.771L46.9587 177.732C50.131 185.832 52.3894 194.26 53.692 202.861L54.4898 208.129C55.2008 212.824 55.4104 217.581 55.1151 222.32L54.9364 225.188C54.7964 227.433 54.4475 229.661 53.8942 231.841C53.2571 234.351 52.3526 236.786 51.196 239.103L51.0418 239.412C50.4228 240.652 49.4702 241.695 48.2911 242.424L45.4019 244.21L60.1359 240.262C70.6868 237.435 73.3532 213.173 66.0914 186.072Z" fill="url(#paint23_linear_346_109)"/>
<path d="M33.8817 142.28C36.4592 141.59 39.2915 142.268 42.2187 144.124C45.1461 145.98 48.1528 149.004 51.0639 152.971C56.8855 160.904 62.3033 172.579 65.9303 186.115C69.5572 199.651 70.7026 212.47 69.6276 222.252C69.0901 227.143 67.9983 231.265 66.391 234.336C64.7838 237.407 62.6702 239.411 60.0927 240.101L46.4547 243.755L48.3788 242.566C49.5843 241.821 50.5582 240.754 51.1911 239.486L51.3452 239.177C52.5071 236.85 53.4158 234.404 54.0558 231.882C54.6117 229.692 54.9622 227.454 55.1028 225.198L55.2815 222.331C55.5776 217.58 55.3675 212.811 54.6547 208.104L53.8568 202.836C52.5524 194.223 50.2908 185.782 47.114 177.671L45.1708 172.71C43.4349 168.277 41.2323 164.042 38.6004 160.076L37.0118 157.682C35.7622 155.798 34.3399 154.036 32.7631 152.417C30.948 150.553 28.9382 148.889 26.768 147.454L26.4801 147.264C25.2979 146.482 23.9213 146.045 22.5047 146.003L20.2437 145.935L33.8817 142.28Z" stroke="url(#paint24_linear_346_109)" stroke-width="0.333546"/>
<path d="M33.8817 142.28C36.4592 141.59 39.2915 142.268 42.2187 144.124C45.1461 145.98 48.1528 149.004 51.0639 152.971C56.8855 160.904 62.3033 172.579 65.9303 186.115C69.5572 199.651 70.7026 212.47 69.6276 222.252C69.0901 227.143 67.9983 231.265 66.391 234.336C64.7838 237.407 62.6702 239.411 60.0927 240.101L46.4547 243.755L48.3788 242.566C49.5843 241.821 50.5582 240.754 51.1911 239.486L51.3452 239.177C52.5071 236.85 53.4158 234.404 54.0558 231.882C54.6117 229.692 54.9622 227.454 55.1028 225.198L55.2815 222.331C55.5776 217.58 55.3675 212.811 54.6547 208.104L53.8568 202.836C52.5524 194.223 50.2908 185.782 47.114 177.671L45.1708 172.71C43.4349 168.277 41.2323 164.042 38.6004 160.076L37.0118 157.682C35.7622 155.798 34.3399 154.036 32.7631 152.417C30.948 150.553 28.9382 148.889 26.768 147.454L26.4801 147.264C25.2979 146.482 23.9213 146.045 22.5047 146.003L20.2437 145.935L33.8817 142.28Z" stroke="url(#paint25_radial_346_109)" stroke-width="0.333546"/>
</g>
<g filter="url(#filter5_b_346_109)">
<ellipse cx="32.2532" cy="195.138" rx="50.8026" ry="19.7781" transform="rotate(-105 32.2532 195.138)" fill="url(#paint26_linear_346_109)" fill-opacity="0.8"/>
<path d="M19.1477 146.228C21.7252 145.537 24.5575 146.216 27.4847 148.072C30.4121 149.927 33.4188 152.952 36.3299 156.919C42.1515 164.852 47.5693 176.527 51.1963 190.063C54.8232 203.599 55.9686 216.418 54.8936 226.199C54.3561 231.091 53.2643 235.213 51.657 238.284C50.0498 241.354 47.9362 243.358 45.3587 244.049C42.7812 244.739 39.9488 244.061 37.0217 242.205C34.0943 240.35 31.0876 237.325 28.1765 233.358C22.3549 225.425 16.937 213.75 13.3101 200.214C9.68315 186.678 8.5378 173.859 9.61275 164.077C10.1503 159.186 11.2421 155.064 12.8493 151.993C14.4565 148.922 16.5702 146.919 19.1477 146.228Z" stroke="url(#paint27_linear_346_109)" stroke-width="0.333546"/>
<path d="M19.1477 146.228C21.7252 145.537 24.5575 146.216 27.4847 148.072C30.4121 149.927 33.4188 152.952 36.3299 156.919C42.1515 164.852 47.5693 176.527 51.1963 190.063C54.8232 203.599 55.9686 216.418 54.8936 226.199C54.3561 231.091 53.2643 235.213 51.657 238.284C50.0498 241.354 47.9362 243.358 45.3587 244.049C42.7812 244.739 39.9488 244.061 37.0217 242.205C34.0943 240.35 31.0876 237.325 28.1765 233.358C22.3549 225.425 16.937 213.75 13.3101 200.214C9.68315 186.678 8.5378 173.859 9.61275 164.077C10.1503 159.186 11.2421 155.064 12.8493 151.993C14.4565 148.922 16.5702 146.919 19.1477 146.228Z" stroke="url(#paint28_radial_346_109)" stroke-width="0.333546"/>
</g>
<path d="M27.1131 182.762C26.9945 182.839 26.8281 182.954 26.6308 183.107C26.2294 183.419 25.699 183.893 25.1845 184.538C24.4138 185.505 23.7136 187.017 23.3687 188.042C20.8801 195.443 23.2274 206.417 28.5844 212.491C33.9414 218.565 40.3357 217.503 42.8243 210.102C45.3142 202.697 42.8734 191.989 37.5194 185.918L23.2939 169.789C22.4994 168.888 21.5489 169.039 21.1756 170.149L20.4165 172.407C20.0432 173.517 20.3954 175.145 21.19 176.046L27.1131 182.762ZM38.3422 197.863L38.3423 197.863C38.9869 200.274 39.0426 202.817 38.3302 204.935C36.9939 208.91 33.59 209.487 30.6972 206.207C27.8044 202.927 26.5609 197.08 27.8972 193.106C29.2301 189.142 32.506 188.913 35.4065 192.202C36.7598 193.736 37.7778 195.751 38.3422 197.863Z" fill="white"/>
<path d="M27.1131 182.762C26.9945 182.839 26.8281 182.954 26.6308 183.107C26.2294 183.419 25.699 183.893 25.1845 184.538C24.4138 185.505 23.7136 187.017 23.3687 188.042C20.8801 195.443 23.2274 206.417 28.5844 212.491C33.9414 218.565 40.3357 217.503 42.8243 210.102C45.3142 202.697 42.8734 191.989 37.5194 185.918L23.2939 169.789C22.4994 168.888 21.5489 169.039 21.1756 170.149L20.4165 172.407C20.0432 173.517 20.3954 175.145 21.19 176.046L27.1131 182.762ZM38.3422 197.863L38.3423 197.863C38.9869 200.274 39.0426 202.817 38.3302 204.935C36.9939 208.91 33.59 209.487 30.6972 206.207C27.8044 202.927 26.5609 197.08 27.8972 193.106C29.2301 189.142 32.506 188.913 35.4065 192.202C36.7598 193.736 37.7778 195.751 38.3422 197.863Z" fill="url(#paint29_linear_346_109)"/>
<path d="M27.1131 182.762C26.9945 182.839 26.8281 182.954 26.6308 183.107C26.2294 183.419 25.699 183.893 25.1845 184.538C24.4138 185.505 23.7136 187.017 23.3687 188.042C20.8801 195.443 23.2274 206.417 28.5844 212.491C33.9414 218.565 40.3357 217.503 42.8243 210.102C45.3142 202.697 42.8734 191.989 37.5194 185.918L23.2939 169.789C22.4994 168.888 21.5489 169.039 21.1756 170.149L20.4165 172.407C20.0432 173.517 20.3954 175.145 21.19 176.046L27.1131 182.762ZM38.3422 197.863L38.3423 197.863C38.9869 200.274 39.0426 202.817 38.3302 204.935C36.9939 208.91 33.59 209.487 30.6972 206.207C27.8044 202.927 26.5609 197.08 27.8972 193.106C29.2301 189.142 32.506 188.913 35.4065 192.202C36.7598 193.736 37.7778 195.751 38.3422 197.863Z" stroke="url(#paint30_linear_346_109)" stroke-width="0.333546"/>
<path d="M27.1131 182.762C26.9945 182.839 26.8281 182.954 26.6308 183.107C26.2294 183.419 25.699 183.893 25.1845 184.538C24.4138 185.505 23.7136 187.017 23.3687 188.042C20.8801 195.443 23.2274 206.417 28.5844 212.491C33.9414 218.565 40.3357 217.503 42.8243 210.102C45.3142 202.697 42.8734 191.989 37.5194 185.918L23.2939 169.789C22.4994 168.888 21.5489 169.039 21.1756 170.149L20.4165 172.407C20.0432 173.517 20.3954 175.145 21.19 176.046L27.1131 182.762ZM38.3422 197.863L38.3423 197.863C38.9869 200.274 39.0426 202.817 38.3302 204.935C36.9939 208.91 33.59 209.487 30.6972 206.207C27.8044 202.927 26.5609 197.08 27.8972 193.106C29.2301 189.142 32.506 188.913 35.4065 192.202C36.7598 193.736 37.7778 195.751 38.3422 197.863Z" stroke="url(#paint31_radial_346_109)" stroke-width="0.333546"/>
<path fill-rule="evenodd" clip-rule="evenodd" d="M23.4815 188.161C21.0242 195.47 23.3399 206.318 28.6401 212.327C33.9402 218.337 40.2592 217.279 42.7165 209.971C45.1738 202.663 42.7688 192.08 37.4687 186.07L35.4711 192.011L31.4215 187.42L27.372 182.828C27.2111 182.92 27.1275 182.956 26.8974 183.127C25.4917 184.173 24.2773 185.795 23.4815 188.161ZM27.7894 192.975C29.1569 188.908 32.5125 188.693 35.4622 192.038C36.8389 193.599 37.8781 195.653 38.4553 197.813C39.1151 200.281 39.1723 202.886 38.443 205.055C37.0755 209.122 33.5963 209.704 30.6466 206.36C27.6969 203.015 26.4218 197.042 27.7894 192.975Z" fill="url(#paint32_radial_346_109)"/>
<g filter="url(#filter6_b_346_109)">
<path d="M139.26 257.149C112.159 249.888 87.897 252.554 85.0698 263.105L81.1219 277.839L82.9079 274.95C83.6368 273.771 84.68 272.818 85.9203 272.199L86.2292 272.045C88.5463 270.888 90.9809 269.984 93.4911 269.347C95.6716 268.793 97.8989 268.444 100.144 268.304L103.012 268.126C107.751 267.83 112.508 268.04 117.203 268.751L122.471 269.549C131.072 270.851 139.501 273.11 147.6 276.282L152.562 278.225C156.983 279.957 161.208 282.154 165.164 284.779L167.558 286.368C169.433 287.612 171.187 289.028 172.799 290.597C174.654 292.404 176.31 294.405 177.739 296.565L177.929 296.853C178.694 298.009 179.121 299.355 179.163 300.741L179.265 304.136L183.213 289.402C186.04 278.851 166.362 264.411 139.26 257.149Z" fill="url(#paint33_linear_346_109)" fill-opacity="0.1"/>
<path d="M139.26 257.149C112.159 249.888 87.897 252.554 85.0698 263.105L81.1219 277.839L82.9079 274.95C83.6368 273.771 84.68 272.818 85.9203 272.199L86.2292 272.045C88.5463 270.888 90.9809 269.984 93.4911 269.347C95.6716 268.793 97.8989 268.444 100.144 268.304L103.012 268.126C107.751 267.83 112.508 268.04 117.203 268.751L122.471 269.549C131.072 270.851 139.501 273.11 147.6 276.282L152.562 278.225C156.983 279.957 161.208 282.154 165.164 284.779L167.558 286.368C169.433 287.612 171.187 289.028 172.799 290.597C174.654 292.404 176.31 294.405 177.739 296.565L177.929 296.853C178.694 298.009 179.121 299.355 179.163 300.741L179.265 304.136L183.213 289.402C186.04 278.851 166.362 264.411 139.26 257.149Z" fill="url(#paint34_linear_346_109)"/>
<path d="M85.2309 263.148C85.9216 260.571 87.9253 258.457 90.996 256.85C94.0668 255.242 98.1892 254.151 103.08 253.613C112.862 252.538 125.681 253.684 139.217 257.31C152.753 260.937 164.428 266.355 172.361 272.177C176.328 275.088 179.352 278.095 181.208 281.022C183.064 283.949 183.742 286.782 183.052 289.359L179.397 302.997L179.329 300.736C179.287 299.319 178.85 297.943 178.068 296.761L177.878 296.473C176.443 294.303 174.779 292.293 172.915 290.478C171.296 288.901 169.534 287.479 167.651 286.229L165.256 284.64C161.29 282.008 157.055 279.806 152.622 278.07L147.661 276.127C139.55 272.95 131.109 270.688 122.496 269.384L117.228 268.586C112.522 267.873 107.753 267.663 103.002 267.959L100.134 268.138C97.8782 268.279 95.6406 268.629 93.45 269.185C90.9283 269.825 88.4825 270.734 86.1547 271.896L85.8458 272.05C84.5777 272.683 83.5113 273.656 82.7661 274.862L81.5766 276.786L85.2309 263.148Z" stroke="url(#paint35_linear_346_109)" stroke-width="0.333546"/>
<path d="M85.2309 263.148C85.9216 260.571 87.9253 258.457 90.996 256.85C94.0668 255.242 98.1892 254.151 103.08 253.613C112.862 252.538 125.681 253.684 139.217 257.31C152.753 260.937 164.428 266.355 172.361 272.177C176.328 275.088 179.352 278.095 181.208 281.022C183.064 283.949 183.742 286.782 183.052 289.359L179.397 302.997L179.329 300.736C179.287 299.319 178.85 297.943 178.068 296.761L177.878 296.473C176.443 294.303 174.779 292.293 172.915 290.478C171.296 288.901 169.534 287.479 167.651 286.229L165.256 284.64C161.29 282.008 157.055 279.806 152.622 278.07L147.661 276.127C139.55 272.95 131.109 270.688 122.496 269.384L117.228 268.586C112.522 267.873 107.753 267.663 103.002 267.959L100.134 268.138C97.8782 268.279 95.6406 268.629 93.45 269.185C90.9283 269.825 88.4825 270.734 86.1547 271.896L85.8458 272.05C84.5777 272.683 83.5113 273.656 82.7661 274.862L81.5766 276.786L85.2309 263.148Z" stroke="url(#paint36_radial_346_109)" stroke-width="0.333546"/>
</g>
<g filter="url(#filter7_b_346_109)">
<ellipse cx="130.193" cy="290.987" rx="50.8026" ry="19.7781" transform="rotate(-165 130.193 290.987)" fill="url(#paint37_linear_346_109)" fill-opacity="0.8"/>
<path d="M81.2822 277.882C81.9728 275.304 83.9766 273.19 87.0472 271.583C90.118 269.976 94.2405 268.884 99.1316 268.347C108.913 267.272 121.732 268.417 135.268 272.044C148.804 275.671 160.479 281.089 168.412 286.91C172.379 289.822 175.404 292.828 177.259 295.756C179.115 298.683 179.794 301.515 179.103 304.093C178.412 306.67 176.409 308.784 173.338 310.391C170.267 311.998 166.145 313.09 161.254 313.628C151.472 314.702 138.653 313.557 125.117 309.93C111.581 306.303 99.9061 300.885 91.9728 295.064C88.0057 292.153 84.9814 289.146 83.1257 286.219C81.27 283.291 80.5915 280.459 81.2822 277.882Z" stroke="url(#paint38_linear_346_109)" stroke-width="0.333546"/>
<path d="M81.2822 277.882C81.9728 275.304 83.9766 273.19 87.0472 271.583C90.118 269.976 94.2405 268.884 99.1316 268.347C108.913 267.272 121.732 268.417 135.268 272.044C148.804 275.671 160.479 281.089 168.412 286.91C172.379 289.822 175.404 292.828 177.259 295.756C179.115 298.683 179.794 301.515 179.103 304.093C178.412 306.67 176.409 308.784 173.338 310.391C170.267 311.998 166.145 313.09 161.254 313.628C151.472 314.702 138.653 313.557 125.117 309.93C111.581 306.303 99.9061 300.885 91.9728 295.064C88.0057 292.153 84.9814 289.146 83.1257 286.219C81.27 283.291 80.5915 280.459 81.2822 277.882Z" stroke="url(#paint39_radial_346_109)" stroke-width="0.333546"/>
</g>
<path d="M116.904 289.25C116.912 289.392 116.928 289.593 116.962 289.841C117.032 290.344 117.177 291.04 117.479 291.809C117.931 292.96 118.889 294.322 119.605 295.133C124.77 300.989 135.448 304.443 143.386 302.841C151.325 301.238 153.603 295.17 148.437 289.314C143.269 283.455 132.775 280.215 124.841 281.816L103.76 286.071C102.582 286.309 102.238 287.208 103.013 288.086L104.588 289.872C105.363 290.751 106.949 291.26 108.127 291.022L116.904 289.25ZM135.597 287.076L135.597 287.076C138.008 287.724 140.237 288.947 141.716 290.623C144.489 293.767 143.288 297.004 139.001 297.869C134.714 298.734 129.028 296.888 126.255 293.743C123.488 290.607 124.928 287.656 129.227 286.788C131.232 286.383 133.486 286.509 135.597 287.076Z" fill="white"/>
<path d="M116.904 289.25C116.912 289.392 116.928 289.593 116.962 289.841C117.032 290.344 117.177 291.04 117.479 291.809C117.931 292.96 118.889 294.322 119.605 295.133C124.77 300.989 135.448 304.443 143.386 302.841C151.325 301.238 153.603 295.17 148.437 289.314C143.269 283.455 132.775 280.215 124.841 281.816L103.76 286.071C102.582 286.309 102.238 287.208 103.013 288.086L104.588 289.872C105.363 290.751 106.949 291.26 108.127 291.022L116.904 289.25ZM135.597 287.076L135.597 287.076C138.008 287.724 140.237 288.947 141.716 290.623C144.489 293.767 143.288 297.004 139.001 297.869C134.714 298.734 129.028 296.888 126.255 293.743C123.488 290.607 124.928 287.656 129.227 286.788C131.232 286.383 133.486 286.509 135.597 287.076Z" fill="url(#paint40_linear_346_109)"/>
<path d="M116.904 289.25C116.912 289.392 116.928 289.593 116.962 289.841C117.032 290.344 117.177 291.04 117.479 291.809C117.931 292.96 118.889 294.322 119.605 295.133C124.77 300.989 135.448 304.443 143.386 302.841C151.325 301.238 153.603 295.17 148.437 289.314C143.269 283.455 132.775 280.215 124.841 281.816L103.76 286.071C102.582 286.309 102.238 287.208 103.013 288.086L104.588 289.872C105.363 290.751 106.949 291.26 108.127 291.022L116.904 289.25ZM135.597 287.076L135.597 287.076C138.008 287.724 140.237 288.947 141.716 290.623C144.489 293.767 143.288 297.004 139.001 297.869C134.714 298.734 129.028 296.888 126.255 293.743C123.488 290.607 124.928 287.656 129.227 286.788C131.232 286.383 133.486 286.509 135.597 287.076Z" stroke="url(#paint41_linear_346_109)" stroke-width="0.333546"/>
<path d="M116.904 289.25C116.912 289.392 116.928 289.593 116.962 289.841C117.032 290.344 117.177 291.04 117.479 291.809C117.931 292.96 118.889 294.322 119.605 295.133C124.77 300.989 135.448 304.443 143.386 302.841C151.325 301.238 153.603 295.17 148.437 289.314C143.269 283.455 132.775 280.215 124.841 281.816L103.76 286.071C102.582 286.309 102.238 287.208 103.013 288.086L104.588 289.872C105.363 290.751 106.949 291.26 108.127 291.022L116.904 289.25ZM135.597 287.076L135.597 287.076C138.008 287.724 140.237 288.947 141.716 290.623C144.489 293.767 143.288 297.004 139.001 297.869C134.714 298.734 129.028 296.888 126.255 293.743C123.488 290.607 124.928 287.656 129.227 286.788C131.232 286.383 133.486 286.509 135.597 287.076Z" stroke="url(#paint42_radial_346_109)" stroke-width="0.333546"/>
<path fill-rule="evenodd" clip-rule="evenodd" d="M119.765 295.095C124.865 300.877 135.418 304.296 143.272 302.711C151.127 301.125 153.37 295.124 148.27 289.342C143.17 283.56 132.802 280.351 124.948 281.936L129.094 286.637L123.093 287.848L117.091 289.059C117.09 289.244 117.079 289.335 117.113 289.62C117.316 291.36 118.113 293.223 119.765 295.095ZM126.087 293.771C123.249 290.553 124.741 287.54 129.112 286.658C131.153 286.246 133.451 286.373 135.61 286.953C138.077 287.616 140.362 288.869 141.876 290.585C144.714 293.803 143.479 297.107 139.108 297.989C134.736 298.871 128.926 296.989 126.087 293.771Z" fill="url(#paint43_radial_346_109)"/>
<defs>
<filter id="filter0_b_346_109" x="133.885" y="9.1231" width="112.737" height="85.2614" filterUnits="userSpaceOnUse" color-interpolation-filters="sRGB">
<feFlood flood-opacity="0" result="BackgroundImageFix"/>
<feGaussianBlur in="BackgroundImageFix" stdDeviation="4.00255"/>
<feComposite in2="SourceAlpha" operator="in" result="effect1_backgroundBlur_346_109"/>
<feBlend mode="normal" in="SourceGraphic" in2="effect1_backgroundBlur_346_109" result="shape"/>
</filter>
<filter id="filter1_b_346_109" x="134.585" y="5.69326" width="102.601" height="73.6726" filterUnits="userSpaceOnUse" color-interpolation-filters="sRGB">
<feFlood flood-opacity="0" result="BackgroundImageFix"/>
<feGaussianBlur in="BackgroundImageFix" stdDeviation="3.09825"/>
<feComposite in2="SourceAlpha" operator="in" result="effect1_backgroundBlur_346_109"/>
<feBlend mode="normal" in="SourceGraphic" in2="effect1_backgroundBlur_346_109" result="shape"/>
</filter>
<filter id="filter2_b_346_109" x="64.1097" y="29.5754" width="67.0867" height="118.371" filterUnits="userSpaceOnUse" color-interpolation-filters="sRGB">
<feFlood flood-opacity="0" result="BackgroundImageFix"/>
<feGaussianBlur in="BackgroundImageFix" stdDeviation="4.00255"/>
<feComposite in2="SourceAlpha" operator="in" result="effect1_backgroundBlur_346_109"/>
<feBlend mode="normal" in="SourceGraphic" in2="effect1_backgroundBlur_346_109" result="shape"/>
</filter>
<filter id="filter3_b_346_109" x="55.8731" y="31.1137" width="58.7808" height="111.076" filterUnits="userSpaceOnUse" color-interpolation-filters="sRGB">
<feFlood flood-opacity="0" result="BackgroundImageFix"/>
<feGaussianBlur in="BackgroundImageFix" stdDeviation="3.09825"/>
<feComposite in2="SourceAlpha" operator="in" result="effect1_backgroundBlur_346_109"/>
<feBlend mode="normal" in="SourceGraphic" in2="effect1_backgroundBlur_346_109" result="shape"/>
</filter>
<filter id="filter4_b_346_109" x="11.0995" y="133.844" width="67.0867" height="118.371" filterUnits="userSpaceOnUse" color-interpolation-filters="sRGB">
<feFlood flood-opacity="0" result="BackgroundImageFix"/>
<feGaussianBlur in="BackgroundImageFix" stdDeviation="4.00255"/>
<feComposite in2="SourceAlpha" operator="in" result="effect1_backgroundBlur_346_109"/>
<feBlend mode="normal" in="SourceGraphic" in2="effect1_backgroundBlur_346_109" result="shape"/>
</filter>
<filter id="filter5_b_346_109" x="2.86277" y="139.6" width="58.7808" height="111.076" filterUnits="userSpaceOnUse" color-interpolation-filters="sRGB">
<feFlood flood-opacity="0" result="BackgroundImageFix"/>
<feGaussianBlur in="BackgroundImageFix" stdDeviation="3.09825"/>
<feComposite in2="SourceAlpha" operator="in" result="effect1_backgroundBlur_346_109"/>
<feBlend mode="normal" in="SourceGraphic" in2="effect1_backgroundBlur_346_109" result="shape"/>
</filter>
<filter id="filter6_b_346_109" x="73.1168" y="245.055" width="118.371" height="67.0867" filterUnits="userSpaceOnUse" color-interpolation-filters="sRGB">
<feFlood flood-opacity="0" result="BackgroundImageFix"/>
<feGaussianBlur in="BackgroundImageFix" stdDeviation="4.00255"/>
<feComposite in2="SourceAlpha" operator="in" result="effect1_backgroundBlur_346_109"/>
<feBlend mode="normal" in="SourceGraphic" in2="effect1_backgroundBlur_346_109" result="shape"/>
</filter>
<filter id="filter7_b_346_109" x="74.6543" y="261.597" width="111.076" height="58.7808" filterUnits="userSpaceOnUse" color-interpolation-filters="sRGB">
<feFlood flood-opacity="0" result="BackgroundImageFix"/>
<feGaussianBlur in="BackgroundImageFix" stdDeviation="3.09825"/>
<feComposite in2="SourceAlpha" operator="in" result="effect1_backgroundBlur_346_109"/>
<feBlend mode="normal" in="SourceGraphic" in2="effect1_backgroundBlur_346_109" result="shape"/>
</filter>
<linearGradient id="paint0_linear_346_109" x1="237.505" y1="48.5386" x2="197.731" y2="12.8334" gradientUnits="userSpaceOnUse">
<stop stop-color="white"/>
<stop offset="0.979167" stop-color="white"/>
</linearGradient>
<linearGradient id="paint1_linear_346_109" x1="237.505" y1="48.5386" x2="197.731" y2="12.8334" gradientUnits="userSpaceOnUse">
<stop stop-color="#121212"/>
<stop offset="0.979167" stop-color="#121212"/>
</linearGradient>
<linearGradient id="paint2_linear_346_109" x1="183.624" y1="38.6112" x2="209.419" y2="76.3679" gradientUnits="userSpaceOnUse">
<stop stop-color="#292929"/>
<stop offset="1" stop-color="#656565" stop-opacity="0"/>
</linearGradient>
<radialGradient id="paint3_radial_346_109" cx="0" cy="0" r="1" gradientUnits="userSpaceOnUse" gradientTransform="translate(225.419 54.2118) rotate(162.084) scale(36.3035 9.69549)">
<stop stop-color="white"/>
<stop offset="1" stop-color="white" stop-opacity="0"/>
</radialGradient>
<linearGradient id="paint4_linear_346_109" x1="227.585" y1="57.7704" x2="206.976" y2="1.88112" gradientUnits="userSpaceOnUse">
<stop stop-color="#010101"/>
<stop offset="1" stop-color="#010101"/>
</linearGradient>
<linearGradient id="paint5_linear_346_109" x1="175.997" y1="25.4012" x2="201.792" y2="63.1579" gradientUnits="userSpaceOnUse">
<stop stop-color="#292929"/>
<stop offset="1" stop-color="#656565" stop-opacity="0"/>
</linearGradient>
<radialGradient id="paint6_radial_346_109" cx="0" cy="0" r="1" gradientUnits="userSpaceOnUse" gradientTransform="translate(217.792 41.0018) rotate(162.084) scale(36.3035 9.69549)">
<stop stop-color="white"/>
<stop offset="1" stop-color="white" stop-opacity="0"/>
</radialGradient>
<linearGradient id="paint7_linear_346_109" x1="165.775" y1="52.7572" x2="209.147" y2="30.8903" gradientUnits="userSpaceOnUse">
<stop stop-color="#636262"/>
<stop offset="0.138896" stop-color="#C8C8C8"/>
<stop offset="0.409778" stop-color="#DCDCDC"/>
<stop offset="0.789331" stop-color="#5B5A5A"/>
<stop offset="0.927362" stop-color="white"/>
</linearGradient>
<linearGradient id="paint8_linear_346_109" x1="195.18" y1="24.7561" x2="199.763" y2="57.4539" gradientUnits="userSpaceOnUse">
<stop stop-color="#292929"/>
<stop offset="1" stop-color="#656565" stop-opacity="0"/>
</linearGradient>
<radialGradient id="paint9_radial_346_109" cx="0" cy="0" r="1" gradientUnits="userSpaceOnUse" gradientTransform="translate(184.589 52.8229) rotate(-129.966) scale(8.7388 9.15125)">
<stop stop-color="white"/>
<stop offset="1" stop-color="white" stop-opacity="0"/>
</radialGradient>
<radialGradient id="paint10_radial_346_109" cx="0" cy="0" r="1" gradientUnits="userSpaceOnUse" gradientTransform="translate(200.282 34.2605) rotate(3.58489) scale(27.5556 24.7999)">
<stop stop-color="#060606" stop-opacity="0.476377"/>
<stop offset="0.110106" stop-color="#030509" stop-opacity="0.253808"/>
<stop offset="0.45098" stop-color="#00040C" stop-opacity="0"/>
<stop offset="0.659125" stop-color="#144A4C" stop-opacity="0"/>
<stop offset="1" stop-color="#2AFDC5" stop-opacity="0"/>
</radialGradient>
<linearGradient id="paint11_linear_346_109" x1="126.013" y1="54.401" x2="72.6411" y2="57.2778" gradientUnits="userSpaceOnUse">
<stop stop-color="white"/>
<stop offset="0.979167" stop-color="white"/>
</linearGradient>
<linearGradient id="paint12_linear_346_109" x1="126.013" y1="54.401" x2="72.6411" y2="57.2778" gradientUnits="userSpaceOnUse">
<stop stop-color="#121212"/>
<stop offset="0.979167" stop-color="#121212"/>
</linearGradient>
<linearGradient id="paint13_linear_346_109" x1="80.8932" y1="85.481" x2="125.831" y2="93.9392" gradientUnits="userSpaceOnUse">
<stop stop-color="#292929"/>
<stop offset="1" stop-color="#656565" stop-opacity="0"/>
</linearGradient>
<radialGradient id="paint14_radial_346_109" cx="0" cy="0" r="1" gradientUnits="userSpaceOnUse" gradientTransform="translate(121.478 66.9586) rotate(117.084) scale(36.3035 9.69549)">
<stop stop-color="white"/>
<stop offset="1" stop-color="white" stop-opacity="0"/>
</radialGradient>
<linearGradient id="paint15_linear_346_109" x1="126.962" y1="101.893" x2="106.353" y2="46.0035" gradientUnits="userSpaceOnUse">
<stop stop-color="#010101"/>
<stop offset="1" stop-color="#010101"/>
</linearGradient>
<linearGradient id="paint16_linear_346_109" x1="66.1593" y1="81.533" x2="111.097" y2="89.9912" gradientUnits="userSpaceOnUse">
<stop stop-color="#292929"/>
<stop offset="1" stop-color="#656565" stop-opacity="0"/>
</linearGradient>
<radialGradient id="paint17_radial_346_109" cx="0" cy="0" r="1" gradientUnits="userSpaceOnUse" gradientTransform="translate(106.744 63.0106) rotate(117.084) scale(36.3035 9.69549)">
<stop stop-color="white"/>
<stop offset="1" stop-color="white" stop-opacity="0"/>
</radialGradient>
<linearGradient id="paint18_linear_346_109" x1="78.2746" y1="108.105" x2="93.481" y2="61.9741" gradientUnits="userSpaceOnUse">
<stop stop-color="#636262"/>
<stop offset="0.138896" stop-color="#C8C8C8"/>
<stop offset="0.409778" stop-color="#DCDCDC"/>
<stop offset="0.789331" stop-color="#5B5A5A"/>
<stop offset="0.927362" stop-color="white"/>
</linearGradient>
<linearGradient id="paint19_linear_346_109" x1="79.2678" y1="67.5123" x2="105.629" y2="87.3928" gradientUnits="userSpaceOnUse">
<stop stop-color="#292929"/>
<stop offset="1" stop-color="#656565" stop-opacity="0"/>
</linearGradient>
<radialGradient id="paint20_radial_346_109" cx="0" cy="0" r="1" gradientUnits="userSpaceOnUse" gradientTransform="translate(91.6244 94.8481) rotate(-174.966) scale(8.7388 9.15125)">
<stop stop-color="white"/>
<stop offset="1" stop-color="white" stop-opacity="0"/>
</radialGradient>
<radialGradient id="paint21_radial_346_109" cx="0" cy="0" r="1" gradientUnits="userSpaceOnUse" gradientTransform="translate(89.5954 70.6255) rotate(-41.4151) scale(27.5556 24.7999)">
<stop stop-color="#060606" stop-opacity="0.476377"/>
<stop offset="0.110106" stop-color="#030509" stop-opacity="0.253808"/>
<stop offset="0.45098" stop-color="#00040C" stop-opacity="0"/>
<stop offset="0.659125" stop-color="#144A4C" stop-opacity="0"/>
<stop offset="1" stop-color="#2AFDC5" stop-opacity="0"/>
</radialGradient>
<linearGradient id="paint22_linear_346_109" x1="51.4176" y1="146.834" x2="6.63488" y2="176.011" gradientUnits="userSpaceOnUse">
<stop stop-color="white"/>
<stop offset="0.979167" stop-color="white"/>
</linearGradient>
<linearGradient id="paint23_linear_346_109" x1="51.4176" y1="146.834" x2="6.63488" y2="176.011" gradientUnits="userSpaceOnUse">
<stop stop-color="#121212"/>
<stop offset="0.979167" stop-color="#121212"/>
</linearGradient>
<linearGradient id="paint24_linear_346_109" x1="27.883" y1="196.31" x2="71.0294" y2="181.166" gradientUnits="userSpaceOnUse">
<stop stop-color="#292929"/>
<stop offset="1" stop-color="#656565" stop-opacity="0"/>
</linearGradient>
<radialGradient id="paint25_radial_346_109" cx="0" cy="0" r="1" gradientUnits="userSpaceOnUse" gradientTransform="translate(53.7694 159.976) rotate(87.0841) scale(36.3035 9.69549)">
<stop stop-color="white"/>
<stop offset="1" stop-color="white" stop-opacity="0"/>
</radialGradient>
<linearGradient id="paint26_linear_346_109" x1="73.952" y1="210.379" x2="53.3431" y2="154.49" gradientUnits="userSpaceOnUse">
<stop stop-color="#010101"/>
<stop offset="1" stop-color="#010101"/>
</linearGradient>
<linearGradient id="paint27_linear_346_109" x1="13.149" y1="200.257" x2="56.2954" y2="185.113" gradientUnits="userSpaceOnUse">
<stop stop-color="#292929"/>
<stop offset="1" stop-color="#656565" stop-opacity="0"/>
</linearGradient>
<radialGradient id="paint28_radial_346_109" cx="0" cy="0" r="1" gradientUnits="userSpaceOnUse" gradientTransform="translate(39.0354 163.924) rotate(87.0841) scale(36.3035 9.69549)">
<stop stop-color="white"/>
<stop offset="1" stop-color="white" stop-opacity="0"/>
</radialGradient>
<linearGradient id="paint29_linear_346_109" x1="36.927" y1="217.212" x2="27.0308" y2="169.658" gradientUnits="userSpaceOnUse">
<stop stop-color="#636262"/>
<stop offset="0.138896" stop-color="#C8C8C8"/>
<stop offset="0.409778" stop-color="#DCDCDC"/>
<stop offset="0.789331" stop-color="#5B5A5A"/>
<stop offset="0.927362" stop-color="white"/>
</linearGradient>
<linearGradient id="paint30_linear_346_109" x1="17.4908" y1="181.561" x2="50.2605" y2="185.597" gradientUnits="userSpaceOnUse">
<stop stop-color="#292929"/>
<stop offset="1" stop-color="#656565" stop-opacity="0"/>
</linearGradient>
<radialGradient id="paint31_radial_346_109" cx="0" cy="0" r="1" gradientUnits="userSpaceOnUse" gradientTransform="translate(41.8598 199.056) rotate(155.034) scale(8.7388 9.15125)">
<stop stop-color="white"/>
<stop offset="1" stop-color="white" stop-opacity="0"/>
</radialGradient>
<radialGradient id="paint32_radial_346_109" cx="0" cy="0" r="1" gradientUnits="userSpaceOnUse" gradientTransform="translate(27.9915 179.093) rotate(-71.4151) scale(27.5556 24.7999)">
<stop stop-color="#060606" stop-opacity="0.476377"/>
<stop offset="0.110106" stop-color="#030509" stop-opacity="0.253808"/>
<stop offset="0.45098" stop-color="#00040C" stop-opacity="0"/>
<stop offset="0.659125" stop-color="#144A4C" stop-opacity="0"/>
<stop offset="1" stop-color="#2AFDC5" stop-opacity="0"/>
</radialGradient>
<linearGradient id="paint33_linear_346_109" x1="97.9423" y1="250.238" x2="100.819" y2="303.61" gradientUnits="userSpaceOnUse">
<stop stop-color="white"/>
<stop offset="0.979167" stop-color="white"/>
</linearGradient>
<linearGradient id="paint34_linear_346_109" x1="97.9423" y1="250.238" x2="100.819" y2="303.61" gradientUnits="userSpaceOnUse">
<stop stop-color="#121212"/>
<stop offset="0.979167" stop-color="#121212"/>
</linearGradient>
<linearGradient id="paint35_linear_346_109" x1="129.022" y1="295.358" x2="137.481" y2="250.42" gradientUnits="userSpaceOnUse">
<stop stop-color="#292929"/>
<stop offset="1" stop-color="#656565" stop-opacity="0"/>
</linearGradient>
<radialGradient id="paint36_radial_346_109" cx="0" cy="0" r="1" gradientUnits="userSpaceOnUse" gradientTransform="translate(110.5 254.773) rotate(27.0841) scale(36.3035 9.69549)">
<stop stop-color="white"/>
<stop offset="1" stop-color="white" stop-opacity="0"/>
</radialGradient>
<linearGradient id="paint37_linear_346_109" x1="171.891" y1="306.228" x2="151.283" y2="250.339" gradientUnits="userSpaceOnUse">
<stop stop-color="#010101"/>
<stop offset="1" stop-color="#010101"/>
</linearGradient>
<linearGradient id="paint38_linear_346_109" x1="125.074" y1="310.091" x2="133.532" y2="265.153" gradientUnits="userSpaceOnUse">
<stop stop-color="#292929"/>
<stop offset="1" stop-color="#656565" stop-opacity="0"/>
</linearGradient>
<radialGradient id="paint39_radial_346_109" cx="0" cy="0" r="1" gradientUnits="userSpaceOnUse" gradientTransform="translate(106.551 269.506) rotate(27.0841) scale(36.3035 9.69549)">
<stop stop-color="white"/>
<stop offset="1" stop-color="white" stop-opacity="0"/>
</radialGradient>
<linearGradient id="paint40_linear_346_109" x1="151.646" y1="297.976" x2="105.515" y2="282.77" gradientUnits="userSpaceOnUse">
<stop stop-color="#636262"/>
<stop offset="0.138896" stop-color="#C8C8C8"/>
<stop offset="0.409778" stop-color="#DCDCDC"/>
<stop offset="0.789331" stop-color="#5B5A5A"/>
<stop offset="0.927362" stop-color="white"/>
</linearGradient>
<linearGradient id="paint41_linear_346_109" x1="111.053" y1="296.983" x2="130.934" y2="270.622" gradientUnits="userSpaceOnUse">
<stop stop-color="#292929"/>
<stop offset="1" stop-color="#656565" stop-opacity="0"/>
</linearGradient>
<radialGradient id="paint42_radial_346_109" cx="0" cy="0" r="1" gradientUnits="userSpaceOnUse" gradientTransform="translate(138.389 284.626) rotate(95.0338) scale(8.7388 9.15125)">
<stop stop-color="white"/>
<stop offset="1" stop-color="white" stop-opacity="0"/>
</radialGradient>
<radialGradient id="paint43_radial_346_109" cx="0" cy="0" r="1" gradientUnits="userSpaceOnUse" gradientTransform="translate(114.166 286.655) rotate(-131.415) scale(27.5556 24.7999)">
<stop stop-color="#060606" stop-opacity="0.476377"/>
<stop offset="0.110106" stop-color="#030509" stop-opacity="0.253808"/>
<stop offset="0.45098" stop-color="#00040C" stop-opacity="0"/>
<stop offset="0.659125" stop-color="#144A4C" stop-opacity="0"/>
<stop offset="1" stop-color="#2AFDC5" stop-opacity="0"/>
</radialGradient>
</defs>
</svg>
