<svg width="30" height="39" viewBox="0 0 30 39" fill="none" xmlns="http://www.w3.org/2000/svg">
<path fill-rule="evenodd" clip-rule="evenodd" d="M24.8911 0C23.7714 0 22.8638 0.907575 22.8638 2.02726V23.6192V11.326C22.8638 11.326 21.4091 10.3586 19.4742 9.71278C18.0291 9.23049 16.2117 9.02145 15.0978 9.0214C7.05294 9.0214 0.5 15.5744 0.5 23.6192C0.5 31.6639 7.05294 38.217 15.0978 38.217C23.1427 38.217 29.4038 31.6639 29.4038 23.6192V2.02726C29.4038 0.907575 28.4962 0 27.3765 0H24.8911ZM15.1544 15.5339C19.6316 15.5339 22.8346 19.142 22.8346 23.6192C22.8346 25.7089 22.1365 27.6099 20.9369 29.0421C19.5665 30.679 17.5418 31.7044 15.1544 31.7044C10.6771 31.7044 7.06904 28.0963 7.069 23.6192C7.069 19.142 10.6771 15.5338 15.1544 15.5339Z" fill="#121212"/>
</svg>
